<svg width="310" height="114" viewBox="0 0 310 114" fill="none" xmlns="http://www.w3.org/2000/svg">
<g filter="url(#filter0_d_1_8)">
<rect x="4" width="302" height="106" rx="16" fill="white"/>
<path d="M59.8111 47.0156C59.6918 45.8991 59.1889 45.0298 58.3026 44.4077C57.4247 43.7855 56.2827 43.4744 54.8764 43.4744C53.8878 43.4744 53.0398 43.6236 52.3324 43.9219C51.625 44.2202 51.0838 44.625 50.7088 45.1364C50.3338 45.6477 50.142 46.2315 50.1335 46.8878C50.1335 47.4332 50.2571 47.9062 50.5043 48.3068C50.7599 48.7074 51.1051 49.0483 51.5398 49.3295C51.9744 49.6023 52.456 49.8324 52.9844 50.0199C53.5128 50.2074 54.0455 50.3651 54.5824 50.4929L57.0369 51.1065C58.0256 51.3366 58.9759 51.6477 59.8878 52.0398C60.8082 52.4318 61.6307 52.9261 62.3551 53.5227C63.0881 54.1193 63.6676 54.8395 64.0938 55.6832C64.5199 56.527 64.733 57.5156 64.733 58.6491C64.733 60.1832 64.3409 61.5341 63.5568 62.7017C62.7727 63.8608 61.6392 64.7685 60.1562 65.4247C58.6818 66.0724 56.8963 66.3963 54.7997 66.3963C52.7628 66.3963 50.9943 66.081 49.4943 65.4503C48.0028 64.8196 46.8352 63.8991 45.9915 62.6889C45.1563 61.4787 44.7045 60.0043 44.6364 58.2656H49.3026C49.3707 59.1776 49.652 59.9361 50.1463 60.5412C50.6406 61.1463 51.2841 61.598 52.0767 61.8963C52.8778 62.1946 53.7727 62.3438 54.7614 62.3438C55.7926 62.3438 56.696 62.1903 57.4716 61.8835C58.2557 61.5682 58.8693 61.1335 59.3125 60.5795C59.7557 60.017 59.9815 59.3608 59.9901 58.6108C59.9815 57.929 59.7813 57.3665 59.3892 56.9233C58.9972 56.4716 58.4474 56.0966 57.7401 55.7983C57.0412 55.4915 56.223 55.2187 55.2855 54.9801L52.3068 54.2131C50.1506 53.6591 48.446 52.8196 47.1932 51.6946C45.9489 50.5611 45.3267 49.0568 45.3267 47.1818C45.3267 45.6392 45.7443 44.2884 46.5795 43.1293C47.4233 41.9702 48.5696 41.071 50.0185 40.4318C51.4673 39.7841 53.108 39.4602 54.9403 39.4602C56.7983 39.4602 58.4261 39.7841 59.8239 40.4318C61.2301 41.071 62.3338 41.9616 63.1349 43.1037C63.9361 44.2372 64.3494 45.5412 64.375 47.0156H59.8111ZM68.7567 66V46.3636H73.3846V66H68.7567ZM71.0835 43.5767C70.3505 43.5767 69.7198 43.3338 69.1914 42.848C68.663 42.3537 68.3988 41.7614 68.3988 41.071C68.3988 40.3722 68.663 39.7798 69.1914 39.294C69.7198 38.7997 70.3505 38.5526 71.0835 38.5526C71.8249 38.5526 72.4556 38.7997 72.9755 39.294C73.5039 39.7798 73.7681 40.3722 73.7681 41.071C73.7681 41.7614 73.5039 42.3537 72.9755 42.848C72.4556 43.3338 71.8249 43.5767 71.0835 43.5767ZM78.1435 66V46.3636H82.5668V49.7003H82.7969C83.206 48.5753 83.8835 47.6974 84.8295 47.0668C85.7756 46.4276 86.9048 46.108 88.2173 46.108C89.5469 46.108 90.6676 46.4318 91.5795 47.0795C92.5 47.7187 93.1477 48.5923 93.5227 49.7003H93.7273C94.1619 48.6094 94.8949 47.7401 95.9261 47.0923C96.9659 46.4361 98.1974 46.108 99.6207 46.108C101.428 46.108 102.902 46.679 104.044 47.821C105.186 48.9631 105.757 50.6293 105.757 52.8196V66H101.116V53.5355C101.116 52.3168 100.793 51.4261 100.145 50.8636C99.4972 50.2926 98.7045 50.0071 97.767 50.0071C96.6506 50.0071 95.777 50.3565 95.1463 51.0554C94.5241 51.7457 94.2131 52.6449 94.2131 53.7528V66H89.6747V53.3438C89.6747 52.3295 89.3679 51.5199 88.7543 50.9148C88.1491 50.3097 87.3565 50.0071 86.3764 50.0071C85.7116 50.0071 85.1065 50.1776 84.5611 50.5185C84.0156 50.8509 83.581 51.3239 83.2571 51.9375C82.9332 52.5426 82.7713 53.25 82.7713 54.0597V66H78.1435ZM110.452 66V46.3636H114.875V49.7003H115.105C115.515 48.5753 116.192 47.6974 117.138 47.0668C118.084 46.4276 119.213 46.108 120.526 46.108C121.855 46.108 122.976 46.4318 123.888 47.0795C124.809 47.7187 125.456 48.5923 125.831 49.7003H126.036C126.471 48.6094 127.203 47.7401 128.235 47.0923C129.275 46.4361 130.506 46.108 131.929 46.108C133.736 46.108 135.211 46.679 136.353 47.821C137.495 48.9631 138.066 50.6293 138.066 52.8196V66H133.425V53.5355C133.425 52.3168 133.101 51.4261 132.453 50.8636C131.806 50.2926 131.013 50.0071 130.076 50.0071C128.959 50.0071 128.086 50.3565 127.455 51.0554C126.833 51.7457 126.522 52.6449 126.522 53.7528V66H121.983V53.3438C121.983 52.3295 121.676 51.5199 121.063 50.9148C120.458 50.3097 119.665 50.0071 118.685 50.0071C118.02 50.0071 117.415 50.1776 116.87 50.5185C116.324 50.8509 115.89 51.3239 115.566 51.9375C115.242 52.5426 115.08 53.25 115.08 54.0597V66H110.452ZM142.761 66V46.3636H147.388V66H142.761ZM145.087 43.5767C144.354 43.5767 143.724 43.3338 143.195 42.848C142.667 42.3537 142.403 41.7614 142.403 41.071C142.403 40.3722 142.667 39.7798 143.195 39.294C143.724 38.7997 144.354 38.5526 145.087 38.5526C145.829 38.5526 146.46 38.7997 146.979 39.294C147.508 39.7798 147.772 40.3722 147.772 41.071C147.772 41.7614 147.508 42.3537 146.979 42.848C146.46 43.3338 145.829 43.5767 145.087 43.5767ZM161.282 66V39.8182H171.1C173.111 39.8182 174.799 40.1676 176.162 40.8665C177.534 41.5653 178.57 42.5455 179.269 43.8068C179.976 45.0597 180.33 46.5213 180.33 48.1918C180.33 49.8707 179.972 51.3281 179.256 52.5639C178.549 53.7912 177.505 54.7415 176.124 55.4148C174.743 56.0795 173.047 56.4119 171.036 56.4119H164.043V52.4744H170.397C171.573 52.4744 172.536 52.3125 173.286 51.9886C174.036 51.6562 174.59 51.1747 174.948 50.544C175.314 49.9048 175.498 49.1207 175.498 48.1918C175.498 47.2628 175.314 46.4702 174.948 45.8139C174.581 45.1491 174.023 44.6463 173.273 44.3054C172.523 43.956 171.556 43.7812 170.371 43.7812H166.025V66H161.282ZM174.807 54.1364L181.289 66H175.996L169.63 54.1364H174.807ZM190.142 66.3963C188.897 66.3963 187.777 66.1747 186.779 65.7315C185.791 65.2798 185.007 64.6151 184.427 63.7372C183.856 62.8594 183.571 61.777 183.571 60.4901C183.571 59.3821 183.775 58.4659 184.184 57.7415C184.593 57.017 185.152 56.4375 185.859 56.0028C186.566 55.5682 187.363 55.2401 188.25 55.0185C189.145 54.7884 190.069 54.6222 191.024 54.5199C192.174 54.4006 193.108 54.294 193.824 54.2003C194.539 54.098 195.059 53.9446 195.383 53.7401C195.716 53.527 195.882 53.1989 195.882 52.7557V52.679C195.882 51.7159 195.596 50.9702 195.025 50.4418C194.454 49.9134 193.632 49.6491 192.558 49.6491C191.424 49.6491 190.525 49.8963 189.86 50.3906C189.204 50.8849 188.761 51.4687 188.531 52.142L184.21 51.5284C184.551 50.3352 185.113 49.3381 185.897 48.5369C186.681 47.7273 187.64 47.1222 188.774 46.7216C189.907 46.3125 191.16 46.108 192.532 46.108C193.478 46.108 194.42 46.2188 195.358 46.4403C196.295 46.6619 197.152 47.0284 197.927 47.5398C198.703 48.0426 199.325 48.7287 199.794 49.598C200.271 50.4673 200.51 51.554 200.51 52.858V66H196.061V63.3026H195.907C195.626 63.848 195.23 64.3594 194.718 64.8366C194.216 65.3054 193.581 65.6847 192.814 65.9744C192.055 66.2557 191.164 66.3963 190.142 66.3963ZM191.343 62.9957C192.272 62.9957 193.078 62.8125 193.76 62.446C194.441 62.071 194.966 61.5767 195.332 60.9631C195.707 60.3494 195.895 59.6804 195.895 58.956V56.642C195.75 56.7614 195.502 56.8722 195.153 56.9744C194.812 57.0767 194.429 57.1662 194.002 57.2429C193.576 57.3196 193.154 57.3878 192.737 57.4474C192.319 57.5071 191.957 57.5582 191.65 57.6009C190.96 57.6946 190.342 57.848 189.797 58.0611C189.251 58.2741 188.821 58.5724 188.505 58.956C188.19 59.331 188.032 59.8168 188.032 60.4134C188.032 61.2656 188.343 61.9091 188.966 62.3438C189.588 62.7784 190.38 62.9957 191.343 62.9957ZM209.791 54.4943V66H205.163V46.3636H209.586V49.7003H209.816C210.268 48.6009 210.988 47.7273 211.977 47.0795C212.974 46.4318 214.206 46.108 215.672 46.108C217.027 46.108 218.207 46.3977 219.213 46.9773C220.227 47.5568 221.011 48.3963 221.565 49.4957C222.127 50.5952 222.404 51.929 222.396 53.4972V66H217.768V54.2131C217.768 52.9006 217.427 51.8736 216.745 51.1321C216.072 50.3906 215.139 50.0199 213.946 50.0199C213.136 50.0199 212.416 50.1989 211.785 50.5568C211.163 50.9062 210.673 51.4134 210.315 52.0781C209.966 52.7429 209.791 53.5483 209.791 54.4943ZM235.64 73.7727C233.978 73.7727 232.551 73.5469 231.358 73.0952C230.164 72.652 229.206 72.0554 228.481 71.3054C227.757 70.5554 227.254 69.7244 226.973 68.8125L231.14 67.8026C231.328 68.1861 231.6 68.5653 231.958 68.9403C232.316 69.3239 232.798 69.6392 233.403 69.8864C234.017 70.142 234.788 70.2699 235.717 70.2699C237.029 70.2699 238.116 69.9503 238.977 69.3111C239.838 68.6804 240.268 67.6406 240.268 66.1918V62.4716H240.038C239.799 62.9489 239.45 63.4389 238.99 63.9418C238.538 64.4446 237.937 64.8665 237.187 65.2074C236.446 65.5483 235.512 65.7188 234.387 65.7188C232.879 65.7188 231.511 65.3651 230.284 64.6577C229.065 63.9418 228.093 62.8764 227.369 61.4616C226.653 60.0384 226.295 58.2571 226.295 56.1179C226.295 53.9616 226.653 52.142 227.369 50.6591C228.093 49.1676 229.069 48.0384 230.297 47.2713C231.524 46.4957 232.892 46.108 234.4 46.108C235.551 46.108 236.497 46.304 237.238 46.696C237.988 47.0795 238.585 47.544 239.028 48.0895C239.471 48.6264 239.808 49.1335 240.038 49.6108H240.294V46.3636H244.858V66.3196C244.858 67.9986 244.457 69.3878 243.656 70.4872C242.855 71.5866 241.76 72.4091 240.37 72.9545C238.981 73.5 237.404 73.7727 235.64 73.7727ZM235.679 62.0881C236.659 62.0881 237.494 61.8494 238.184 61.3722C238.875 60.8949 239.399 60.2088 239.757 59.3139C240.115 58.419 240.294 57.3452 240.294 56.0923C240.294 54.8565 240.115 53.7741 239.757 52.8452C239.407 51.9162 238.887 51.196 238.197 50.6847C237.515 50.1648 236.676 49.9048 235.679 49.9048C234.647 49.9048 233.787 50.1733 233.096 50.7102C232.406 51.2472 231.886 51.9844 231.537 52.9219C231.187 53.8509 231.012 54.9077 231.012 56.0923C231.012 57.294 231.187 58.3466 231.537 59.25C231.895 60.1449 232.419 60.8437 233.109 61.3466C233.808 61.8409 234.664 62.0881 235.679 62.0881ZM255.251 66.3963C254.007 66.3963 252.886 66.1747 251.889 65.7315C250.9 65.2798 250.116 64.6151 249.537 63.7372C248.966 62.8594 248.68 61.777 248.68 60.4901C248.68 59.3821 248.885 58.4659 249.294 57.7415C249.703 57.017 250.261 56.4375 250.968 56.0028C251.676 55.5682 252.473 55.2401 253.359 55.0185C254.254 54.7884 255.179 54.6222 256.133 54.5199C257.284 54.4006 258.217 54.294 258.933 54.2003C259.649 54.098 260.169 53.9446 260.493 53.7401C260.825 53.527 260.991 53.1989 260.991 52.7557V52.679C260.991 51.7159 260.706 50.9702 260.135 50.4418C259.564 49.9134 258.741 49.6491 257.667 49.6491C256.534 49.6491 255.635 49.8963 254.97 50.3906C254.314 50.8849 253.87 51.4687 253.64 52.142L249.319 51.5284C249.66 50.3352 250.223 49.3381 251.007 48.5369C251.791 47.7273 252.75 47.1222 253.883 46.7216C255.017 46.3125 256.27 46.108 257.642 46.108C258.588 46.108 259.529 46.2188 260.467 46.4403C261.404 46.6619 262.261 47.0284 263.037 47.5398C263.812 48.0426 264.434 48.7287 264.903 49.598C265.38 50.4673 265.619 51.554 265.619 52.858V66H261.17V63.3026H261.017C260.735 63.848 260.339 64.3594 259.828 64.8366C259.325 65.3054 258.69 65.6847 257.923 65.9744C257.164 66.2557 256.274 66.3963 255.251 66.3963ZM256.453 62.9957C257.382 62.9957 258.187 62.8125 258.869 62.446C259.551 62.071 260.075 61.5767 260.441 60.9631C260.816 60.3494 261.004 59.6804 261.004 58.956V56.642C260.859 56.7614 260.612 56.8722 260.262 56.9744C259.922 57.0767 259.538 57.1662 259.112 57.2429C258.686 57.3196 258.264 57.3878 257.846 57.4474C257.429 57.5071 257.066 57.5582 256.76 57.6009C256.069 57.6946 255.451 57.848 254.906 58.0611C254.36 58.2741 253.93 58.5724 253.615 58.956C253.299 59.331 253.142 59.8168 253.142 60.4134C253.142 61.2656 253.453 61.9091 254.075 62.3438C254.697 62.7784 255.49 62.9957 256.453 62.9957Z" fill="black"/>
</g>
<defs>
<filter id="filter0_d_1_8" x="0" y="0" width="310" height="114" filterUnits="userSpaceOnUse" color-interpolation-filters="sRGB">
<feFlood flood-opacity="0" result="BackgroundImageFix"/>
<feColorMatrix in="SourceAlpha" type="matrix" values="0 0 0 0 0 0 0 0 0 0 0 0 0 0 0 0 0 0 127 0" result="hardAlpha"/>
<feOffset dy="4"/>
<feGaussianBlur stdDeviation="2"/>
<feComposite in2="hardAlpha" operator="out"/>
<feColorMatrix type="matrix" values="0 0 0 0 0 0 0 0 0 0 0 0 0 0 0 0 0 0 0.25 0"/>
<feBlend mode="normal" in2="BackgroundImageFix" result="effect1_dropShadow_1_8"/>
<feBlend mode="normal" in="SourceGraphic" in2="effect1_dropShadow_1_8" result="shape"/>
</filter>
</defs>
</svg>
