<svg width="221" height="91" viewBox="0 0 221 91" fill="none" xmlns="http://www.w3.org/2000/svg">
<g filter="url(#filter0_f_4_12)">
<rect x="4" y="4" width="213" height="83" rx="16" fill="#FAFAFA"/>
</g>
<path d="M23.608 66.632C22.488 66.632 21.304 66.456 20.056 66.104C18.84 65.784 17.752 65.24 16.792 64.472C15.864 63.704 15.24 62.68 14.92 61.4C14.888 61.24 14.856 61.064 14.824 60.872C14.824 60.68 14.824 60.488 14.824 60.296C14.824 59.304 15.048 58.344 15.496 57.416C15.944 56.488 16.488 55.784 17.128 55.304H17.176C17.24 55.304 17.32 55.384 17.416 55.544C17.544 55.672 17.544 55.768 17.416 55.832C17.096 56.152 16.856 56.52 16.696 56.936C16.568 57.32 16.504 57.736 16.504 58.184C16.504 58.792 16.6 59.416 16.792 60.056C17.016 60.664 17.288 61.192 17.608 61.64C18.408 62.76 19.512 63.656 20.92 64.328C22.36 64.968 23.768 65.288 25.144 65.288C27.032 65.288 28.488 64.728 29.512 63.608C30.568 62.488 31.096 61.112 31.096 59.48C31.096 58.488 30.904 57.496 30.52 56.504C30.008 55.128 29.32 53.784 28.456 52.472C27.624 51.128 26.856 49.816 26.152 48.536C25.544 47.384 25.24 46.216 25.24 45.032C25.24 43.784 25.624 42.584 26.392 41.432C27.16 40.408 28.168 39.592 29.416 38.984C30.696 38.344 31.992 38.024 33.304 38.024C34.2 38.024 35.064 38.184 35.896 38.504C36.728 38.824 37.48 39.352 38.152 40.088C38.344 40.376 38.44 40.744 38.44 41.192C38.44 41.832 38.312 42.328 38.056 42.68C37.768 43.096 37.448 43.64 37.096 44.312C36.744 44.984 36.536 45.448 36.472 45.704C36.408 45.736 36.248 45.8 35.992 45.896C35.768 45.96 35.624 45.944 35.56 45.848C35.688 45.592 35.864 45.128 36.088 44.456C36.312 43.784 36.424 43.176 36.424 42.632C36.424 42.28 36.408 41.896 36.376 41.48C36.376 41.032 36.168 40.648 35.752 40.328C35.368 39.976 34.872 39.672 34.264 39.416C33.656 39.16 32.92 39.032 32.056 39.032C30.296 39.032 28.952 39.544 28.024 40.568C27.096 41.592 26.632 42.712 26.632 43.928C26.632 44.536 26.76 45.144 27.016 45.752C27.496 46.904 28.168 47.992 29.032 49.016C29.896 50.04 30.744 51.096 31.576 52.184C32.44 53.24 33.112 54.392 33.592 55.64C33.912 56.472 34.072 57.32 34.072 58.184C34.072 59.432 33.752 60.568 33.112 61.592C32.504 62.616 31.672 63.512 30.616 64.28C29.592 65.016 28.472 65.592 27.256 66.008C26.04 66.424 24.824 66.632 23.608 66.632ZM46.2723 46.664C45.8243 46.664 45.5043 46.52 45.3123 46.232C45.1843 46.072 45.1203 45.864 45.1203 45.608C45.1203 45.096 45.3603 44.68 45.8403 44.36C46.1923 44.168 46.5123 44.072 46.8003 44.072C47.2803 44.072 47.6163 44.216 47.8083 44.504C47.9363 44.664 48.0003 44.872 48.0003 45.128C48.0003 45.64 47.7443 46.056 47.2323 46.376C46.9443 46.568 46.6243 46.664 46.2723 46.664ZM37.9203 65.144C37.6003 65.144 37.3283 65.08 37.1043 64.952C36.9123 64.824 36.8163 64.584 36.8163 64.232C36.8163 63.784 36.9283 63.256 37.1523 62.648C37.4083 62.04 37.6803 61.432 37.9683 60.824C38.2883 60.216 38.5283 59.72 38.6883 59.336C38.9123 58.888 39.1843 58.312 39.5043 57.608C39.8563 56.872 40.1763 56.184 40.4643 55.544C40.7843 54.872 41.0083 54.408 41.1363 54.152C40.6883 54.632 40.1443 55.24 39.5043 55.976C38.8963 56.68 38.3203 57.368 37.7763 58.04C37.2323 58.712 36.8163 59.24 36.5283 59.624C36.4323 59.752 36.3523 59.816 36.2883 59.816C36.2243 59.816 36.1923 59.736 36.1923 59.576C36.1923 59.32 36.2723 59.08 36.4323 58.856C37.0403 58.088 37.7123 57.224 38.4483 56.264C39.2163 55.304 39.9043 54.424 40.5123 53.624C41.1203 52.792 41.5043 52.248 41.6643 51.992C42.0163 51.928 42.5283 51.832 43.2003 51.704C43.9043 51.576 44.3843 51.4 44.6403 51.176C44.7363 51.08 44.8323 51.032 44.9283 51.032C44.9923 51.032 45.0243 51.096 45.0243 51.224C45.0563 51.32 45.0243 51.432 44.9283 51.56C44.7363 51.784 44.4003 52.328 43.9203 53.192C43.4403 54.056 42.9283 55.016 42.3843 56.072C41.8723 57.096 41.3923 58.024 40.9443 58.856C40.4963 59.72 40.1123 60.552 39.7923 61.352C39.4723 62.152 39.3123 62.728 39.3123 63.08C39.3123 63.528 39.5363 63.752 39.9843 63.752C40.4003 63.752 40.9283 63.496 41.5683 62.984C42.2403 62.472 42.9123 61.864 43.5843 61.16C44.2563 60.424 44.8483 59.752 45.3603 59.144C45.5203 58.952 45.7123 58.728 45.9363 58.472C46.1923 58.184 46.3523 58.008 46.4163 57.944C46.4803 58.008 46.5123 58.12 46.5123 58.28C46.4803 58.504 46.4003 58.728 46.2723 58.952C46.1443 59.144 46.0163 59.32 45.8883 59.48C45.2163 60.312 44.4803 61.176 43.6803 62.072C42.8803 62.936 42.0003 63.672 41.0403 64.28C40.0803 64.856 39.0403 65.144 37.9203 65.144ZM45.8106 65.72C45.6826 65.72 45.6826 65.576 45.8106 65.288C45.9706 65 46.1146 64.68 46.2426 64.328C46.4026 63.976 46.5626 63.592 46.7226 63.176C47.0426 62.408 47.3946 61.544 47.7786 60.584C48.1626 59.624 48.5306 58.696 48.8826 57.8C49.2346 56.872 49.5386 56.088 49.7946 55.448C50.0826 54.776 50.2746 54.344 50.3706 54.152C49.9226 54.632 49.3786 55.24 48.7386 55.976C48.1306 56.68 47.5546 57.368 47.0106 58.04C46.4666 58.712 46.0506 59.24 45.7626 59.624C45.6666 59.752 45.5866 59.816 45.5226 59.816C45.4586 59.816 45.4266 59.736 45.4266 59.576C45.4266 59.32 45.5066 59.08 45.6666 58.856C46.2746 58.088 46.9466 57.224 47.6826 56.264C48.4506 55.304 49.1386 54.424 49.7466 53.624C50.3546 52.792 50.7386 52.248 50.8986 51.992C51.2506 51.928 51.7626 51.832 52.4346 51.704C53.1386 51.576 53.6186 51.4 53.8746 51.176C53.9706 51.08 54.0666 51.032 54.1626 51.032C54.2266 51.032 54.2586 51.096 54.2586 51.224C54.2906 51.32 54.2586 51.432 54.1626 51.56C53.9706 51.784 53.6346 52.312 53.1546 53.144C52.7066 53.944 52.2106 54.84 51.6666 55.832C51.1546 56.824 50.6746 57.72 50.2266 58.52C50.7386 57.912 51.2346 57.336 51.7146 56.792C52.2266 56.248 52.5786 55.864 52.7706 55.64C53.1546 55.256 53.6826 54.776 54.3546 54.2C55.0266 53.624 55.7306 53.096 56.4666 52.616C57.2026 52.136 57.8426 51.864 58.3866 51.8C58.5146 51.768 58.6266 51.752 58.7226 51.752C58.8186 51.752 58.9146 51.752 59.0106 51.752C59.6186 51.752 59.9226 51.976 59.9226 52.424C59.9226 52.616 59.8746 52.84 59.7786 53.096C59.6826 53.352 59.5546 53.608 59.3946 53.864C59.2026 54.248 58.8826 54.856 58.4346 55.688C57.9866 56.488 57.5866 57.224 57.2346 57.896L59.4906 55.64C59.8746 55.256 60.4026 54.776 61.0746 54.2C61.7466 53.624 62.4506 53.096 63.1866 52.616C63.9226 52.136 64.5626 51.864 65.1066 51.8C65.2346 51.768 65.3466 51.752 65.4426 51.752C65.5706 51.752 65.6666 51.752 65.7306 51.752C66.4346 51.752 66.7866 52.008 66.7866 52.52C66.7866 52.904 66.5786 53.416 66.1626 54.056C65.9386 54.408 65.5866 55 65.1066 55.832C64.6266 56.664 64.1306 57.576 63.6186 58.568C63.1386 59.528 62.7226 60.424 62.3706 61.256C62.0186 62.088 61.8426 62.696 61.8426 63.08C61.8426 63.528 62.0666 63.752 62.5146 63.752C62.9306 63.752 63.4586 63.512 64.0986 63.032C64.7706 62.52 65.4426 61.912 66.1146 61.208C66.8186 60.504 67.4266 59.832 67.9386 59.192C68.1626 58.936 68.3706 58.68 68.5626 58.424C68.7866 58.136 68.9146 57.976 68.9466 57.944C69.0106 58.008 69.0426 58.12 69.0426 58.28C69.0426 58.504 68.9626 58.728 68.8026 58.952C68.6746 59.144 68.5466 59.32 68.4186 59.48C67.8106 60.28 67.1066 61.112 66.3066 61.976C65.5386 62.84 64.6906 63.576 63.7626 64.184C62.8346 64.76 61.8426 65.096 60.7866 65.192C60.4666 65.224 60.1466 65.16 59.8266 65C59.5066 64.84 59.3466 64.584 59.3466 64.232C59.3466 63.784 59.4586 63.256 59.6826 62.648C59.9386 62.04 60.2106 61.432 60.4986 60.824C60.8186 60.216 61.0586 59.72 61.2186 59.336C61.7946 58.216 62.3226 57.16 62.8026 56.168C63.2826 55.176 63.6186 54.472 63.8106 54.056C63.9066 53.864 63.9546 53.704 63.9546 53.576C63.9546 53.352 63.7786 53.336 63.4266 53.528C63.0746 53.72 62.6426 54.008 62.1306 54.392C61.6506 54.776 61.2026 55.16 60.7866 55.544C60.3706 55.896 60.0986 56.136 59.9706 56.264C59.4266 56.808 58.7706 57.544 58.0026 58.472C57.2666 59.4 56.5786 60.376 55.9386 61.4C55.2986 62.392 54.8506 63.32 54.5946 64.184C54.2746 64.472 53.9706 64.616 53.6826 64.616C53.4586 64.616 53.2666 64.536 53.1066 64.376C52.9786 64.216 52.9146 64.024 52.9146 63.8C52.9146 63.16 53.1066 62.408 53.4906 61.544C53.9066 60.648 54.2426 59.912 54.4986 59.336C55.0746 58.216 55.6026 57.16 56.0826 56.168C56.5626 55.176 56.8986 54.472 57.0906 54.056C57.1866 53.864 57.2346 53.704 57.2346 53.576C57.2346 53.352 57.0586 53.336 56.7066 53.528C56.3546 53.72 55.9226 54.008 55.4106 54.392C54.9306 54.776 54.4826 55.16 54.0666 55.544C53.6506 55.896 53.3786 56.136 53.2506 56.264C52.4826 57.064 51.7626 57.88 51.0906 58.712C50.4506 59.544 49.9066 60.44 49.4586 61.4C49.2026 61.976 48.9306 62.616 48.6426 63.32C48.3546 64.024 48.1146 64.616 47.9226 65.096C47.5066 65.128 47.0906 65.24 46.6746 65.432C46.2586 65.624 45.9706 65.72 45.8106 65.72ZM68.3575 65.72C68.2295 65.72 68.2295 65.576 68.3575 65.288C68.5175 65 68.6615 64.68 68.7895 64.328C68.9495 63.976 69.1095 63.592 69.2695 63.176C69.5895 62.408 69.9415 61.544 70.3255 60.584C70.7095 59.624 71.0775 58.696 71.4295 57.8C71.7815 56.872 72.0855 56.088 72.3415 55.448C72.6295 54.776 72.8215 54.344 72.9175 54.152C72.4695 54.632 71.9255 55.24 71.2855 55.976C70.6775 56.68 70.1015 57.368 69.5575 58.04C69.0135 58.712 68.5975 59.24 68.3095 59.624C68.2135 59.752 68.1335 59.816 68.0695 59.816C68.0055 59.816 67.9735 59.736 67.9735 59.576C67.9735 59.32 68.0535 59.08 68.2135 58.856C68.8215 58.088 69.4935 57.224 70.2295 56.264C70.9975 55.304 71.6855 54.424 72.2935 53.624C72.9015 52.792 73.2855 52.248 73.4455 51.992C73.7975 51.928 74.3095 51.832 74.9815 51.704C75.6855 51.576 76.1655 51.4 76.4215 51.176C76.5175 51.08 76.6135 51.032 76.7095 51.032C76.7735 51.032 76.8055 51.096 76.8055 51.224C76.8375 51.32 76.8055 51.432 76.7095 51.56C76.5175 51.784 76.1815 52.312 75.7015 53.144C75.2535 53.944 74.7575 54.84 74.2135 55.832C73.7015 56.824 73.2215 57.72 72.7735 58.52C73.2855 57.912 73.7815 57.336 74.2615 56.792C74.7735 56.248 75.1255 55.864 75.3175 55.64C75.7015 55.256 76.2295 54.776 76.9015 54.2C77.5735 53.624 78.2775 53.096 79.0135 52.616C79.7495 52.136 80.3895 51.864 80.9335 51.8C81.0615 51.768 81.1735 51.752 81.2695 51.752C81.3655 51.752 81.4615 51.752 81.5575 51.752C82.1655 51.752 82.4695 51.976 82.4695 52.424C82.4695 52.616 82.4215 52.84 82.3255 53.096C82.2295 53.352 82.1015 53.608 81.9415 53.864C81.7495 54.248 81.4295 54.856 80.9815 55.688C80.5335 56.488 80.1335 57.224 79.7815 57.896L82.0375 55.64C82.4215 55.256 82.9495 54.776 83.6215 54.2C84.2935 53.624 84.9975 53.096 85.7335 52.616C86.4695 52.136 87.1095 51.864 87.6535 51.8C87.7815 51.768 87.8935 51.752 87.9895 51.752C88.1175 51.752 88.2135 51.752 88.2775 51.752C88.9815 51.752 89.3335 52.008 89.3335 52.52C89.3335 52.904 89.1255 53.416 88.7095 54.056C88.4855 54.408 88.1335 55 87.6535 55.832C87.1735 56.664 86.6775 57.576 86.1655 58.568C85.6855 59.528 85.2695 60.424 84.9175 61.256C84.5655 62.088 84.3895 62.696 84.3895 63.08C84.3895 63.528 84.6135 63.752 85.0615 63.752C85.4775 63.752 86.0055 63.512 86.6455 63.032C87.3175 62.52 87.9895 61.912 88.6615 61.208C89.3655 60.504 89.9735 59.832 90.4855 59.192C90.7095 58.936 90.9175 58.68 91.1095 58.424C91.3335 58.136 91.4615 57.976 91.4935 57.944C91.5575 58.008 91.5895 58.12 91.5895 58.28C91.5895 58.504 91.5095 58.728 91.3495 58.952C91.2215 59.144 91.0935 59.32 90.9655 59.48C90.3575 60.28 89.6535 61.112 88.8535 61.976C88.0855 62.84 87.2375 63.576 86.3095 64.184C85.3815 64.76 84.3895 65.096 83.3335 65.192C83.0135 65.224 82.6935 65.16 82.3735 65C82.0535 64.84 81.8935 64.584 81.8935 64.232C81.8935 63.784 82.0055 63.256 82.2295 62.648C82.4855 62.04 82.7575 61.432 83.0455 60.824C83.3655 60.216 83.6055 59.72 83.7655 59.336C84.3415 58.216 84.8695 57.16 85.3495 56.168C85.8295 55.176 86.1655 54.472 86.3575 54.056C86.4535 53.864 86.5015 53.704 86.5015 53.576C86.5015 53.352 86.3255 53.336 85.9735 53.528C85.6215 53.72 85.1895 54.008 84.6775 54.392C84.1975 54.776 83.7495 55.16 83.3335 55.544C82.9175 55.896 82.6455 56.136 82.5175 56.264C81.9735 56.808 81.3175 57.544 80.5495 58.472C79.8135 59.4 79.1255 60.376 78.4855 61.4C77.8455 62.392 77.3975 63.32 77.1415 64.184C76.8215 64.472 76.5175 64.616 76.2295 64.616C76.0055 64.616 75.8135 64.536 75.6535 64.376C75.5255 64.216 75.4615 64.024 75.4615 63.8C75.4615 63.16 75.6535 62.408 76.0375 61.544C76.4535 60.648 76.7895 59.912 77.0455 59.336C77.6215 58.216 78.1495 57.16 78.6295 56.168C79.1095 55.176 79.4455 54.472 79.6375 54.056C79.7335 53.864 79.7815 53.704 79.7815 53.576C79.7815 53.352 79.6055 53.336 79.2535 53.528C78.9015 53.72 78.4695 54.008 77.9575 54.392C77.4775 54.776 77.0295 55.16 76.6135 55.544C76.1975 55.896 75.9255 56.136 75.7975 56.264C75.0295 57.064 74.3095 57.88 73.6375 58.712C72.9975 59.544 72.4535 60.44 72.0055 61.4C71.7495 61.976 71.4775 62.616 71.1895 63.32C70.9015 64.024 70.6615 64.616 70.4695 65.096C70.0535 65.128 69.6375 65.24 69.2215 65.432C68.8055 65.624 68.5175 65.72 68.3575 65.72ZM100.6 46.664C100.152 46.664 99.8324 46.52 99.6404 46.232C99.5124 46.072 99.4484 45.864 99.4484 45.608C99.4484 45.096 99.6884 44.68 100.168 44.36C100.52 44.168 100.84 44.072 101.128 44.072C101.608 44.072 101.944 44.216 102.136 44.504C102.264 44.664 102.328 44.872 102.328 45.128C102.328 45.64 102.072 46.056 101.56 46.376C101.272 46.568 100.952 46.664 100.6 46.664ZM92.2484 65.144C91.9284 65.144 91.6564 65.08 91.4324 64.952C91.2404 64.824 91.1444 64.584 91.1444 64.232C91.1444 63.784 91.2564 63.256 91.4804 62.648C91.7364 62.04 92.0084 61.432 92.2964 60.824C92.6164 60.216 92.8564 59.72 93.0164 59.336C93.2404 58.888 93.5124 58.312 93.8324 57.608C94.1844 56.872 94.5044 56.184 94.7924 55.544C95.1124 54.872 95.3364 54.408 95.4644 54.152C95.0164 54.632 94.4724 55.24 93.8324 55.976C93.2244 56.68 92.6484 57.368 92.1044 58.04C91.5604 58.712 91.1444 59.24 90.8564 59.624C90.7604 59.752 90.6804 59.816 90.6164 59.816C90.5524 59.816 90.5204 59.736 90.5204 59.576C90.5204 59.32 90.6004 59.08 90.7604 58.856C91.3684 58.088 92.0404 57.224 92.7764 56.264C93.5444 55.304 94.2324 54.424 94.8404 53.624C95.4484 52.792 95.8324 52.248 95.9924 51.992C96.3444 51.928 96.8564 51.832 97.5284 51.704C98.2324 51.576 98.7124 51.4 98.9684 51.176C99.0644 51.08 99.1604 51.032 99.2564 51.032C99.3204 51.032 99.3524 51.096 99.3524 51.224C99.3844 51.32 99.3524 51.432 99.2564 51.56C99.0644 51.784 98.7284 52.328 98.2484 53.192C97.7684 54.056 97.2564 55.016 96.7124 56.072C96.2004 57.096 95.7204 58.024 95.2724 58.856C94.8244 59.72 94.4404 60.552 94.1204 61.352C93.8004 62.152 93.6404 62.728 93.6404 63.08C93.6404 63.528 93.8644 63.752 94.3124 63.752C94.7284 63.752 95.2564 63.496 95.8964 62.984C96.5684 62.472 97.2404 61.864 97.9124 61.16C98.5844 60.424 99.1764 59.752 99.6884 59.144C99.8484 58.952 100.04 58.728 100.264 58.472C100.52 58.184 100.68 58.008 100.744 57.944C100.808 58.008 100.84 58.12 100.84 58.28C100.808 58.504 100.728 58.728 100.6 58.952C100.472 59.144 100.344 59.32 100.216 59.48C99.5444 60.312 98.8084 61.176 98.0084 62.072C97.2084 62.936 96.3284 63.672 95.3684 64.28C94.4084 64.856 93.3684 65.144 92.2484 65.144ZM106.808 65.912C106.744 65.912 106.632 65.88 106.472 65.816C106.312 65.784 106.232 65.72 106.232 65.624C106.232 65.592 106.248 65.56 106.28 65.528C106.312 65.496 106.328 65.48 106.328 65.48C106.552 65.416 106.648 65.384 106.616 65.384C106.616 65.416 106.728 65.4 106.952 65.336C107.496 65.144 107.96 64.872 108.344 64.52C108.76 64.136 109.112 63.688 109.4 63.176C110.904 60.68 112.344 58.152 113.72 55.592C115.096 53 116.472 50.424 117.848 47.864C118.232 47.192 118.6 46.504 118.952 45.8C119.304 45.096 119.656 44.392 120.008 43.688C120.168 43.304 120.328 42.92 120.488 42.536C120.68 42.152 120.888 41.784 121.112 41.432C121.368 40.984 121.768 40.6 122.312 40.28C122.888 39.928 123.432 39.672 123.944 39.512H122.792C122.152 39.512 121.272 39.56 120.152 39.656C119.064 39.72 117.912 39.848 116.696 40.04C115.48 40.232 114.392 40.52 113.432 40.904C112.504 41.288 111.864 41.8 111.512 42.44C111.192 43.016 111.032 43.576 111.032 44.12C111.032 44.76 111.176 45.192 111.464 45.416C111.752 45.64 111.896 45.784 111.896 45.848C111.896 45.912 111.848 45.976 111.752 46.04C111.656 46.104 111.576 46.136 111.512 46.136C111.32 46.136 111.08 45.944 110.792 45.56C110.504 45.176 110.232 44.76 109.976 44.312C109.752 43.832 109.608 43.512 109.544 43.352C109.448 43 109.4 42.648 109.4 42.296C109.4 41.432 109.688 40.776 110.264 40.328C110.872 39.848 111.608 39.512 112.472 39.32C113.336 39.128 114.2 39.016 115.064 38.984C115.96 38.92 116.696 38.888 117.272 38.888C118.872 38.888 120.472 38.856 122.072 38.792C123.672 38.696 125.256 38.648 126.824 38.648C128.328 38.648 129.8 38.76 131.24 38.984C132.712 39.176 134.04 39.576 135.224 40.184C136.408 40.792 137.352 41.656 138.056 42.776C138.792 43.896 139.16 45.368 139.16 47.192C139.16 48.856 138.84 50.568 138.2 52.328C137.592 54.056 136.824 55.608 135.896 56.984C131.992 62.84 126.52 65.768 119.48 65.768C118.392 65.768 117.272 65.656 116.12 65.432C115 65.208 113.944 64.84 112.952 64.328C112.728 64.2 112.488 64.104 112.232 64.04C112.008 63.944 111.768 63.896 111.512 63.896C110.968 63.896 110.424 64.072 109.88 64.424C109.336 64.744 108.808 65.064 108.296 65.384C107.784 65.736 107.288 65.912 106.808 65.912ZM118.904 65.096C121.304 65.096 123.544 64.632 125.624 63.704C127.704 62.776 129.528 61.48 131.096 59.816C132.664 58.12 133.896 56.184 134.792 54.008C135.208 52.984 135.544 51.912 135.8 50.792C136.088 49.672 136.232 48.568 136.232 47.48C136.232 44.984 135.464 43.064 133.928 41.72C132.424 40.344 130.44 39.656 127.976 39.656C127.368 39.656 126.728 39.72 126.056 39.848C125.416 39.976 124.888 40.28 124.472 40.76C124.056 41.272 123.656 41.832 123.272 42.44C122.92 43.048 122.568 43.64 122.216 44.216C121.48 45.496 120.776 46.824 120.104 48.2C119.464 49.544 118.808 50.872 118.136 52.184C117.08 54.2 116.04 56.232 115.016 58.28C114.792 58.728 114.552 59.192 114.296 59.672C114.072 60.12 113.848 60.568 113.624 61.016C113.56 61.176 113.496 61.352 113.432 61.544C113.368 61.704 113.336 61.896 113.336 62.12C113.336 62.536 113.464 62.888 113.72 63.176C113.976 63.464 114.248 63.736 114.536 63.992C115.144 64.44 115.848 64.744 116.648 64.904C117.448 65.032 118.2 65.096 118.904 65.096ZM140.743 65.384C139.431 65.384 138.519 65.128 138.007 64.616C137.495 64.104 137.239 63.48 137.239 62.744C137.239 61.816 137.479 60.824 137.959 59.768C138.471 58.712 138.951 57.816 139.399 57.08C139.911 56.312 140.599 55.512 141.463 54.68C142.327 53.848 143.271 53.144 144.295 52.568C145.319 51.992 146.311 51.704 147.271 51.704C148.103 51.704 148.679 51.912 148.999 52.328C149.319 52.712 149.479 53.176 149.479 53.72C149.479 54.712 149.175 55.528 148.567 56.168C147.991 56.808 147.271 57.336 146.407 57.752C145.543 58.136 144.711 58.456 143.911 58.712C143.431 58.84 142.871 58.968 142.231 59.096C141.591 59.224 140.983 59.288 140.407 59.288C140.183 59.864 140.007 60.424 139.879 60.968C139.751 61.512 139.687 62.008 139.687 62.456C139.687 63 139.815 63.448 140.071 63.8C140.359 64.152 140.823 64.328 141.463 64.328C141.719 64.328 142.023 64.296 142.375 64.232C142.727 64.168 143.111 64.072 143.527 63.944C144.487 63.624 145.431 63.112 146.359 62.408C147.287 61.704 148.135 60.952 148.903 60.152C149.703 59.32 150.311 58.632 150.727 58.088C150.823 58.184 150.871 58.296 150.871 58.424C150.871 58.584 150.759 58.84 150.535 59.192C149.895 60.088 149.063 61.016 148.039 61.976C147.015 62.936 145.879 63.752 144.631 64.424C143.383 65.064 142.087 65.384 140.743 65.384ZM140.791 58.328C141.207 58.36 141.671 58.36 142.183 58.328C142.727 58.264 143.255 58.152 143.767 57.992C145.079 57.608 146.023 57 146.599 56.168C147.207 55.304 147.511 54.536 147.511 53.864C147.511 53.48 147.431 53.16 147.271 52.904C147.111 52.648 146.855 52.52 146.503 52.52C145.575 52.52 144.743 52.872 144.007 53.576C143.271 54.248 142.631 55.032 142.087 55.928C141.543 56.824 141.111 57.624 140.791 58.328ZM152.84 65.768C152.264 65.768 151.656 65.688 151.016 65.528C150.376 65.368 149.8 65.112 149.288 64.76C148.808 64.376 148.488 63.864 148.328 63.224C148.296 63.128 148.28 62.984 148.28 62.792C148.28 62.344 148.376 61.848 148.568 61.304C148.792 60.76 149.064 60.376 149.384 60.152C149.512 60.088 149.608 60.088 149.672 60.152C149.768 60.216 149.784 60.28 149.72 60.344C149.688 60.44 149.64 60.568 149.576 60.728C149.512 60.856 149.464 61 149.432 61.16C149.336 61.992 149.512 62.728 149.96 63.368C150.152 63.624 150.376 63.864 150.632 64.088C150.92 64.312 151.192 64.504 151.448 64.664C151.672 64.792 151.944 64.888 152.264 64.952C152.584 64.984 152.904 65 153.224 65C153.736 65 154.232 64.936 154.712 64.808C155.192 64.68 155.544 64.472 155.768 64.184C156.184 63.672 156.392 63.096 156.392 62.456C156.392 61.976 156.264 61.464 156.008 60.92C155.752 60.376 155.352 59.8 154.808 59.192C154.456 58.808 154.12 58.392 153.8 57.944C153.48 57.496 153.272 57.016 153.176 56.504C153.144 56.408 153.112 56.312 153.08 56.216C153.08 56.12 153.08 56.024 153.08 55.928C152.664 56.536 152.232 57.112 151.784 57.656C151.368 58.168 151 58.616 150.68 59C150.552 59.192 150.44 59.288 150.344 59.288C150.28 59.288 150.248 59.224 150.248 59.096C150.248 58.808 150.376 58.504 150.632 58.184C150.888 57.896 151.176 57.544 151.496 57.128C151.816 56.68 152.072 56.328 152.264 56.072C152.808 55.272 153.208 54.648 153.464 54.2C153.752 53.72 154.056 53.288 154.376 52.904C154.728 52.488 155.16 52.152 155.672 51.896C156.216 51.64 156.776 51.512 157.352 51.512C158.024 51.512 158.632 51.624 159.176 51.848C159.752 52.04 160.056 52.552 160.088 53.384C160.088 53.768 160.008 54.168 159.848 54.584C159.72 54.968 159.576 55.336 159.416 55.688C159.32 55.88 159.176 56.024 158.984 56.12C158.824 56.184 158.744 56.152 158.744 56.024C158.744 55.896 158.76 55.752 158.792 55.592C158.824 55.432 158.84 55.288 158.84 55.16C158.84 54.616 158.744 54.136 158.552 53.72C158.392 53.272 158.152 52.952 157.832 52.76C157.512 52.536 157.176 52.424 156.824 52.424C156.312 52.424 155.816 52.632 155.336 53.048C154.856 53.432 154.616 53.944 154.616 54.584C154.616 54.648 154.616 54.728 154.616 54.824C154.616 54.92 154.632 55 154.664 55.064C154.792 55.576 155.176 56.152 155.816 56.792C156.456 57.432 156.952 57.992 157.304 58.472C157.912 59.304 158.216 60.152 158.216 61.016C158.216 61.88 157.96 62.68 157.448 63.416C156.968 64.12 156.312 64.68 155.48 65.096C154.68 65.544 153.8 65.768 152.84 65.768ZM171.1 46.664C170.652 46.664 170.332 46.52 170.14 46.232C170.012 46.072 169.948 45.864 169.948 45.608C169.948 45.096 170.188 44.68 170.668 44.36C171.02 44.168 171.34 44.072 171.628 44.072C172.108 44.072 172.444 44.216 172.636 44.504C172.764 44.664 172.828 44.872 172.828 45.128C172.828 45.64 172.572 46.056 172.06 46.376C171.772 46.568 171.452 46.664 171.1 46.664ZM162.748 65.144C162.428 65.144 162.156 65.08 161.932 64.952C161.74 64.824 161.644 64.584 161.644 64.232C161.644 63.784 161.756 63.256 161.98 62.648C162.236 62.04 162.508 61.432 162.796 60.824C163.116 60.216 163.356 59.72 163.516 59.336C163.74 58.888 164.012 58.312 164.332 57.608C164.684 56.872 165.004 56.184 165.292 55.544C165.612 54.872 165.836 54.408 165.964 54.152C165.516 54.632 164.972 55.24 164.332 55.976C163.724 56.68 163.148 57.368 162.604 58.04C162.06 58.712 161.644 59.24 161.356 59.624C161.26 59.752 161.18 59.816 161.116 59.816C161.052 59.816 161.02 59.736 161.02 59.576C161.02 59.32 161.1 59.08 161.26 58.856C161.868 58.088 162.54 57.224 163.276 56.264C164.044 55.304 164.732 54.424 165.34 53.624C165.948 52.792 166.332 52.248 166.492 51.992C166.844 51.928 167.356 51.832 168.028 51.704C168.732 51.576 169.212 51.4 169.468 51.176C169.564 51.08 169.66 51.032 169.756 51.032C169.82 51.032 169.852 51.096 169.852 51.224C169.884 51.32 169.852 51.432 169.756 51.56C169.564 51.784 169.228 52.328 168.748 53.192C168.268 54.056 167.756 55.016 167.212 56.072C166.7 57.096 166.22 58.024 165.772 58.856C165.324 59.72 164.94 60.552 164.62 61.352C164.3 62.152 164.14 62.728 164.14 63.08C164.14 63.528 164.364 63.752 164.812 63.752C165.228 63.752 165.756 63.496 166.396 62.984C167.068 62.472 167.74 61.864 168.412 61.16C169.084 60.424 169.676 59.752 170.188 59.144C170.348 58.952 170.54 58.728 170.764 58.472C171.02 58.184 171.18 58.008 171.244 57.944C171.308 58.008 171.34 58.12 171.34 58.28C171.308 58.504 171.228 58.728 171.1 58.952C170.972 59.144 170.844 59.32 170.716 59.48C170.044 60.312 169.308 61.176 168.508 62.072C167.708 62.936 166.828 63.672 165.868 64.28C164.908 64.856 163.868 65.144 162.748 65.144ZM161.759 81.8C160.543 81.8 159.375 81.512 158.255 80.936C157.103 80.392 156.255 79.544 155.711 78.392C155.487 77.976 155.343 77.528 155.279 77.048C155.215 76.6 155.183 76.152 155.183 75.704V75.224C155.183 74.968 155.215 74.728 155.279 74.504C155.343 74.28 155.519 74.168 155.807 74.168C155.871 74.168 155.903 74.2 155.903 74.264C155.903 74.456 155.887 74.648 155.855 74.84C155.823 75.032 155.807 75.24 155.807 75.464C155.807 76.936 156.287 78.056 157.247 78.824C158.175 79.592 159.343 79.976 160.751 79.976C161.327 79.976 161.919 79.912 162.527 79.784C163.135 79.656 163.695 79.48 164.207 79.256C166.255 78.392 168.031 77.144 169.535 75.512C171.071 73.88 172.399 72.04 173.519 69.992C174.671 67.944 175.679 65.848 176.543 63.704C177.439 61.528 178.271 59.48 179.039 57.56C178.367 58.648 177.631 59.624 176.831 60.488C176.031 61.32 175.135 62.152 174.143 62.984C173.535 63.496 172.863 63.976 172.127 64.424C171.423 64.872 170.655 65.096 169.823 65.096C169.503 65.096 169.279 65 169.151 64.808C169.023 64.584 168.959 64.328 168.959 64.04V63.704C169.119 62.456 169.519 61.16 170.159 59.816C170.831 58.472 171.631 57.208 172.559 56.024C173.487 54.84 174.431 53.88 175.391 53.144C176.479 52.312 177.679 51.896 178.991 51.896H184.511C184.671 51.896 184.751 51.96 184.751 52.088C184.751 52.344 184.607 52.472 184.319 52.472C183.967 52.472 183.631 52.616 183.311 52.904C182.991 53.192 182.751 53.464 182.591 53.72C182.271 54.232 181.855 55.016 181.343 56.072C180.831 57.128 180.271 58.344 179.663 59.72C179.055 61.064 178.447 62.44 177.839 63.848C177.231 65.224 176.671 66.52 176.159 67.736C175.391 69.56 174.511 71.336 173.519 73.064C172.559 74.824 171.407 76.392 170.063 77.768C168.751 79.176 167.183 80.28 165.359 81.08C164.271 81.56 163.071 81.8 161.759 81.8ZM171.791 63.464C172.175 63.464 172.703 63.192 173.375 62.648C174.047 62.072 174.783 61.368 175.583 60.536C176.383 59.672 177.135 58.776 177.839 57.848C178.543 56.888 179.119 56.024 179.567 55.256C180.047 54.456 180.287 53.848 180.287 53.432C180.287 53.08 180.175 52.84 179.951 52.712C179.759 52.584 179.503 52.52 179.183 52.52C178.671 52.52 178.127 52.712 177.551 53.096C176.975 53.448 176.511 53.8 176.159 54.152C175.775 54.504 175.311 55.064 174.767 55.832C174.255 56.568 173.727 57.384 173.183 58.28C172.671 59.176 172.239 60.04 171.887 60.872C171.535 61.704 171.359 62.376 171.359 62.888C171.359 63.272 171.503 63.464 171.791 63.464ZM183.342 65.72C183.214 65.72 183.214 65.576 183.342 65.288C183.502 65 183.646 64.68 183.774 64.328C183.934 63.976 184.094 63.592 184.254 63.176C184.574 62.408 184.926 61.544 185.31 60.584C185.694 59.624 186.062 58.696 186.414 57.8C186.766 56.872 187.07 56.088 187.326 55.448C187.614 54.776 187.806 54.344 187.902 54.152C187.454 54.632 186.91 55.24 186.27 55.976C185.662 56.68 185.086 57.368 184.542 58.04C183.998 58.712 183.582 59.24 183.294 59.624C183.198 59.752 183.118 59.816 183.054 59.816C182.99 59.816 182.958 59.736 182.958 59.576C182.958 59.32 183.038 59.08 183.198 58.856C183.806 58.088 184.478 57.224 185.214 56.264C185.982 55.304 186.67 54.424 187.278 53.624C187.886 52.792 188.27 52.248 188.43 51.992C188.782 51.928 189.294 51.832 189.966 51.704C190.67 51.576 191.15 51.4 191.406 51.176C191.502 51.08 191.598 51.032 191.694 51.032C191.758 51.032 191.79 51.096 191.79 51.224C191.822 51.32 191.79 51.432 191.694 51.56C191.502 51.784 191.166 52.312 190.686 53.144C190.238 53.944 189.742 54.84 189.198 55.832C188.686 56.824 188.206 57.72 187.758 58.52C188.142 58.008 188.558 57.512 189.006 57.032C189.454 56.552 189.886 56.088 190.302 55.64C190.686 55.256 191.214 54.776 191.886 54.2C192.558 53.624 193.262 53.096 193.998 52.616C194.734 52.136 195.374 51.864 195.918 51.8C196.046 51.768 196.158 51.752 196.254 51.752C196.382 51.752 196.478 51.752 196.542 51.752C197.246 51.752 197.598 52.008 197.598 52.52C197.598 52.904 197.39 53.416 196.974 54.056C196.75 54.408 196.398 55 195.918 55.832C195.47 56.632 195.006 57.512 194.526 58.472C194.078 59.4 193.678 60.28 193.326 61.112C193.006 61.912 192.846 62.504 192.846 62.888C192.846 63.336 193.07 63.56 193.518 63.56C194.062 63.56 194.654 63.288 195.294 62.744C195.966 62.2 196.686 61.512 197.454 60.68C198.222 59.816 198.99 58.904 199.758 57.944C199.822 58.008 199.854 58.12 199.854 58.28C199.854 58.504 199.774 58.728 199.614 58.952C199.486 59.144 199.358 59.32 199.23 59.48C198.91 59.896 198.478 60.424 197.934 61.064C197.422 61.672 196.894 62.28 196.35 62.888C195.806 63.464 195.31 63.928 194.862 64.28C194.542 64.504 194.126 64.744 193.614 65C193.102 65.256 192.59 65.384 192.078 65.384C191.502 65.384 191.102 65.24 190.878 64.952C190.654 64.632 190.542 64.248 190.542 63.8C190.542 63.288 190.638 62.744 190.83 62.168C191.022 61.592 191.23 61.048 191.454 60.536C191.71 59.992 191.902 59.592 192.03 59.336C192.606 58.216 193.134 57.16 193.614 56.168C194.094 55.176 194.43 54.472 194.622 54.056C194.718 53.864 194.766 53.704 194.766 53.576C194.766 53.352 194.59 53.336 194.238 53.528C193.886 53.72 193.454 54.008 192.942 54.392C192.462 54.776 192.014 55.16 191.598 55.544C191.182 55.896 190.91 56.136 190.782 56.264C189.598 57.512 188.558 58.904 187.662 60.44C186.798 61.944 186.062 63.496 185.454 65.096C185.038 65.128 184.622 65.24 184.206 65.432C183.79 65.624 183.502 65.72 183.342 65.72ZM201.778 65.768C201.202 65.768 200.594 65.688 199.954 65.528C199.314 65.368 198.738 65.112 198.226 64.76C197.746 64.376 197.426 63.864 197.266 63.224C197.234 63.128 197.218 62.984 197.218 62.792C197.218 62.344 197.314 61.848 197.506 61.304C197.73 60.76 198.002 60.376 198.322 60.152C198.45 60.088 198.546 60.088 198.61 60.152C198.706 60.216 198.722 60.28 198.658 60.344C198.626 60.44 198.578 60.568 198.514 60.728C198.45 60.856 198.402 61 198.37 61.16C198.274 61.992 198.45 62.728 198.898 63.368C199.09 63.624 199.314 63.864 199.57 64.088C199.858 64.312 200.13 64.504 200.386 64.664C200.61 64.792 200.882 64.888 201.202 64.952C201.522 64.984 201.842 65 202.162 65C202.674 65 203.17 64.936 203.65 64.808C204.13 64.68 204.482 64.472 204.706 64.184C205.122 63.672 205.33 63.096 205.33 62.456C205.33 61.976 205.202 61.464 204.946 60.92C204.69 60.376 204.29 59.8 203.746 59.192C203.394 58.808 203.058 58.392 202.738 57.944C202.418 57.496 202.21 57.016 202.114 56.504C202.082 56.408 202.05 56.312 202.018 56.216C202.018 56.12 202.018 56.024 202.018 55.928C201.602 56.536 201.17 57.112 200.722 57.656C200.306 58.168 199.938 58.616 199.618 59C199.49 59.192 199.378 59.288 199.282 59.288C199.218 59.288 199.186 59.224 199.186 59.096C199.186 58.808 199.314 58.504 199.57 58.184C199.826 57.896 200.114 57.544 200.434 57.128C200.754 56.68 201.01 56.328 201.202 56.072C201.746 55.272 202.146 54.648 202.402 54.2C202.69 53.72 202.994 53.288 203.314 52.904C203.666 52.488 204.098 52.152 204.61 51.896C205.154 51.64 205.714 51.512 206.29 51.512C206.962 51.512 207.57 51.624 208.114 51.848C208.69 52.04 208.994 52.552 209.026 53.384C209.026 53.768 208.946 54.168 208.786 54.584C208.658 54.968 208.514 55.336 208.354 55.688C208.258 55.88 208.114 56.024 207.922 56.12C207.762 56.184 207.682 56.152 207.682 56.024C207.682 55.896 207.698 55.752 207.73 55.592C207.762 55.432 207.778 55.288 207.778 55.16C207.778 54.616 207.682 54.136 207.49 53.72C207.33 53.272 207.09 52.952 206.77 52.76C206.45 52.536 206.114 52.424 205.762 52.424C205.25 52.424 204.754 52.632 204.274 53.048C203.794 53.432 203.554 53.944 203.554 54.584C203.554 54.648 203.554 54.728 203.554 54.824C203.554 54.92 203.57 55 203.602 55.064C203.73 55.576 204.114 56.152 204.754 56.792C205.394 57.432 205.89 57.992 206.242 58.472C206.85 59.304 207.154 60.152 207.154 61.016C207.154 61.88 206.898 62.68 206.386 63.416C205.906 64.12 205.25 64.68 204.418 65.096C203.618 65.544 202.738 65.768 201.778 65.768Z" fill="black"/>
<path fill-rule="evenodd" clip-rule="evenodd" d="M156.812 24.3067C156.672 24.2407 156.525 24.1885 156.373 24.1508C156.218 24.1376 156.062 24.1376 155.906 24.1508C154.233 23.9114 154.143 24.08 154.037 24.3067C153.931 24.5334 153.961 24.8875 155.409 25.5931C155.554 25.6667 155.705 25.7281 155.863 25.7772C156.029 25.7971 156.195 25.7971 156.36 25.7772C156.526 25.7772 158.063 25.7772 158.169 25.3239C158.199 25.2955 158.35 24.9853 156.812 24.3067ZM159.827 18.8226C159.827 18.8226 161.019 19.2618 161.335 19.0068C161.653 18.7518 161.169 17.5944 161.154 17.5944C161.11 17.5081 161.049 17.431 160.973 17.3677C160.886 17.3098 160.789 17.2667 160.687 17.2402C159.496 16.7174 159.3 16.9002 159.179 17.056C159.058 17.2119 158.891 17.3677 159.466 18.4699C159.5 18.5376 159.546 18.5998 159.602 18.6541C159.658 18.7305 159.737 18.7897 159.828 18.8241M171.137 15.8263C171.545 15.8263 172.012 14.8091 172.057 14.6958C172.074 14.602 172.074 14.5062 172.057 14.4125C172.072 14.3133 172.072 14.2146 172.057 14.1164C171.619 13 171.377 13 171.137 13C170.895 13 170.653 13 170.261 14.2014C170.247 14.2953 170.247 14.3907 170.261 14.4847C170.247 14.5787 170.247 14.6741 170.261 14.768C170.715 15.9963 171.121 15.8263 171.137 15.8263ZM180.138 17.8196C180.251 17.7706 180.353 17.7035 180.441 17.6213C180.528 17.5391 180.609 17.4494 180.682 17.3521C181.541 16.223 181.405 16.0672 181.255 15.9397C181.104 15.8122 180.862 15.543 179.535 16.138L179.188 16.3363C179.09 16.4199 179.004 16.5151 178.932 16.6197C178.932 16.6197 178.193 17.8054 178.494 18.0321C178.796 18.2588 180.034 17.8763 180.138 17.8196ZM186.382 23.5728C186.146 23.5437 185.906 23.573 185.687 23.6578C184.18 24.2373 184.437 24.59 184.437 24.6042C184.437 25.015 185.628 25.297 185.943 25.3395C186.08 25.3612 186.216 25.3612 186.352 25.3395C186.484 25.3244 186.612 25.2859 186.729 25.2261C188.055 24.6453 188.04 24.3492 187.979 24.1098C187.919 23.8703 187.677 23.672 186.382 23.5728ZM171.771 30.4977C171.031 28.8869 170.534 29.3246 170.112 30.4977V31.5304C170.109 32.1868 170.144 32.8414 170.218 33.494C170.308 34.4843 170.475 35.4448 170.535 36.4351C170.528 36.5076 170.537 36.5807 170.562 36.6497C170.587 36.7187 170.627 36.782 170.679 36.8358C170.732 36.8895 170.795 36.9325 170.866 36.9618C170.937 36.9912 171.014 37.0064 171.092 37.0064C171.17 37.0064 171.246 36.9912 171.318 36.9618C171.389 36.9325 171.452 36.8895 171.505 36.8358C171.557 36.782 171.597 36.7187 171.622 36.6497C171.647 36.5807 171.656 36.5076 171.649 36.4351C171.823 35.4556 171.944 34.4706 172.012 33.4798V32.2218C171.998 31.8063 171.963 31.3916 171.906 30.9793L171.771 30.4977Z" fill="black"/>
<path fill-rule="evenodd" clip-rule="evenodd" d="M181.843 24.8578C181.424 22.7787 180.377 20.8561 178.826 19.3185C177.272 17.7213 175.211 16.6358 172.947 16.223C170.419 15.934 167.86 16.4302 165.662 17.6354C163.423 18.7277 161.596 20.4403 160.432 22.5401C159.661 24.1653 159.31 25.9377 159.405 27.7138C159.48 29.4745 159.996 31.1938 160.914 32.7318C161.758 34.1443 162.768 35.092 163.492 36.2792C163.938 36.9865 164.23 37.7693 164.352 38.5828H164.201C164.069 38.5828 163.942 38.632 163.849 38.7195C163.755 38.807 163.703 38.9258 163.703 39.0496C163.703 39.1734 163.755 39.2921 163.849 39.3797C163.942 39.4672 164.069 39.5164 164.201 39.5164H169.825L173.534 39.6439C174.199 39.6665 174.857 39.7374 175.509 39.8564C175.826 39.8847 176.135 39.9768 176.416 40.1241C176.611 40.2233 176.747 40.3083 176.791 40.4217C176.836 40.5336 176.791 40.5336 176.67 40.6044C176.569 40.7261 176.453 40.8356 176.324 40.9302C175.488 41.5121 174.507 41.882 173.475 42.0041C171.782 42.2251 170.06 42.1954 168.377 41.9191C167.821 41.8199 167.284 41.6483 166.779 41.4091C166.256 41.1705 165.752 40.8968 165.271 40.5902C165.213 40.5465 165.147 40.5143 165.075 40.4956C165.004 40.4768 164.929 40.472 164.856 40.4812C164.782 40.4905 164.712 40.5138 164.648 40.5496C164.585 40.5854 164.53 40.633 164.487 40.6894C164.401 40.8012 164.364 40.9396 164.383 41.0761C164.403 41.2126 164.478 41.3368 164.592 41.4233C165.219 41.9021 165.888 42.3214 166.598 42.6813C166.704 42.6813 166.84 42.7521 166.961 42.8088C166.878 42.8594 166.814 42.9332 166.779 43.0198C166.744 43.1063 166.739 43.201 166.764 43.2905C166.956 44.1773 167.405 44.999 168.061 45.6649C168.771 46.3505 169.695 46.8096 170.7 46.9781C171.827 47.0857 172.957 46.7936 173.866 46.1593C174.309 45.8433 174.651 45.4186 174.853 44.9321C175.055 44.4456 175.11 43.9162 175.012 43.4024C175.905 43.2234 176.752 42.8775 177.499 42.3852C177.826 42.1812 178.103 41.9144 178.311 41.6025C178.519 41.2906 178.654 40.9407 178.707 40.5761C178.715 40.1664 178.594 39.7636 178.357 39.4188C178.121 39.074 177.781 38.8027 177.38 38.6394C177.161 38.5517 176.933 38.4852 176.7 38.4411V38.3136C176.753 37.6018 177.015 36.9175 177.456 36.3359C178.148 35.3456 179.114 34.4843 179.822 33.5082C180.664 32.2557 181.262 30.8726 181.586 29.4238C181.998 27.9338 182.085 26.3815 181.843 24.8592M173.263 44.6477C172.941 44.8719 172.571 45.0267 172.178 45.101C171.774 45.1718 171.36 45.1718 170.957 45.101C170.285 45.0638 169.639 44.8421 169.101 44.4635C168.543 44.0713 168.088 43.5637 167.774 42.9802C167.896 43.0359 168.022 43.0832 168.152 43.1219C169.974 43.5441 171.857 43.6914 173.73 43.5596H173.821C173.809 43.7668 173.754 43.9697 173.658 44.1565C173.562 44.3433 173.429 44.5103 173.263 44.6477ZM167.97 26.9658C168.182 26.4558 168.393 25.96 168.649 25.467C168.77 25.212 168.936 24.9711 169.072 24.7303C169.359 24.8842 169.66 25.0117 169.976 25.1128C170.204 25.1695 170.435 25.1978 170.67 25.1978C170.909 25.2016 171.146 25.178 171.378 25.127C171.806 25.0164 172.213 24.8436 172.584 24.6184C173.023 25.4103 173.429 26.2008 173.851 26.9927C173.203 26.9077 172.569 26.8227 171.921 26.7661H169.825C169.146 26.8086 168.543 26.895 167.97 26.9658ZM169.794 23.4864C170.082 22.9906 170.354 22.4961 170.639 22.0725L170.836 21.4789C170.972 21.7906 171.093 22.1023 171.153 22.2142C171.424 22.6251 171.649 23.0487 171.906 23.4581H171.167C170.88 23.4439 170.593 23.4439 170.307 23.4581C170.12 23.4514 169.934 23.4609 169.749 23.4864H169.794ZM173.7 38.0728L169.946 38.2428L168.437 38.3278V33.3523C168.437 32.7856 168.437 32.236 168.331 31.6707C168.211 30.4679 168.044 29.2949 167.925 28.1077C169.756 28.6158 171.699 28.6501 173.549 28.2069C173.354 29.4093 173.248 30.6231 173.233 31.8393C173.233 32.6312 173.324 33.4231 173.399 34.1995C173.52 35.3725 173.732 36.5328 173.792 37.7058C173.786 37.7736 173.796 37.8418 173.822 37.9053C173.848 37.9688 173.889 38.026 173.942 38.0728H173.7ZM180.214 29.0413C179.954 30.3507 179.443 31.6053 178.707 32.7446C177.921 33.9601 176.747 34.9914 176.098 36.2495C175.799 36.8289 175.63 37.4579 175.6 38.1011C175.319 38.0864 175.037 38.0864 174.756 38.1011C174.856 38.0116 174.915 37.8901 174.923 37.7611C175.119 36.4322 175.22 35.0906 175.223 33.7476C175.223 32.9556 175.223 32.1651 175.072 31.3732C174.824 28.8436 174.401 26.3317 173.806 23.8533C173.462 23.0459 173.09 22.2493 172.69 21.4648C172.406 20.8615 172.062 20.2843 171.664 19.7407C171.444 19.4731 171.146 19.2713 170.806 19.1598C170.565 19.1304 170.322 19.1719 170.108 19.2785C169.894 19.3852 169.721 19.5517 169.613 19.7548C169.386 20.1657 168.876 21.2537 168.86 21.2806C168.331 22.4961 167.759 23.7258 167.352 24.998C166.492 27.3455 166.778 26.2986 166.598 31.7274V33.4515C166.598 34.0309 166.673 34.582 166.734 35.1473C166.87 36.2495 167.051 37.3375 167.218 38.4255L165.437 38.5389C165.326 37.579 165.019 36.6483 164.532 35.7975C163.853 34.582 162.889 33.5351 162.105 32.151C161.345 30.769 160.942 29.2389 160.929 27.6841C160.905 26.1505 161.271 24.6337 161.999 23.2597C162.998 21.4829 164.556 20.0375 166.462 19.1201C168.289 18.14 170.404 17.7385 172.494 17.9754C174.396 18.2955 176.14 19.177 177.471 20.4915C178.85 21.7655 179.821 23.3762 180.274 25.1411C180.516 26.4331 180.496 27.7578 180.214 29.0427" fill="black"/>
<defs>
<filter id="filter0_f_4_12" x="0" y="0" width="221" height="91" filterUnits="userSpaceOnUse" color-interpolation-filters="sRGB">
<feFlood flood-opacity="0" result="BackgroundImageFix"/>
<feBlend mode="normal" in="SourceGraphic" in2="BackgroundImageFix" result="shape"/>
<feGaussianBlur stdDeviation="2" result="effect1_foregroundBlur_4_12"/>
</filter>
</defs>
</svg>
