<svg width="350" height="137" viewBox="0 0 350 137" fill="none" xmlns="http://www.w3.org/2000/svg">
<path d="M10.608 78.632C9.488 78.632 8.304 78.456 7.056 78.104C5.84 77.784 4.752 77.24 3.792 76.472C2.864 75.704 2.24 74.68 1.92 73.4C1.888 73.24 1.856 73.064 1.824 72.872C1.824 72.68 1.824 72.488 1.824 72.296C1.824 71.304 2.048 70.344 2.496 69.416C2.944 68.488 3.488 67.784 4.128 67.304H4.176C4.24 67.304 4.32 67.384 4.416 67.544C4.544 67.672 4.544 67.768 4.416 67.832C4.096 68.152 3.856 68.52 3.696 68.936C3.568 69.32 3.504 69.736 3.504 70.184C3.504 70.792 3.6 71.416 3.792 72.056C4.016 72.664 4.288 73.192 4.608 73.64C5.408 74.76 6.512 75.656 7.92 76.328C9.36 76.968 10.768 77.288 12.144 77.288C14.032 77.288 15.488 76.728 16.512 75.608C17.568 74.488 18.096 73.112 18.096 71.48C18.096 70.488 17.904 69.496 17.52 68.504C17.008 67.128 16.32 65.784 15.456 64.472C14.624 63.128 13.856 61.816 13.152 60.536C12.544 59.384 12.24 58.216 12.24 57.032C12.24 55.784 12.624 54.584 13.392 53.432C14.16 52.408 15.168 51.592 16.416 50.984C17.696 50.344 18.992 50.024 20.304 50.024C21.2 50.024 22.064 50.184 22.896 50.504C23.728 50.824 24.48 51.352 25.152 52.088C25.344 52.376 25.44 52.744 25.44 53.192C25.44 53.832 25.312 54.328 25.056 54.68C24.768 55.096 24.448 55.64 24.096 56.312C23.744 56.984 23.536 57.448 23.472 57.704C23.408 57.736 23.248 57.8 22.992 57.896C22.768 57.96 22.624 57.944 22.56 57.848C22.688 57.592 22.864 57.128 23.088 56.456C23.312 55.784 23.424 55.176 23.424 54.632C23.424 54.28 23.408 53.896 23.376 53.48C23.376 53.032 23.168 52.648 22.752 52.328C22.368 51.976 21.872 51.672 21.264 51.416C20.656 51.16 19.92 51.032 19.056 51.032C17.296 51.032 15.952 51.544 15.024 52.568C14.096 53.592 13.632 54.712 13.632 55.928C13.632 56.536 13.76 57.144 14.016 57.752C14.496 58.904 15.168 59.992 16.032 61.016C16.896 62.04 17.744 63.096 18.576 64.184C19.44 65.24 20.112 66.392 20.592 67.64C20.912 68.472 21.072 69.32 21.072 70.184C21.072 71.432 20.752 72.568 20.112 73.592C19.504 74.616 18.672 75.512 17.616 76.28C16.592 77.016 15.472 77.592 14.256 78.008C13.04 78.424 11.824 78.632 10.608 78.632ZM33.2723 58.664C32.8243 58.664 32.5043 58.52 32.3123 58.232C32.1843 58.072 32.1203 57.864 32.1203 57.608C32.1203 57.096 32.3603 56.68 32.8403 56.36C33.1923 56.168 33.5123 56.072 33.8003 56.072C34.2803 56.072 34.6163 56.216 34.8083 56.504C34.9363 56.664 35.0003 56.872 35.0003 57.128C35.0003 57.64 34.7443 58.056 34.2323 58.376C33.9443 58.568 33.6243 58.664 33.2723 58.664ZM24.9203 77.144C24.6003 77.144 24.3283 77.08 24.1043 76.952C23.9123 76.824 23.8163 76.584 23.8163 76.232C23.8163 75.784 23.9283 75.256 24.1523 74.648C24.4083 74.04 24.6803 73.432 24.9683 72.824C25.2883 72.216 25.5283 71.72 25.6883 71.336C25.9123 70.888 26.1843 70.312 26.5043 69.608C26.8563 68.872 27.1763 68.184 27.4643 67.544C27.7843 66.872 28.0083 66.408 28.1363 66.152C27.6883 66.632 27.1443 67.24 26.5043 67.976C25.8963 68.68 25.3203 69.368 24.7763 70.04C24.2323 70.712 23.8163 71.24 23.5283 71.624C23.4323 71.752 23.3523 71.816 23.2883 71.816C23.2243 71.816 23.1923 71.736 23.1923 71.576C23.1923 71.32 23.2723 71.08 23.4323 70.856C24.0403 70.088 24.7123 69.224 25.4483 68.264C26.2163 67.304 26.9043 66.424 27.5123 65.624C28.1203 64.792 28.5043 64.248 28.6643 63.992C29.0163 63.928 29.5283 63.832 30.2003 63.704C30.9043 63.576 31.3843 63.4 31.6403 63.176C31.7363 63.08 31.8323 63.032 31.9283 63.032C31.9923 63.032 32.0243 63.096 32.0243 63.224C32.0563 63.32 32.0243 63.432 31.9283 63.56C31.7363 63.784 31.4003 64.328 30.9203 65.192C30.4403 66.056 29.9283 67.016 29.3843 68.072C28.8723 69.096 28.3923 70.024 27.9443 70.856C27.4963 71.72 27.1123 72.552 26.7923 73.352C26.4723 74.152 26.3123 74.728 26.3123 75.08C26.3123 75.528 26.5363 75.752 26.9843 75.752C27.4003 75.752 27.9283 75.496 28.5683 74.984C29.2403 74.472 29.9123 73.864 30.5843 73.16C31.2563 72.424 31.8483 71.752 32.3603 71.144C32.5203 70.952 32.7123 70.728 32.9363 70.472C33.1923 70.184 33.3523 70.008 33.4163 69.944C33.4803 70.008 33.5123 70.12 33.5123 70.28C33.4803 70.504 33.4003 70.728 33.2723 70.952C33.1443 71.144 33.0163 71.32 32.8883 71.48C32.2163 72.312 31.4803 73.176 30.6803 74.072C29.8803 74.936 29.0003 75.672 28.0403 76.28C27.0803 76.856 26.0403 77.144 24.9203 77.144ZM32.8106 77.72C32.6826 77.72 32.6826 77.576 32.8106 77.288C32.9706 77 33.1146 76.68 33.2426 76.328C33.4026 75.976 33.5626 75.592 33.7226 75.176C34.0426 74.408 34.3946 73.544 34.7786 72.584C35.1626 71.624 35.5306 70.696 35.8826 69.8C36.2346 68.872 36.5386 68.088 36.7946 67.448C37.0826 66.776 37.2746 66.344 37.3706 66.152C36.9226 66.632 36.3786 67.24 35.7386 67.976C35.1306 68.68 34.5546 69.368 34.0106 70.04C33.4666 70.712 33.0506 71.24 32.7626 71.624C32.6666 71.752 32.5866 71.816 32.5226 71.816C32.4586 71.816 32.4266 71.736 32.4266 71.576C32.4266 71.32 32.5066 71.08 32.6666 70.856C33.2746 70.088 33.9466 69.224 34.6826 68.264C35.4506 67.304 36.1386 66.424 36.7466 65.624C37.3546 64.792 37.7386 64.248 37.8986 63.992C38.2506 63.928 38.7626 63.832 39.4346 63.704C40.1386 63.576 40.6186 63.4 40.8746 63.176C40.9706 63.08 41.0666 63.032 41.1626 63.032C41.2266 63.032 41.2586 63.096 41.2586 63.224C41.2906 63.32 41.2586 63.432 41.1626 63.56C40.9706 63.784 40.6346 64.312 40.1546 65.144C39.7066 65.944 39.2106 66.84 38.6666 67.832C38.1546 68.824 37.6746 69.72 37.2266 70.52C37.7386 69.912 38.2346 69.336 38.7146 68.792C39.2266 68.248 39.5786 67.864 39.7706 67.64C40.1546 67.256 40.6826 66.776 41.3546 66.2C42.0266 65.624 42.7306 65.096 43.4666 64.616C44.2026 64.136 44.8426 63.864 45.3866 63.8C45.5146 63.768 45.6266 63.752 45.7226 63.752C45.8186 63.752 45.9146 63.752 46.0106 63.752C46.6186 63.752 46.9226 63.976 46.9226 64.424C46.9226 64.616 46.8746 64.84 46.7786 65.096C46.6826 65.352 46.5546 65.608 46.3946 65.864C46.2026 66.248 45.8826 66.856 45.4346 67.688C44.9866 68.488 44.5866 69.224 44.2346 69.896L46.4906 67.64C46.8746 67.256 47.4026 66.776 48.0746 66.2C48.7466 65.624 49.4506 65.096 50.1866 64.616C50.9226 64.136 51.5626 63.864 52.1066 63.8C52.2346 63.768 52.3466 63.752 52.4426 63.752C52.5706 63.752 52.6666 63.752 52.7306 63.752C53.4346 63.752 53.7866 64.008 53.7866 64.52C53.7866 64.904 53.5786 65.416 53.1626 66.056C52.9386 66.408 52.5866 67 52.1066 67.832C51.6266 68.664 51.1306 69.576 50.6186 70.568C50.1386 71.528 49.7226 72.424 49.3706 73.256C49.0186 74.088 48.8426 74.696 48.8426 75.08C48.8426 75.528 49.0666 75.752 49.5146 75.752C49.9306 75.752 50.4586 75.512 51.0986 75.032C51.7706 74.52 52.4426 73.912 53.1146 73.208C53.8186 72.504 54.4266 71.832 54.9386 71.192C55.1626 70.936 55.3706 70.68 55.5626 70.424C55.7866 70.136 55.9146 69.976 55.9466 69.944C56.0106 70.008 56.0426 70.12 56.0426 70.28C56.0426 70.504 55.9626 70.728 55.8026 70.952C55.6746 71.144 55.5466 71.32 55.4186 71.48C54.8106 72.28 54.1066 73.112 53.3066 73.976C52.5386 74.84 51.6906 75.576 50.7626 76.184C49.8346 76.76 48.8426 77.096 47.7866 77.192C47.4666 77.224 47.1466 77.16 46.8266 77C46.5066 76.84 46.3466 76.584 46.3466 76.232C46.3466 75.784 46.4586 75.256 46.6826 74.648C46.9386 74.04 47.2106 73.432 47.4986 72.824C47.8186 72.216 48.0586 71.72 48.2186 71.336C48.7946 70.216 49.3226 69.16 49.8026 68.168C50.2826 67.176 50.6186 66.472 50.8106 66.056C50.9066 65.864 50.9546 65.704 50.9546 65.576C50.9546 65.352 50.7786 65.336 50.4266 65.528C50.0746 65.72 49.6426 66.008 49.1306 66.392C48.6506 66.776 48.2026 67.16 47.7866 67.544C47.3706 67.896 47.0986 68.136 46.9706 68.264C46.4266 68.808 45.7706 69.544 45.0026 70.472C44.2666 71.4 43.5786 72.376 42.9386 73.4C42.2986 74.392 41.8506 75.32 41.5946 76.184C41.2746 76.472 40.9706 76.616 40.6826 76.616C40.4586 76.616 40.2666 76.536 40.1066 76.376C39.9786 76.216 39.9146 76.024 39.9146 75.8C39.9146 75.16 40.1066 74.408 40.4906 73.544C40.9066 72.648 41.2426 71.912 41.4986 71.336C42.0746 70.216 42.6026 69.16 43.0826 68.168C43.5626 67.176 43.8986 66.472 44.0906 66.056C44.1866 65.864 44.2346 65.704 44.2346 65.576C44.2346 65.352 44.0586 65.336 43.7066 65.528C43.3546 65.72 42.9226 66.008 42.4106 66.392C41.9306 66.776 41.4826 67.16 41.0666 67.544C40.6506 67.896 40.3786 68.136 40.2506 68.264C39.4826 69.064 38.7626 69.88 38.0906 70.712C37.4506 71.544 36.9066 72.44 36.4586 73.4C36.2026 73.976 35.9306 74.616 35.6426 75.32C35.3546 76.024 35.1146 76.616 34.9226 77.096C34.5066 77.128 34.0906 77.24 33.6746 77.432C33.2586 77.624 32.9706 77.72 32.8106 77.72ZM55.3575 77.72C55.2295 77.72 55.2295 77.576 55.3575 77.288C55.5175 77 55.6615 76.68 55.7895 76.328C55.9495 75.976 56.1095 75.592 56.2695 75.176C56.5895 74.408 56.9415 73.544 57.3255 72.584C57.7095 71.624 58.0775 70.696 58.4295 69.8C58.7815 68.872 59.0855 68.088 59.3415 67.448C59.6295 66.776 59.8215 66.344 59.9175 66.152C59.4695 66.632 58.9255 67.24 58.2855 67.976C57.6775 68.68 57.1015 69.368 56.5575 70.04C56.0135 70.712 55.5975 71.24 55.3095 71.624C55.2135 71.752 55.1335 71.816 55.0695 71.816C55.0055 71.816 54.9735 71.736 54.9735 71.576C54.9735 71.32 55.0535 71.08 55.2135 70.856C55.8215 70.088 56.4935 69.224 57.2295 68.264C57.9975 67.304 58.6855 66.424 59.2935 65.624C59.9015 64.792 60.2855 64.248 60.4455 63.992C60.7975 63.928 61.3095 63.832 61.9815 63.704C62.6855 63.576 63.1655 63.4 63.4215 63.176C63.5175 63.08 63.6135 63.032 63.7095 63.032C63.7735 63.032 63.8055 63.096 63.8055 63.224C63.8375 63.32 63.8055 63.432 63.7095 63.56C63.5175 63.784 63.1815 64.312 62.7015 65.144C62.2535 65.944 61.7575 66.84 61.2135 67.832C60.7015 68.824 60.2215 69.72 59.7735 70.52C60.2855 69.912 60.7815 69.336 61.2615 68.792C61.7735 68.248 62.1255 67.864 62.3175 67.64C62.7015 67.256 63.2295 66.776 63.9015 66.2C64.5735 65.624 65.2775 65.096 66.0135 64.616C66.7495 64.136 67.3895 63.864 67.9335 63.8C68.0615 63.768 68.1735 63.752 68.2695 63.752C68.3655 63.752 68.4615 63.752 68.5575 63.752C69.1655 63.752 69.4695 63.976 69.4695 64.424C69.4695 64.616 69.4215 64.84 69.3255 65.096C69.2295 65.352 69.1015 65.608 68.9415 65.864C68.7495 66.248 68.4295 66.856 67.9815 67.688C67.5335 68.488 67.1335 69.224 66.7815 69.896L69.0375 67.64C69.4215 67.256 69.9495 66.776 70.6215 66.2C71.2935 65.624 71.9975 65.096 72.7335 64.616C73.4695 64.136 74.1095 63.864 74.6535 63.8C74.7815 63.768 74.8935 63.752 74.9895 63.752C75.1175 63.752 75.2135 63.752 75.2775 63.752C75.9815 63.752 76.3335 64.008 76.3335 64.52C76.3335 64.904 76.1255 65.416 75.7095 66.056C75.4855 66.408 75.1335 67 74.6535 67.832C74.1735 68.664 73.6775 69.576 73.1655 70.568C72.6855 71.528 72.2695 72.424 71.9175 73.256C71.5655 74.088 71.3895 74.696 71.3895 75.08C71.3895 75.528 71.6135 75.752 72.0615 75.752C72.4775 75.752 73.0055 75.512 73.6455 75.032C74.3175 74.52 74.9895 73.912 75.6615 73.208C76.3655 72.504 76.9735 71.832 77.4855 71.192C77.7095 70.936 77.9175 70.68 78.1095 70.424C78.3335 70.136 78.4615 69.976 78.4935 69.944C78.5575 70.008 78.5895 70.12 78.5895 70.28C78.5895 70.504 78.5095 70.728 78.3495 70.952C78.2215 71.144 78.0935 71.32 77.9655 71.48C77.3575 72.28 76.6535 73.112 75.8535 73.976C75.0855 74.84 74.2375 75.576 73.3095 76.184C72.3815 76.76 71.3895 77.096 70.3335 77.192C70.0135 77.224 69.6935 77.16 69.3735 77C69.0535 76.84 68.8935 76.584 68.8935 76.232C68.8935 75.784 69.0055 75.256 69.2295 74.648C69.4855 74.04 69.7575 73.432 70.0455 72.824C70.3655 72.216 70.6055 71.72 70.7655 71.336C71.3415 70.216 71.8695 69.16 72.3495 68.168C72.8295 67.176 73.1655 66.472 73.3575 66.056C73.4535 65.864 73.5015 65.704 73.5015 65.576C73.5015 65.352 73.3255 65.336 72.9735 65.528C72.6215 65.72 72.1895 66.008 71.6775 66.392C71.1975 66.776 70.7495 67.16 70.3335 67.544C69.9175 67.896 69.6455 68.136 69.5175 68.264C68.9735 68.808 68.3175 69.544 67.5495 70.472C66.8135 71.4 66.1255 72.376 65.4855 73.4C64.8455 74.392 64.3975 75.32 64.1415 76.184C63.8215 76.472 63.5175 76.616 63.2295 76.616C63.0055 76.616 62.8135 76.536 62.6535 76.376C62.5255 76.216 62.4615 76.024 62.4615 75.8C62.4615 75.16 62.6535 74.408 63.0375 73.544C63.4535 72.648 63.7895 71.912 64.0455 71.336C64.6215 70.216 65.1495 69.16 65.6295 68.168C66.1095 67.176 66.4455 66.472 66.6375 66.056C66.7335 65.864 66.7815 65.704 66.7815 65.576C66.7815 65.352 66.6055 65.336 66.2535 65.528C65.9015 65.72 65.4695 66.008 64.9575 66.392C64.4775 66.776 64.0295 67.16 63.6135 67.544C63.1975 67.896 62.9255 68.136 62.7975 68.264C62.0295 69.064 61.3095 69.88 60.6375 70.712C59.9975 71.544 59.4535 72.44 59.0055 73.4C58.7495 73.976 58.4775 74.616 58.1895 75.32C57.9015 76.024 57.6615 76.616 57.4695 77.096C57.0535 77.128 56.6375 77.24 56.2215 77.432C55.8055 77.624 55.5175 77.72 55.3575 77.72ZM87.6004 58.664C87.1524 58.664 86.8324 58.52 86.6404 58.232C86.5124 58.072 86.4484 57.864 86.4484 57.608C86.4484 57.096 86.6884 56.68 87.1684 56.36C87.5204 56.168 87.8404 56.072 88.1284 56.072C88.6084 56.072 88.9444 56.216 89.1364 56.504C89.2644 56.664 89.3284 56.872 89.3284 57.128C89.3284 57.64 89.0724 58.056 88.5604 58.376C88.2724 58.568 87.9524 58.664 87.6004 58.664ZM79.2484 77.144C78.9284 77.144 78.6564 77.08 78.4324 76.952C78.2404 76.824 78.1444 76.584 78.1444 76.232C78.1444 75.784 78.2564 75.256 78.4804 74.648C78.7364 74.04 79.0084 73.432 79.2964 72.824C79.6164 72.216 79.8564 71.72 80.0164 71.336C80.2404 70.888 80.5124 70.312 80.8324 69.608C81.1844 68.872 81.5044 68.184 81.7924 67.544C82.1124 66.872 82.3364 66.408 82.4644 66.152C82.0164 66.632 81.4724 67.24 80.8324 67.976C80.2244 68.68 79.6484 69.368 79.1044 70.04C78.5604 70.712 78.1444 71.24 77.8564 71.624C77.7604 71.752 77.6804 71.816 77.6164 71.816C77.5524 71.816 77.5204 71.736 77.5204 71.576C77.5204 71.32 77.6004 71.08 77.7604 70.856C78.3684 70.088 79.0404 69.224 79.7764 68.264C80.5444 67.304 81.2324 66.424 81.8404 65.624C82.4484 64.792 82.8324 64.248 82.9924 63.992C83.3444 63.928 83.8564 63.832 84.5284 63.704C85.2324 63.576 85.7124 63.4 85.9684 63.176C86.0644 63.08 86.1604 63.032 86.2564 63.032C86.3204 63.032 86.3524 63.096 86.3524 63.224C86.3844 63.32 86.3524 63.432 86.2564 63.56C86.0644 63.784 85.7284 64.328 85.2484 65.192C84.7684 66.056 84.2564 67.016 83.7124 68.072C83.2004 69.096 82.7204 70.024 82.2724 70.856C81.8244 71.72 81.4404 72.552 81.1204 73.352C80.8004 74.152 80.6404 74.728 80.6404 75.08C80.6404 75.528 80.8644 75.752 81.3124 75.752C81.7284 75.752 82.2564 75.496 82.8964 74.984C83.5684 74.472 84.2404 73.864 84.9124 73.16C85.5844 72.424 86.1764 71.752 86.6884 71.144C86.8484 70.952 87.0404 70.728 87.2644 70.472C87.5204 70.184 87.6804 70.008 87.7444 69.944C87.8084 70.008 87.8404 70.12 87.8404 70.28C87.8084 70.504 87.7284 70.728 87.6004 70.952C87.4724 71.144 87.3444 71.32 87.2164 71.48C86.5444 72.312 85.8084 73.176 85.0084 74.072C84.2084 74.936 83.3284 75.672 82.3684 76.28C81.4084 76.856 80.3684 77.144 79.2484 77.144ZM93.8081 77.912C93.7441 77.912 93.6321 77.88 93.4721 77.816C93.3121 77.784 93.2321 77.72 93.2321 77.624C93.2321 77.592 93.2481 77.56 93.2801 77.528C93.3121 77.496 93.3281 77.48 93.3281 77.48C93.5521 77.416 93.6481 77.384 93.6161 77.384C93.6161 77.416 93.7281 77.4 93.9521 77.336C94.4961 77.144 94.9601 76.872 95.3441 76.52C95.7601 76.136 96.1121 75.688 96.4001 75.176C97.9041 72.68 99.3441 70.152 100.72 67.592C102.096 65 103.472 62.424 104.848 59.864C105.232 59.192 105.6 58.504 105.952 57.8C106.304 57.096 106.656 56.392 107.008 55.688C107.168 55.304 107.328 54.92 107.488 54.536C107.68 54.152 107.888 53.784 108.112 53.432C108.368 52.984 108.768 52.6 109.312 52.28C109.888 51.928 110.432 51.672 110.944 51.512H109.792C109.152 51.512 108.272 51.56 107.152 51.656C106.064 51.72 104.912 51.848 103.696 52.04C102.48 52.232 101.392 52.52 100.432 52.904C99.5041 53.288 98.8641 53.8 98.5121 54.44C98.1921 55.016 98.0321 55.576 98.0321 56.12C98.0321 56.76 98.1761 57.192 98.4641 57.416C98.7521 57.64 98.8961 57.784 98.8961 57.848C98.8961 57.912 98.8481 57.976 98.7521 58.04C98.6561 58.104 98.5761 58.136 98.5121 58.136C98.3201 58.136 98.0801 57.944 97.7921 57.56C97.5041 57.176 97.2321 56.76 96.9761 56.312C96.7521 55.832 96.6081 55.512 96.5441 55.352C96.4481 55 96.4001 54.648 96.4001 54.296C96.4001 53.432 96.6881 52.776 97.2641 52.328C97.8721 51.848 98.6081 51.512 99.4721 51.32C100.336 51.128 101.2 51.016 102.064 50.984C102.96 50.92 103.696 50.888 104.272 50.888C105.872 50.888 107.472 50.856 109.072 50.792C110.672 50.696 112.256 50.648 113.824 50.648C115.328 50.648 116.8 50.76 118.24 50.984C119.712 51.176 121.04 51.576 122.224 52.184C123.408 52.792 124.352 53.656 125.056 54.776C125.792 55.896 126.16 57.368 126.16 59.192C126.16 60.856 125.84 62.568 125.2 64.328C124.592 66.056 123.824 67.608 122.896 68.984C118.992 74.84 113.52 77.768 106.48 77.768C105.392 77.768 104.272 77.656 103.12 77.432C102 77.208 100.944 76.84 99.9521 76.328C99.7281 76.2 99.4881 76.104 99.2321 76.04C99.0081 75.944 98.7681 75.896 98.5121 75.896C97.9681 75.896 97.4241 76.072 96.8801 76.424C96.3361 76.744 95.8081 77.064 95.2961 77.384C94.7841 77.736 94.2881 77.912 93.8081 77.912ZM105.904 77.096C108.304 77.096 110.544 76.632 112.624 75.704C114.704 74.776 116.528 73.48 118.096 71.816C119.664 70.12 120.896 68.184 121.792 66.008C122.208 64.984 122.544 63.912 122.8 62.792C123.088 61.672 123.232 60.568 123.232 59.48C123.232 56.984 122.464 55.064 120.928 53.72C119.424 52.344 117.44 51.656 114.976 51.656C114.368 51.656 113.728 51.72 113.056 51.848C112.416 51.976 111.888 52.28 111.472 52.76C111.056 53.272 110.656 53.832 110.272 54.44C109.92 55.048 109.568 55.64 109.216 56.216C108.48 57.496 107.776 58.824 107.104 60.2C106.464 61.544 105.808 62.872 105.136 64.184C104.08 66.2 103.04 68.232 102.016 70.28C101.792 70.728 101.552 71.192 101.296 71.672C101.072 72.12 100.848 72.568 100.624 73.016C100.56 73.176 100.496 73.352 100.432 73.544C100.368 73.704 100.336 73.896 100.336 74.12C100.336 74.536 100.464 74.888 100.72 75.176C100.976 75.464 101.248 75.736 101.536 75.992C102.144 76.44 102.848 76.744 103.648 76.904C104.448 77.032 105.2 77.096 105.904 77.096ZM127.743 77.384C126.431 77.384 125.519 77.128 125.007 76.616C124.495 76.104 124.239 75.48 124.239 74.744C124.239 73.816 124.479 72.824 124.959 71.768C125.471 70.712 125.951 69.816 126.399 69.08C126.911 68.312 127.599 67.512 128.463 66.68C129.327 65.848 130.271 65.144 131.295 64.568C132.319 63.992 133.311 63.704 134.271 63.704C135.103 63.704 135.679 63.912 135.999 64.328C136.319 64.712 136.479 65.176 136.479 65.72C136.479 66.712 136.175 67.528 135.567 68.168C134.991 68.808 134.271 69.336 133.407 69.752C132.543 70.136 131.711 70.456 130.911 70.712C130.431 70.84 129.871 70.968 129.231 71.096C128.591 71.224 127.983 71.288 127.407 71.288C127.183 71.864 127.007 72.424 126.879 72.968C126.751 73.512 126.687 74.008 126.687 74.456C126.687 75 126.815 75.448 127.071 75.8C127.359 76.152 127.823 76.328 128.463 76.328C128.719 76.328 129.023 76.296 129.375 76.232C129.727 76.168 130.111 76.072 130.527 75.944C131.487 75.624 132.431 75.112 133.359 74.408C134.287 73.704 135.135 72.952 135.903 72.152C136.703 71.32 137.311 70.632 137.727 70.088C137.823 70.184 137.871 70.296 137.871 70.424C137.871 70.584 137.759 70.84 137.535 71.192C136.895 72.088 136.063 73.016 135.039 73.976C134.015 74.936 132.879 75.752 131.631 76.424C130.383 77.064 129.087 77.384 127.743 77.384ZM127.791 70.328C128.207 70.36 128.671 70.36 129.183 70.328C129.727 70.264 130.255 70.152 130.767 69.992C132.079 69.608 133.023 69 133.599 68.168C134.207 67.304 134.511 66.536 134.511 65.864C134.511 65.48 134.431 65.16 134.271 64.904C134.111 64.648 133.855 64.52 133.503 64.52C132.575 64.52 131.743 64.872 131.007 65.576C130.271 66.248 129.631 67.032 129.087 67.928C128.543 68.824 128.111 69.624 127.791 70.328ZM139.84 77.768C139.264 77.768 138.656 77.688 138.016 77.528C137.376 77.368 136.8 77.112 136.288 76.76C135.808 76.376 135.488 75.864 135.328 75.224C135.296 75.128 135.28 74.984 135.28 74.792C135.28 74.344 135.376 73.848 135.568 73.304C135.792 72.76 136.064 72.376 136.384 72.152C136.512 72.088 136.608 72.088 136.672 72.152C136.768 72.216 136.784 72.28 136.72 72.344C136.688 72.44 136.64 72.568 136.576 72.728C136.512 72.856 136.464 73 136.432 73.16C136.336 73.992 136.512 74.728 136.96 75.368C137.152 75.624 137.376 75.864 137.632 76.088C137.92 76.312 138.192 76.504 138.448 76.664C138.672 76.792 138.944 76.888 139.264 76.952C139.584 76.984 139.904 77 140.224 77C140.736 77 141.232 76.936 141.712 76.808C142.192 76.68 142.544 76.472 142.768 76.184C143.184 75.672 143.392 75.096 143.392 74.456C143.392 73.976 143.264 73.464 143.008 72.92C142.752 72.376 142.352 71.8 141.808 71.192C141.456 70.808 141.12 70.392 140.8 69.944C140.48 69.496 140.272 69.016 140.176 68.504C140.144 68.408 140.112 68.312 140.08 68.216C140.08 68.12 140.08 68.024 140.08 67.928C139.664 68.536 139.232 69.112 138.784 69.656C138.368 70.168 138 70.616 137.68 71C137.552 71.192 137.44 71.288 137.344 71.288C137.28 71.288 137.248 71.224 137.248 71.096C137.248 70.808 137.376 70.504 137.632 70.184C137.888 69.896 138.176 69.544 138.496 69.128C138.816 68.68 139.072 68.328 139.264 68.072C139.808 67.272 140.208 66.648 140.464 66.2C140.752 65.72 141.056 65.288 141.376 64.904C141.728 64.488 142.16 64.152 142.672 63.896C143.216 63.64 143.776 63.512 144.352 63.512C145.024 63.512 145.632 63.624 146.176 63.848C146.752 64.04 147.056 64.552 147.088 65.384C147.088 65.768 147.008 66.168 146.848 66.584C146.72 66.968 146.576 67.336 146.416 67.688C146.32 67.88 146.176 68.024 145.984 68.12C145.824 68.184 145.744 68.152 145.744 68.024C145.744 67.896 145.76 67.752 145.792 67.592C145.824 67.432 145.84 67.288 145.84 67.16C145.84 66.616 145.744 66.136 145.552 65.72C145.392 65.272 145.152 64.952 144.832 64.76C144.512 64.536 144.176 64.424 143.824 64.424C143.312 64.424 142.816 64.632 142.336 65.048C141.856 65.432 141.616 65.944 141.616 66.584C141.616 66.648 141.616 66.728 141.616 66.824C141.616 66.92 141.632 67 141.664 67.064C141.792 67.576 142.176 68.152 142.816 68.792C143.456 69.432 143.952 69.992 144.304 70.472C144.912 71.304 145.216 72.152 145.216 73.016C145.216 73.88 144.96 74.68 144.448 75.416C143.968 76.12 143.312 76.68 142.48 77.096C141.68 77.544 140.8 77.768 139.84 77.768ZM158.1 58.664C157.652 58.664 157.332 58.52 157.14 58.232C157.012 58.072 156.948 57.864 156.948 57.608C156.948 57.096 157.188 56.68 157.668 56.36C158.02 56.168 158.34 56.072 158.628 56.072C159.108 56.072 159.444 56.216 159.636 56.504C159.764 56.664 159.828 56.872 159.828 57.128C159.828 57.64 159.572 58.056 159.06 58.376C158.772 58.568 158.452 58.664 158.1 58.664ZM149.748 77.144C149.428 77.144 149.156 77.08 148.932 76.952C148.74 76.824 148.644 76.584 148.644 76.232C148.644 75.784 148.756 75.256 148.98 74.648C149.236 74.04 149.508 73.432 149.796 72.824C150.116 72.216 150.356 71.72 150.516 71.336C150.74 70.888 151.012 70.312 151.332 69.608C151.684 68.872 152.004 68.184 152.292 67.544C152.612 66.872 152.836 66.408 152.964 66.152C152.516 66.632 151.972 67.24 151.332 67.976C150.724 68.68 150.148 69.368 149.604 70.04C149.06 70.712 148.644 71.24 148.356 71.624C148.26 71.752 148.18 71.816 148.116 71.816C148.052 71.816 148.02 71.736 148.02 71.576C148.02 71.32 148.1 71.08 148.26 70.856C148.868 70.088 149.54 69.224 150.276 68.264C151.044 67.304 151.732 66.424 152.34 65.624C152.948 64.792 153.332 64.248 153.492 63.992C153.844 63.928 154.356 63.832 155.028 63.704C155.732 63.576 156.212 63.4 156.468 63.176C156.564 63.08 156.66 63.032 156.756 63.032C156.82 63.032 156.852 63.096 156.852 63.224C156.884 63.32 156.852 63.432 156.756 63.56C156.564 63.784 156.228 64.328 155.748 65.192C155.268 66.056 154.756 67.016 154.212 68.072C153.7 69.096 153.22 70.024 152.772 70.856C152.324 71.72 151.94 72.552 151.62 73.352C151.3 74.152 151.14 74.728 151.14 75.08C151.14 75.528 151.364 75.752 151.812 75.752C152.228 75.752 152.756 75.496 153.396 74.984C154.068 74.472 154.74 73.864 155.412 73.16C156.084 72.424 156.676 71.752 157.188 71.144C157.348 70.952 157.54 70.728 157.764 70.472C158.02 70.184 158.18 70.008 158.244 69.944C158.308 70.008 158.34 70.12 158.34 70.28C158.308 70.504 158.228 70.728 158.1 70.952C157.972 71.144 157.844 71.32 157.716 71.48C157.044 72.312 156.308 73.176 155.508 74.072C154.708 74.936 153.828 75.672 152.868 76.28C151.908 76.856 150.868 77.144 149.748 77.144ZM148.759 93.8C147.543 93.8 146.375 93.512 145.255 92.936C144.103 92.392 143.255 91.544 142.711 90.392C142.487 89.976 142.343 89.528 142.279 89.048C142.215 88.6 142.183 88.152 142.183 87.704V87.224C142.183 86.968 142.215 86.728 142.279 86.504C142.343 86.28 142.519 86.168 142.807 86.168C142.871 86.168 142.903 86.2 142.903 86.264C142.903 86.456 142.887 86.648 142.855 86.84C142.823 87.032 142.807 87.24 142.807 87.464C142.807 88.936 143.287 90.056 144.247 90.824C145.175 91.592 146.343 91.976 147.751 91.976C148.327 91.976 148.919 91.912 149.527 91.784C150.135 91.656 150.695 91.48 151.207 91.256C153.255 90.392 155.031 89.144 156.535 87.512C158.071 85.88 159.399 84.04 160.519 81.992C161.671 79.944 162.679 77.848 163.543 75.704C164.439 73.528 165.271 71.48 166.039 69.56C165.367 70.648 164.631 71.624 163.831 72.488C163.031 73.32 162.135 74.152 161.143 74.984C160.535 75.496 159.863 75.976 159.127 76.424C158.423 76.872 157.655 77.096 156.823 77.096C156.503 77.096 156.279 77 156.151 76.808C156.023 76.584 155.959 76.328 155.959 76.04V75.704C156.119 74.456 156.519 73.16 157.159 71.816C157.831 70.472 158.631 69.208 159.559 68.024C160.487 66.84 161.431 65.88 162.391 65.144C163.479 64.312 164.679 63.896 165.991 63.896H171.511C171.671 63.896 171.751 63.96 171.751 64.088C171.751 64.344 171.607 64.472 171.319 64.472C170.967 64.472 170.631 64.616 170.311 64.904C169.991 65.192 169.751 65.464 169.591 65.72C169.271 66.232 168.855 67.016 168.343 68.072C167.831 69.128 167.271 70.344 166.663 71.72C166.055 73.064 165.447 74.44 164.839 75.848C164.231 77.224 163.671 78.52 163.159 79.736C162.391 81.56 161.511 83.336 160.519 85.064C159.559 86.824 158.407 88.392 157.063 89.768C155.751 91.176 154.183 92.28 152.359 93.08C151.271 93.56 150.071 93.8 148.759 93.8ZM158.791 75.464C159.175 75.464 159.703 75.192 160.375 74.648C161.047 74.072 161.783 73.368 162.583 72.536C163.383 71.672 164.135 70.776 164.839 69.848C165.543 68.888 166.119 68.024 166.567 67.256C167.047 66.456 167.287 65.848 167.287 65.432C167.287 65.08 167.175 64.84 166.951 64.712C166.759 64.584 166.503 64.52 166.183 64.52C165.671 64.52 165.127 64.712 164.551 65.096C163.975 65.448 163.511 65.8 163.159 66.152C162.775 66.504 162.311 67.064 161.767 67.832C161.255 68.568 160.727 69.384 160.183 70.28C159.671 71.176 159.239 72.04 158.887 72.872C158.535 73.704 158.359 74.376 158.359 74.888C158.359 75.272 158.503 75.464 158.791 75.464ZM170.342 77.72C170.214 77.72 170.214 77.576 170.342 77.288C170.502 77 170.646 76.68 170.774 76.328C170.934 75.976 171.094 75.592 171.254 75.176C171.574 74.408 171.926 73.544 172.31 72.584C172.694 71.624 173.062 70.696 173.414 69.8C173.766 68.872 174.07 68.088 174.326 67.448C174.614 66.776 174.806 66.344 174.902 66.152C174.454 66.632 173.91 67.24 173.27 67.976C172.662 68.68 172.086 69.368 171.542 70.04C170.998 70.712 170.582 71.24 170.294 71.624C170.198 71.752 170.118 71.816 170.054 71.816C169.99 71.816 169.958 71.736 169.958 71.576C169.958 71.32 170.038 71.08 170.198 70.856C170.806 70.088 171.478 69.224 172.214 68.264C172.982 67.304 173.67 66.424 174.278 65.624C174.886 64.792 175.27 64.248 175.43 63.992C175.782 63.928 176.294 63.832 176.966 63.704C177.67 63.576 178.15 63.4 178.406 63.176C178.502 63.08 178.598 63.032 178.694 63.032C178.758 63.032 178.79 63.096 178.79 63.224C178.822 63.32 178.79 63.432 178.694 63.56C178.502 63.784 178.166 64.312 177.686 65.144C177.238 65.944 176.742 66.84 176.198 67.832C175.686 68.824 175.206 69.72 174.758 70.52C175.142 70.008 175.558 69.512 176.006 69.032C176.454 68.552 176.886 68.088 177.302 67.64C177.686 67.256 178.214 66.776 178.886 66.2C179.558 65.624 180.262 65.096 180.998 64.616C181.734 64.136 182.374 63.864 182.918 63.8C183.046 63.768 183.158 63.752 183.254 63.752C183.382 63.752 183.478 63.752 183.542 63.752C184.246 63.752 184.598 64.008 184.598 64.52C184.598 64.904 184.39 65.416 183.974 66.056C183.75 66.408 183.398 67 182.918 67.832C182.47 68.632 182.006 69.512 181.526 70.472C181.078 71.4 180.678 72.28 180.326 73.112C180.006 73.912 179.846 74.504 179.846 74.888C179.846 75.336 180.07 75.56 180.518 75.56C181.062 75.56 181.654 75.288 182.294 74.744C182.966 74.2 183.686 73.512 184.454 72.68C185.222 71.816 185.99 70.904 186.758 69.944C186.822 70.008 186.854 70.12 186.854 70.28C186.854 70.504 186.774 70.728 186.614 70.952C186.486 71.144 186.358 71.32 186.23 71.48C185.91 71.896 185.478 72.424 184.934 73.064C184.422 73.672 183.894 74.28 183.35 74.888C182.806 75.464 182.31 75.928 181.862 76.28C181.542 76.504 181.126 76.744 180.614 77C180.102 77.256 179.59 77.384 179.078 77.384C178.502 77.384 178.102 77.24 177.878 76.952C177.654 76.632 177.542 76.248 177.542 75.8C177.542 75.288 177.638 74.744 177.83 74.168C178.022 73.592 178.23 73.048 178.454 72.536C178.71 71.992 178.902 71.592 179.03 71.336C179.606 70.216 180.134 69.16 180.614 68.168C181.094 67.176 181.43 66.472 181.622 66.056C181.718 65.864 181.766 65.704 181.766 65.576C181.766 65.352 181.59 65.336 181.238 65.528C180.886 65.72 180.454 66.008 179.942 66.392C179.462 66.776 179.014 67.16 178.598 67.544C178.182 67.896 177.91 68.136 177.782 68.264C176.598 69.512 175.558 70.904 174.662 72.44C173.798 73.944 173.062 75.496 172.454 77.096C172.038 77.128 171.622 77.24 171.206 77.432C170.79 77.624 170.502 77.72 170.342 77.72ZM188.778 77.768C188.202 77.768 187.594 77.688 186.954 77.528C186.314 77.368 185.738 77.112 185.226 76.76C184.746 76.376 184.426 75.864 184.266 75.224C184.234 75.128 184.218 74.984 184.218 74.792C184.218 74.344 184.314 73.848 184.506 73.304C184.73 72.76 185.002 72.376 185.322 72.152C185.45 72.088 185.546 72.088 185.61 72.152C185.706 72.216 185.722 72.28 185.658 72.344C185.626 72.44 185.578 72.568 185.514 72.728C185.45 72.856 185.402 73 185.37 73.16C185.274 73.992 185.45 74.728 185.898 75.368C186.09 75.624 186.314 75.864 186.57 76.088C186.858 76.312 187.13 76.504 187.386 76.664C187.61 76.792 187.882 76.888 188.202 76.952C188.522 76.984 188.842 77 189.162 77C189.674 77 190.17 76.936 190.65 76.808C191.13 76.68 191.482 76.472 191.706 76.184C192.122 75.672 192.33 75.096 192.33 74.456C192.33 73.976 192.202 73.464 191.946 72.92C191.69 72.376 191.29 71.8 190.746 71.192C190.394 70.808 190.058 70.392 189.738 69.944C189.418 69.496 189.21 69.016 189.114 68.504C189.082 68.408 189.05 68.312 189.018 68.216C189.018 68.12 189.018 68.024 189.018 67.928C188.602 68.536 188.17 69.112 187.722 69.656C187.306 70.168 186.938 70.616 186.618 71C186.49 71.192 186.378 71.288 186.282 71.288C186.218 71.288 186.186 71.224 186.186 71.096C186.186 70.808 186.314 70.504 186.57 70.184C186.826 69.896 187.114 69.544 187.434 69.128C187.754 68.68 188.01 68.328 188.202 68.072C188.746 67.272 189.146 66.648 189.402 66.2C189.69 65.72 189.994 65.288 190.314 64.904C190.666 64.488 191.098 64.152 191.61 63.896C192.154 63.64 192.714 63.512 193.29 63.512C193.962 63.512 194.57 63.624 195.114 63.848C195.69 64.04 195.994 64.552 196.026 65.384C196.026 65.768 195.946 66.168 195.786 66.584C195.658 66.968 195.514 67.336 195.354 67.688C195.258 67.88 195.114 68.024 194.922 68.12C194.762 68.184 194.682 68.152 194.682 68.024C194.682 67.896 194.698 67.752 194.73 67.592C194.762 67.432 194.778 67.288 194.778 67.16C194.778 66.616 194.682 66.136 194.49 65.72C194.33 65.272 194.09 64.952 193.77 64.76C193.45 64.536 193.114 64.424 192.762 64.424C192.25 64.424 191.754 64.632 191.274 65.048C190.794 65.432 190.554 65.944 190.554 66.584C190.554 66.648 190.554 66.728 190.554 66.824C190.554 66.92 190.57 67 190.602 67.064C190.73 67.576 191.114 68.152 191.754 68.792C192.394 69.432 192.89 69.992 193.242 70.472C193.85 71.304 194.154 72.152 194.154 73.016C194.154 73.88 193.898 74.68 193.386 75.416C192.906 76.12 192.25 76.68 191.418 77.096C190.618 77.544 189.738 77.768 188.778 77.768Z" fill="black"/>
<path fill-rule="evenodd" clip-rule="evenodd" d="M143.812 35.3067C143.672 35.2407 143.525 35.1885 143.373 35.1508C143.218 35.1376 143.062 35.1376 142.906 35.1508C141.233 34.9114 141.143 35.08 141.037 35.3067C140.931 35.5334 140.961 35.8875 142.409 36.5931C142.554 36.6667 142.705 36.7281 142.863 36.7772C143.029 36.7971 143.195 36.7971 143.36 36.7772C143.526 36.7772 145.063 36.7772 145.169 36.3239C145.199 36.2955 145.35 35.9853 143.812 35.3067ZM146.827 29.8226C146.827 29.8226 148.019 30.2618 148.335 30.0068C148.653 29.7518 148.169 28.5944 148.154 28.5944C148.11 28.5081 148.049 28.431 147.973 28.3677C147.886 28.3098 147.789 28.2667 147.687 28.2402C146.496 27.7174 146.3 27.9002 146.179 28.056C146.058 28.2119 145.891 28.3677 146.466 29.4699C146.5 29.5376 146.546 29.5998 146.602 29.6541C146.658 29.7305 146.737 29.7897 146.828 29.8241M158.137 26.8263C158.545 26.8263 159.012 25.8091 159.057 25.6958C159.074 25.602 159.074 25.5062 159.057 25.4125C159.072 25.3133 159.072 25.2146 159.057 25.1164C158.619 24 158.377 24 158.137 24C157.895 24 157.653 24 157.261 25.2014C157.247 25.2953 157.247 25.3907 157.261 25.4847C157.247 25.5787 157.247 25.6741 157.261 25.768C157.715 26.9963 158.121 26.8263 158.137 26.8263ZM167.138 28.8196C167.251 28.7706 167.353 28.7035 167.441 28.6213C167.528 28.5391 167.609 28.4494 167.682 28.3521C168.541 27.223 168.405 27.0672 168.255 26.9397C168.104 26.8122 167.862 26.543 166.535 27.138L166.188 27.3363C166.09 27.4199 166.004 27.5151 165.932 27.6197C165.932 27.6197 165.193 28.8054 165.494 29.0321C165.796 29.2588 167.034 28.8763 167.138 28.8196ZM173.382 34.5728C173.146 34.5437 172.906 34.573 172.687 34.6578C171.18 35.2373 171.437 35.59 171.437 35.6042C171.437 36.015 172.628 36.297 172.943 36.3395C173.08 36.3612 173.216 36.3612 173.352 36.3395C173.484 36.3244 173.612 36.2859 173.729 36.2261C175.055 35.6453 175.04 35.3492 174.979 35.1098C174.919 34.8703 174.677 34.672 173.382 34.5728ZM158.771 41.4977C158.031 39.8869 157.534 40.3246 157.112 41.4977V42.5304C157.109 43.1868 157.144 43.8414 157.218 44.494C157.308 45.4843 157.475 46.4448 157.535 47.4351C157.528 47.5076 157.537 47.5807 157.562 47.6497C157.587 47.7187 157.627 47.782 157.679 47.8358C157.732 47.8895 157.795 47.9325 157.866 47.9618C157.937 47.9912 158.014 48.0064 158.092 48.0064C158.17 48.0064 158.246 47.9912 158.318 47.9618C158.389 47.9325 158.452 47.8895 158.505 47.8358C158.557 47.782 158.597 47.7187 158.622 47.6497C158.647 47.5807 158.656 47.5076 158.649 47.4351C158.823 46.4556 158.944 45.4706 159.012 44.4798V43.2218C158.998 42.8063 158.963 42.3916 158.906 41.9793L158.771 41.4977Z" fill="black"/>
<path fill-rule="evenodd" clip-rule="evenodd" d="M168.843 35.8578C168.424 33.7787 167.377 31.8561 165.826 30.3185C164.272 28.7213 162.211 27.6358 159.947 27.223C157.419 26.934 154.86 27.4302 152.662 28.6354C150.423 29.7277 148.596 31.4403 147.432 33.5401C146.661 35.1653 146.31 36.9377 146.405 38.7138C146.48 40.4745 146.996 42.1938 147.914 43.7318C148.758 45.1443 149.768 46.092 150.492 47.2792C150.938 47.9865 151.23 48.7693 151.352 49.5828H151.201C151.069 49.5828 150.942 49.632 150.849 49.7195C150.755 49.807 150.703 49.9258 150.703 50.0496C150.703 50.1734 150.755 50.2921 150.849 50.3797C150.942 50.4672 151.069 50.5164 151.201 50.5164H156.825L160.534 50.6439C161.199 50.6665 161.857 50.7374 162.509 50.8564C162.826 50.8847 163.135 50.9768 163.416 51.1241C163.611 51.2233 163.747 51.3083 163.791 51.4217C163.836 51.5336 163.791 51.5336 163.67 51.6044C163.569 51.7261 163.453 51.8356 163.324 51.9302C162.488 52.5121 161.507 52.882 160.475 53.0041C158.782 53.2251 157.06 53.1954 155.377 52.9191C154.821 52.8199 154.284 52.6483 153.779 52.4091C153.256 52.1705 152.752 51.8968 152.271 51.5902C152.213 51.5465 152.147 51.5143 152.075 51.4956C152.004 51.4768 151.929 51.472 151.856 51.4812C151.782 51.4905 151.712 51.5138 151.648 51.5496C151.585 51.5854 151.53 51.633 151.487 51.6894C151.401 51.8012 151.364 51.9396 151.383 52.0761C151.403 52.2126 151.478 52.3368 151.592 52.4233C152.219 52.9021 152.888 53.3214 153.598 53.6813C153.704 53.6813 153.84 53.7521 153.961 53.8088C153.878 53.8594 153.814 53.9332 153.779 54.0198C153.744 54.1063 153.739 54.201 153.764 54.2905C153.956 55.1773 154.405 55.999 155.061 56.6649C155.771 57.3505 156.695 57.8096 157.7 57.9781C158.827 58.0857 159.957 57.7936 160.866 57.1593C161.309 56.8433 161.651 56.4186 161.853 55.9321C162.055 55.4456 162.11 54.9162 162.012 54.4024C162.905 54.2234 163.752 53.8775 164.499 53.3852C164.826 53.1812 165.103 52.9144 165.311 52.6025C165.519 52.2906 165.654 51.9407 165.707 51.5761C165.715 51.1664 165.594 50.7636 165.357 50.4188C165.121 50.074 164.781 49.8027 164.38 49.6394C164.161 49.5517 163.933 49.4852 163.7 49.4411V49.3136C163.753 48.6018 164.015 47.9175 164.456 47.3359C165.148 46.3456 166.114 45.4843 166.822 44.5082C167.664 43.2557 168.262 41.8726 168.586 40.4238C168.998 38.9338 169.085 37.3815 168.843 35.8592M160.263 55.6477C159.941 55.8719 159.571 56.0267 159.178 56.101C158.774 56.1718 158.36 56.1718 157.957 56.101C157.285 56.0638 156.639 55.8421 156.101 55.4635C155.543 55.0713 155.088 54.5637 154.774 53.9802C154.896 54.0359 155.022 54.0832 155.152 54.1219C156.974 54.5441 158.857 54.6914 160.73 54.5596H160.821C160.809 54.7668 160.754 54.9697 160.658 55.1565C160.562 55.3433 160.429 55.5103 160.263 55.6477ZM154.97 37.9658C155.182 37.4558 155.393 36.96 155.649 36.467C155.77 36.212 155.936 35.9711 156.072 35.7303C156.359 35.8842 156.66 36.0117 156.976 36.1128C157.204 36.1695 157.435 36.1978 157.67 36.1978C157.909 36.2016 158.146 36.178 158.378 36.127C158.806 36.0164 159.213 35.8436 159.584 35.6184C160.023 36.4103 160.429 37.2008 160.851 37.9927C160.203 37.9077 159.569 37.8227 158.921 37.7661H156.825C156.146 37.8086 155.543 37.895 154.97 37.9658ZM156.794 34.4864C157.082 33.9906 157.354 33.4961 157.639 33.0725L157.836 32.4789C157.972 32.7906 158.093 33.1023 158.153 33.2142C158.424 33.6251 158.649 34.0487 158.906 34.4581H158.167C157.88 34.4439 157.593 34.4439 157.307 34.4581C157.12 34.4514 156.934 34.4609 156.749 34.4864H156.794ZM160.7 49.0728L156.946 49.2428L155.437 49.3278V44.3523C155.437 43.7856 155.437 43.236 155.331 42.6707C155.211 41.4679 155.044 40.2949 154.925 39.1077C156.756 39.6158 158.699 39.6501 160.549 39.2069C160.354 40.4093 160.248 41.6231 160.233 42.8393C160.233 43.6312 160.324 44.4231 160.399 45.1995C160.52 46.3725 160.732 47.5328 160.792 48.7058C160.786 48.7736 160.796 48.8418 160.822 48.9053C160.848 48.9688 160.889 49.026 160.942 49.0728H160.7ZM167.214 40.0413C166.954 41.3508 166.443 42.6053 165.707 43.7446C164.921 44.9601 163.747 45.9914 163.098 47.2495C162.799 47.8289 162.63 48.4579 162.6 49.1011C162.319 49.0864 162.037 49.0864 161.756 49.1011C161.856 49.0116 161.915 48.8901 161.923 48.7611C162.119 47.4322 162.22 46.0906 162.223 44.7476C162.223 43.9556 162.223 43.1651 162.072 42.3732C161.824 39.8436 161.401 37.3317 160.806 34.8533C160.462 34.0459 160.09 33.2493 159.69 32.4648C159.406 31.8615 159.062 31.2843 158.664 30.7407C158.444 30.4731 158.146 30.2713 157.806 30.1598C157.565 30.1304 157.322 30.1719 157.108 30.2785C156.894 30.3852 156.721 30.5517 156.613 30.7548C156.386 31.1657 155.876 32.2537 155.86 32.2806C155.331 33.4961 154.759 34.7258 154.352 35.998C153.492 38.3455 153.778 37.2986 153.598 42.7274V44.4515C153.598 45.0309 153.673 45.582 153.734 46.1473C153.87 47.2495 154.051 48.3375 154.218 49.4255L152.437 49.5389C152.326 48.579 152.019 47.6483 151.532 46.7975C150.853 45.582 149.889 44.5351 149.105 43.151C148.345 41.769 147.942 40.2389 147.929 38.6841C147.905 37.1505 148.271 35.6337 148.999 34.2597C149.998 32.4829 151.556 31.0375 153.462 30.1201C155.289 29.14 157.404 28.7385 159.494 28.9754C161.396 29.2955 163.14 30.177 164.471 31.4915C165.85 32.7655 166.821 34.3762 167.274 36.1411C167.516 37.4331 167.496 38.7578 167.214 40.0427" fill="black"/>
</svg>
