<svg width="350" height="137" viewBox="0 0 350 137" fill="none" xmlns="http://www.w3.org/2000/svg">
<path d="M58.8628 82.176C57.3694 82.176 55.7908 81.9413 54.1267 81.472C52.5054 81.0453 51.0548 80.32 49.7748 79.296C48.5374 78.272 47.7054 76.9067 47.2788 75.2C47.2361 74.9867 47.1934 74.752 47.1508 74.496C47.1508 74.24 47.1508 73.984 47.1508 73.728C47.1508 72.4053 47.4494 71.1253 48.0468 69.888C48.6441 68.6507 49.3694 67.712 50.2228 67.072H50.2868C50.3721 67.072 50.4788 67.1787 50.6068 67.392C50.7774 67.5627 50.7774 67.6907 50.6068 67.776C50.1801 68.2027 49.8601 68.6933 49.6468 69.248C49.4761 69.76 49.3908 70.3147 49.3908 70.912C49.3908 71.7227 49.5188 72.5547 49.7748 73.408C50.0734 74.2187 50.4361 74.9227 50.8628 75.52C51.9294 77.0133 53.4014 78.208 55.2788 79.104C57.1988 79.9573 59.0761 80.384 60.9108 80.384C63.4281 80.384 65.3694 79.6373 66.7348 78.144C68.1428 76.6507 68.8468 74.816 68.8468 72.64C68.8468 71.3173 68.5908 69.9947 68.0788 68.672C67.3961 66.8373 66.4788 65.0453 65.3268 63.296C64.2174 61.504 63.1934 59.7547 62.2548 58.048C61.4441 56.512 61.0388 54.9547 61.0388 53.376C61.0388 51.712 61.5508 50.112 62.5748 48.576C63.5988 47.2107 64.9428 46.1227 66.6068 45.312C68.3134 44.4587 70.0414 44.032 71.7908 44.032C72.9854 44.032 74.1374 44.2453 75.2468 44.672C76.3561 45.0987 77.3588 45.8027 78.2548 46.784C78.5108 47.168 78.6388 47.6587 78.6388 48.256C78.6388 49.1093 78.4681 49.7707 78.1268 50.24C77.7428 50.7947 77.3161 51.52 76.8468 52.416C76.3774 53.312 76.1001 53.9307 76.0148 54.272C75.9294 54.3147 75.7161 54.4 75.3748 54.528C75.0761 54.6133 74.8841 54.592 74.7988 54.464C74.9694 54.1227 75.2041 53.504 75.5028 52.608C75.8014 51.712 75.9508 50.9013 75.9508 50.176C75.9508 49.7067 75.9294 49.1947 75.8868 48.64C75.8868 48.0427 75.6094 47.5307 75.0548 47.104C74.5428 46.6347 73.8814 46.2293 73.0708 45.888C72.2601 45.5467 71.2788 45.376 70.1268 45.376C67.7801 45.376 65.9881 46.0587 64.7508 47.424C63.5134 48.7893 62.8948 50.2827 62.8948 51.904C62.8948 52.7147 63.0654 53.5253 63.4068 54.336C64.0468 55.872 64.9428 57.3227 66.0948 58.688C67.2468 60.0533 68.3774 61.4613 69.4868 62.912C70.6388 64.32 71.5348 65.856 72.1748 67.52C72.6014 68.6293 72.8148 69.76 72.8148 70.912C72.8148 72.576 72.3881 74.0907 71.5348 75.456C70.7241 76.8213 69.6148 78.016 68.2068 79.04C66.8414 80.0213 65.3481 80.7893 63.7268 81.344C62.1054 81.8987 60.4841 82.176 58.8628 82.176ZM89.0818 55.552C88.4844 55.552 88.0578 55.36 87.8018 54.976C87.6311 54.7627 87.5458 54.4853 87.5458 54.144C87.5458 53.4613 87.8658 52.9067 88.5058 52.48C88.9751 52.224 89.4018 52.096 89.7858 52.096C90.4258 52.096 90.8738 52.288 91.1298 52.672C91.3004 52.8853 91.3858 53.1627 91.3858 53.504C91.3858 54.1867 91.0444 54.7413 90.3618 55.168C89.9778 55.424 89.5511 55.552 89.0818 55.552ZM77.9458 80.192C77.5191 80.192 77.1564 80.1067 76.8578 79.936C76.6018 79.7653 76.4738 79.4453 76.4738 78.976C76.4738 78.3787 76.6231 77.6747 76.9218 76.864C77.2631 76.0533 77.6258 75.2427 78.0098 74.432C78.4364 73.6213 78.7564 72.96 78.9698 72.448C79.2684 71.8507 79.6311 71.0827 80.0578 70.144C80.5271 69.1627 80.9538 68.2453 81.3378 67.392C81.7644 66.496 82.0631 65.8773 82.2338 65.536C81.6364 66.176 80.9111 66.9867 80.0578 67.968C79.2471 68.9067 78.4791 69.824 77.7538 70.72C77.0284 71.616 76.4738 72.32 76.0898 72.832C75.9618 73.0027 75.8551 73.088 75.7698 73.088C75.6844 73.088 75.6418 72.9813 75.6418 72.768C75.6418 72.4267 75.7484 72.1067 75.9618 71.808C76.7724 70.784 77.6684 69.632 78.6498 68.352C79.6738 67.072 80.5911 65.8987 81.4018 64.832C82.2124 63.7227 82.7244 62.9973 82.9378 62.656C83.4071 62.5707 84.0898 62.4427 84.9858 62.272C85.9244 62.1013 86.5644 61.8667 86.9058 61.568C87.0338 61.44 87.1618 61.376 87.2898 61.376C87.3751 61.376 87.4178 61.4613 87.4178 61.632C87.4604 61.76 87.4178 61.9093 87.2898 62.08C87.0338 62.3787 86.5858 63.104 85.9458 64.256C85.3058 65.408 84.6231 66.688 83.8978 68.096C83.2151 69.4613 82.5751 70.6987 81.9778 71.808C81.3804 72.96 80.8684 74.0693 80.4418 75.136C80.0151 76.2027 79.8018 76.9707 79.8018 77.44C79.8018 78.0373 80.1004 78.336 80.6978 78.336C81.2524 78.336 81.9564 77.9947 82.8098 77.312C83.7058 76.6293 84.6018 75.8187 85.4978 74.88C86.3938 73.8987 87.1831 73.0027 87.8658 72.192C88.0791 71.936 88.3351 71.6373 88.6338 71.296C88.9751 70.912 89.1884 70.6773 89.2738 70.592C89.3591 70.6773 89.4018 70.8267 89.4018 71.04C89.3591 71.3387 89.2524 71.6373 89.0818 71.936C88.9111 72.192 88.7404 72.4267 88.5698 72.64C87.6738 73.7493 86.6924 74.9013 85.6258 76.096C84.5591 77.248 83.3858 78.2293 82.1058 79.04C80.8258 79.808 79.4391 80.192 77.9458 80.192ZM88.4663 80.96C88.2956 80.96 88.2956 80.768 88.4663 80.384C88.6796 80 88.8716 79.5733 89.0423 79.104C89.2556 78.6347 89.4689 78.1227 89.6823 77.568C90.1089 76.544 90.5783 75.392 91.0903 74.112C91.6023 72.832 92.0929 71.5947 92.5623 70.4C93.0316 69.1627 93.4369 68.1173 93.7783 67.264C94.1623 66.368 94.4183 65.792 94.5463 65.536C93.9489 66.176 93.2236 66.9867 92.3703 67.968C91.5596 68.9067 90.7916 69.824 90.0663 70.72C89.3409 71.616 88.7863 72.32 88.4023 72.832C88.2743 73.0027 88.1676 73.088 88.0823 73.088C87.9969 73.088 87.9543 72.9813 87.9543 72.768C87.9543 72.4267 88.0609 72.1067 88.2743 71.808C89.0849 70.784 89.9809 69.632 90.9623 68.352C91.9863 67.072 92.9036 65.8987 93.7143 64.832C94.5249 63.7227 95.0369 62.9973 95.2503 62.656C95.7196 62.5707 96.4023 62.4427 97.2983 62.272C98.2369 62.1013 98.8769 61.8667 99.2183 61.568C99.3463 61.44 99.4743 61.376 99.6023 61.376C99.6876 61.376 99.7303 61.4613 99.7303 61.632C99.7729 61.76 99.7303 61.9093 99.6023 62.08C99.3463 62.3787 98.8983 63.0827 98.2583 64.192C97.6609 65.2587 96.9996 66.4533 96.2743 67.776C95.5916 69.0987 94.9516 70.2933 94.3542 71.36C95.0369 70.5493 95.6983 69.7813 96.3383 69.056C97.0209 68.3307 97.4903 67.8187 97.7463 67.52C98.2583 67.008 98.9623 66.368 99.8583 65.6C100.754 64.832 101.693 64.128 102.674 63.488C103.656 62.848 104.509 62.4853 105.234 62.4C105.405 62.3573 105.554 62.336 105.682 62.336C105.81 62.336 105.938 62.336 106.066 62.336C106.877 62.336 107.282 62.6347 107.282 63.232C107.282 63.488 107.218 63.7867 107.09 64.128C106.962 64.4693 106.792 64.8107 106.578 65.152C106.322 65.664 105.896 66.4747 105.298 67.584C104.701 68.6507 104.168 69.632 103.698 70.528L106.706 67.52C107.218 67.008 107.922 66.368 108.818 65.6C109.714 64.832 110.653 64.128 111.634 63.488C112.616 62.848 113.469 62.4853 114.194 62.4C114.365 62.3573 114.514 62.336 114.642 62.336C114.813 62.336 114.941 62.336 115.026 62.336C115.965 62.336 116.434 62.6773 116.434 63.36C116.434 63.872 116.157 64.5547 115.602 65.408C115.304 65.8773 114.834 66.6667 114.194 67.776C113.554 68.8853 112.893 70.1013 112.21 71.424C111.57 72.704 111.016 73.8987 110.546 75.008C110.077 76.1173 109.842 76.928 109.842 77.44C109.842 78.0373 110.141 78.336 110.738 78.336C111.293 78.336 111.997 78.016 112.85 77.376C113.746 76.6933 114.642 75.8827 115.538 74.944C116.477 74.0053 117.288 73.1093 117.97 72.256C118.269 71.9147 118.546 71.5733 118.802 71.232C119.101 70.848 119.272 70.6347 119.314 70.592C119.4 70.6773 119.442 70.8267 119.442 71.04C119.442 71.3387 119.336 71.6373 119.122 71.936C118.952 72.192 118.781 72.4267 118.61 72.64C117.8 73.7067 116.861 74.816 115.794 75.968C114.77 77.12 113.64 78.1013 112.402 78.912C111.165 79.68 109.842 80.128 108.434 80.256C108.008 80.2987 107.581 80.2133 107.154 80C106.728 79.7867 106.514 79.4453 106.514 78.976C106.514 78.3787 106.664 77.6747 106.962 76.864C107.304 76.0533 107.666 75.2427 108.05 74.432C108.477 73.6213 108.797 72.96 109.01 72.448C109.778 70.9547 110.482 69.5467 111.122 68.224C111.762 66.9013 112.21 65.9627 112.466 65.408C112.594 65.152 112.658 64.9387 112.658 64.768C112.658 64.4693 112.424 64.448 111.954 64.704C111.485 64.96 110.909 65.344 110.226 65.856C109.586 66.368 108.989 66.88 108.434 67.392C107.88 67.8613 107.517 68.1813 107.346 68.352C106.621 69.0773 105.746 70.0587 104.722 71.296C103.741 72.5333 102.824 73.8347 101.97 75.2C101.117 76.5227 100.52 77.76 100.178 78.912C99.7516 79.296 99.3463 79.488 98.9623 79.488C98.6636 79.488 98.4076 79.3813 98.1943 79.168C98.0236 78.9547 97.9383 78.6987 97.9383 78.4C97.9383 77.5467 98.1943 76.544 98.7063 75.392C99.2609 74.1973 99.7089 73.216 100.05 72.448C100.818 70.9547 101.522 69.5467 102.162 68.224C102.802 66.9013 103.25 65.9627 103.506 65.408C103.634 65.152 103.698 64.9387 103.698 64.768C103.698 64.4693 103.464 64.448 102.994 64.704C102.525 64.96 101.949 65.344 101.266 65.856C100.626 66.368 100.029 66.88 99.4743 67.392C98.9196 67.8613 98.5569 68.1813 98.3863 68.352C97.3623 69.4187 96.4023 70.5067 95.5063 71.616C94.6529 72.7253 93.9276 73.92 93.3303 75.2C92.9889 75.968 92.6263 76.8213 92.2423 77.76C91.8583 78.6987 91.5383 79.488 91.2823 80.128C90.7276 80.1707 90.1729 80.32 89.6183 80.576C89.0636 80.832 88.6796 80.96 88.4663 80.96ZM118.529 80.96C118.358 80.96 118.358 80.768 118.529 80.384C118.742 80 118.934 79.5733 119.105 79.104C119.318 78.6347 119.531 78.1227 119.745 77.568C120.171 76.544 120.641 75.392 121.153 74.112C121.665 72.832 122.155 71.5947 122.625 70.4C123.094 69.1627 123.499 68.1173 123.841 67.264C124.225 66.368 124.481 65.792 124.609 65.536C124.011 66.176 123.286 66.9867 122.433 67.968C121.622 68.9067 120.854 69.824 120.129 70.72C119.403 71.616 118.849 72.32 118.465 72.832C118.337 73.0027 118.23 73.088 118.145 73.088C118.059 73.088 118.017 72.9813 118.017 72.768C118.017 72.4267 118.123 72.1067 118.337 71.808C119.147 70.784 120.043 69.632 121.025 68.352C122.049 67.072 122.966 65.8987 123.777 64.832C124.587 63.7227 125.099 62.9973 125.313 62.656C125.782 62.5707 126.465 62.4427 127.361 62.272C128.299 62.1013 128.939 61.8667 129.281 61.568C129.409 61.44 129.537 61.376 129.665 61.376C129.75 61.376 129.793 61.4613 129.793 61.632C129.835 61.76 129.793 61.9093 129.665 62.08C129.409 62.3787 128.961 63.0827 128.321 64.192C127.723 65.2587 127.062 66.4533 126.337 67.776C125.654 69.0987 125.014 70.2933 124.417 71.36C125.099 70.5493 125.761 69.7813 126.401 69.056C127.083 68.3307 127.553 67.8187 127.809 67.52C128.321 67.008 129.025 66.368 129.921 65.6C130.817 64.832 131.755 64.128 132.737 63.488C133.718 62.848 134.571 62.4853 135.297 62.4C135.467 62.3573 135.617 62.336 135.745 62.336C135.873 62.336 136.001 62.336 136.129 62.336C136.939 62.336 137.345 62.6347 137.345 63.232C137.345 63.488 137.281 63.7867 137.153 64.128C137.025 64.4693 136.854 64.8107 136.641 65.152C136.385 65.664 135.958 66.4747 135.361 67.584C134.763 68.6507 134.23 69.632 133.761 70.528L136.769 67.52C137.281 67.008 137.985 66.368 138.881 65.6C139.777 64.832 140.715 64.128 141.697 63.488C142.678 62.848 143.531 62.4853 144.257 62.4C144.427 62.3573 144.577 62.336 144.705 62.336C144.875 62.336 145.003 62.336 145.089 62.336C146.027 62.336 146.497 62.6773 146.497 63.36C146.497 63.872 146.219 64.5547 145.665 65.408C145.366 65.8773 144.897 66.6667 144.257 67.776C143.617 68.8853 142.955 70.1013 142.273 71.424C141.633 72.704 141.078 73.8987 140.609 75.008C140.139 76.1173 139.905 76.928 139.905 77.44C139.905 78.0373 140.203 78.336 140.801 78.336C141.355 78.336 142.059 78.016 142.913 77.376C143.809 76.6933 144.705 75.8827 145.601 74.944C146.539 74.0053 147.35 73.1093 148.033 72.256C148.331 71.9147 148.609 71.5733 148.865 71.232C149.163 70.848 149.334 70.6347 149.377 70.592C149.462 70.6773 149.505 70.8267 149.505 71.04C149.505 71.3387 149.398 71.6373 149.185 71.936C149.014 72.192 148.843 72.4267 148.673 72.64C147.862 73.7067 146.923 74.816 145.857 75.968C144.833 77.12 143.702 78.1013 142.465 78.912C141.227 79.68 139.905 80.128 138.497 80.256C138.07 80.2987 137.643 80.2133 137.217 80C136.79 79.7867 136.577 79.4453 136.577 78.976C136.577 78.3787 136.726 77.6747 137.025 76.864C137.366 76.0533 137.729 75.2427 138.113 74.432C138.539 73.6213 138.859 72.96 139.073 72.448C139.841 70.9547 140.545 69.5467 141.185 68.224C141.825 66.9013 142.273 65.9627 142.529 65.408C142.657 65.152 142.721 64.9387 142.721 64.768C142.721 64.4693 142.486 64.448 142.017 64.704C141.547 64.96 140.971 65.344 140.289 65.856C139.649 66.368 139.051 66.88 138.497 67.392C137.942 67.8613 137.579 68.1813 137.409 68.352C136.683 69.0773 135.809 70.0587 134.785 71.296C133.803 72.5333 132.886 73.8347 132.033 75.2C131.179 76.5227 130.582 77.76 130.241 78.912C129.814 79.296 129.409 79.488 129.025 79.488C128.726 79.488 128.47 79.3813 128.257 79.168C128.086 78.9547 128.001 78.6987 128.001 78.4C128.001 77.5467 128.257 76.544 128.769 75.392C129.323 74.1973 129.771 73.216 130.113 72.448C130.881 70.9547 131.585 69.5467 132.225 68.224C132.865 66.9013 133.313 65.9627 133.569 65.408C133.697 65.152 133.761 64.9387 133.761 64.768C133.761 64.4693 133.526 64.448 133.057 64.704C132.587 64.96 132.011 65.344 131.329 65.856C130.689 66.368 130.091 66.88 129.537 67.392C128.982 67.8613 128.619 68.1813 128.449 68.352C127.425 69.4187 126.465 70.5067 125.569 71.616C124.715 72.7253 123.99 73.92 123.393 75.2C123.051 75.968 122.689 76.8213 122.305 77.76C121.921 78.6987 121.601 79.488 121.345 80.128C120.79 80.1707 120.235 80.32 119.681 80.576C119.126 80.832 118.742 80.96 118.529 80.96ZM161.519 55.552C160.922 55.552 160.495 55.36 160.239 54.976C160.069 54.7627 159.983 54.4853 159.983 54.144C159.983 53.4613 160.303 52.9067 160.943 52.48C161.413 52.224 161.839 52.096 162.223 52.096C162.863 52.096 163.311 52.288 163.567 52.672C163.738 52.8853 163.823 53.1627 163.823 53.504C163.823 54.1867 163.482 54.7413 162.799 55.168C162.415 55.424 161.989 55.552 161.519 55.552ZM150.383 80.192C149.957 80.192 149.594 80.1067 149.295 79.936C149.039 79.7653 148.911 79.4453 148.911 78.976C148.911 78.3787 149.061 77.6747 149.359 76.864C149.701 76.0533 150.063 75.2427 150.447 74.432C150.874 73.6213 151.194 72.96 151.407 72.448C151.706 71.8507 152.069 71.0827 152.495 70.144C152.965 69.1627 153.391 68.2453 153.775 67.392C154.202 66.496 154.501 65.8773 154.671 65.536C154.074 66.176 153.349 66.9867 152.495 67.968C151.685 68.9067 150.917 69.824 150.191 70.72C149.466 71.616 148.911 72.32 148.527 72.832C148.399 73.0027 148.293 73.088 148.207 73.088C148.122 73.088 148.079 72.9813 148.079 72.768C148.079 72.4267 148.186 72.1067 148.399 71.808C149.21 70.784 150.106 69.632 151.087 68.352C152.111 67.072 153.029 65.8987 153.839 64.832C154.65 63.7227 155.162 62.9973 155.375 62.656C155.845 62.5707 156.527 62.4427 157.423 62.272C158.362 62.1013 159.002 61.8667 159.343 61.568C159.471 61.44 159.599 61.376 159.727 61.376C159.813 61.376 159.855 61.4613 159.855 61.632C159.898 61.76 159.855 61.9093 159.727 62.08C159.471 62.3787 159.023 63.104 158.383 64.256C157.743 65.408 157.061 66.688 156.335 68.096C155.653 69.4613 155.013 70.6987 154.415 71.808C153.818 72.96 153.306 74.0693 152.879 75.136C152.453 76.2027 152.239 76.9707 152.239 77.44C152.239 78.0373 152.538 78.336 153.135 78.336C153.69 78.336 154.394 77.9947 155.247 77.312C156.143 76.6293 157.039 75.8187 157.935 74.88C158.831 73.8987 159.621 73.0027 160.303 72.192C160.517 71.936 160.773 71.6373 161.071 71.296C161.413 70.912 161.626 70.6773 161.711 70.592C161.797 70.6773 161.839 70.8267 161.839 71.04C161.797 71.3387 161.69 71.6373 161.519 71.936C161.349 72.192 161.178 72.4267 161.007 72.64C160.111 73.7493 159.13 74.9013 158.063 76.096C156.997 77.248 155.823 78.2293 154.543 79.04C153.263 79.808 151.877 80.192 150.383 80.192ZM169.796 81.216C169.711 81.216 169.562 81.1733 169.348 81.088C169.135 81.0453 169.028 80.96 169.028 80.832C169.028 80.7893 169.05 80.7467 169.092 80.704C169.135 80.6613 169.156 80.64 169.156 80.64C169.455 80.5547 169.583 80.512 169.54 80.512C169.54 80.5547 169.69 80.5333 169.988 80.448C170.714 80.192 171.332 79.8293 171.844 79.36C172.399 78.848 172.868 78.2507 173.252 77.568C175.258 74.24 177.178 70.8693 179.012 67.456C180.847 64 182.682 60.5653 184.516 57.152C185.028 56.256 185.519 55.3387 185.988 54.4C186.458 53.4613 186.927 52.5227 187.396 51.584C187.61 51.072 187.823 50.56 188.036 50.048C188.292 49.536 188.57 49.0453 188.868 48.576C189.21 47.9787 189.743 47.4667 190.468 47.04C191.236 46.5707 191.962 46.2293 192.644 46.016H191.108C190.255 46.016 189.082 46.08 187.588 46.208C186.138 46.2933 184.602 46.464 182.98 46.72C181.359 46.976 179.908 47.36 178.628 47.872C177.391 48.384 176.538 49.0667 176.068 49.92C175.642 50.688 175.428 51.4347 175.428 52.16C175.428 53.0133 175.62 53.5893 176.004 53.888C176.388 54.1867 176.58 54.3787 176.58 54.464C176.58 54.5493 176.516 54.6347 176.388 54.72C176.26 54.8053 176.154 54.848 176.068 54.848C175.812 54.848 175.492 54.592 175.108 54.08C174.724 53.568 174.362 53.0133 174.02 52.416C173.722 51.776 173.53 51.3493 173.444 51.136C173.316 50.6667 173.252 50.1973 173.252 49.728C173.252 48.576 173.636 47.7013 174.404 47.104C175.215 46.464 176.196 46.016 177.348 45.76C178.5 45.504 179.652 45.3547 180.804 45.312C181.999 45.2267 182.98 45.184 183.748 45.184C185.882 45.184 188.015 45.1413 190.148 45.056C192.282 44.928 194.394 44.864 196.484 44.864C198.49 44.864 200.452 45.0133 202.372 45.312C204.335 45.568 206.106 46.1013 207.684 46.912C209.263 47.7227 210.522 48.8747 211.46 50.368C212.442 51.8613 212.932 53.824 212.932 56.256C212.932 58.4747 212.506 60.7573 211.652 63.104C210.842 65.408 209.818 67.4773 208.58 69.312C203.375 77.12 196.079 81.024 186.692 81.024C185.242 81.024 183.748 80.8747 182.212 80.576C180.719 80.2773 179.311 79.7867 177.988 79.104C177.69 78.9333 177.37 78.8053 177.028 78.72C176.73 78.592 176.41 78.528 176.068 78.528C175.343 78.528 174.618 78.7627 173.892 79.232C173.167 79.6587 172.463 80.0853 171.78 80.512C171.098 80.9813 170.436 81.216 169.796 81.216ZM185.924 80.128C189.124 80.128 192.111 79.5093 194.884 78.272C197.658 77.0347 200.09 75.3067 202.18 73.088C204.271 70.8267 205.914 68.2453 207.108 65.344C207.663 63.9787 208.111 62.5493 208.452 61.056C208.836 59.5627 209.028 58.0907 209.028 56.64C209.028 53.312 208.004 50.752 205.956 48.96C203.951 47.1253 201.306 46.208 198.02 46.208C197.21 46.208 196.356 46.2933 195.46 46.464C194.607 46.6347 193.903 47.04 193.348 47.68C192.794 48.3627 192.26 49.1093 191.748 49.92C191.279 50.7307 190.81 51.52 190.34 52.288C189.359 53.9947 188.42 55.7653 187.524 57.6C186.671 59.392 185.796 61.1627 184.9 62.912C183.492 65.6 182.106 68.3093 180.74 71.04C180.442 71.6373 180.122 72.256 179.78 72.896C179.482 73.4933 179.183 74.0907 178.884 74.688C178.799 74.9013 178.714 75.136 178.628 75.392C178.543 75.6053 178.5 75.8613 178.5 76.16C178.5 76.7147 178.671 77.184 179.012 77.568C179.354 77.952 179.716 78.3147 180.1 78.656C180.911 79.2533 181.85 79.6587 182.916 79.872C183.983 80.0427 184.986 80.128 185.924 80.128ZM215.043 80.512C213.293 80.512 212.077 80.1707 211.395 79.488C210.712 78.8053 210.371 77.9733 210.371 76.992C210.371 75.7547 210.691 74.432 211.331 73.024C212.013 71.616 212.653 70.4213 213.251 69.44C213.933 68.416 214.851 67.3493 216.003 66.24C217.155 65.1307 218.413 64.192 219.779 63.424C221.144 62.656 222.467 62.272 223.747 62.272C224.856 62.272 225.624 62.5493 226.051 63.104C226.477 63.616 226.691 64.2347 226.691 64.96C226.691 66.2827 226.285 67.3707 225.475 68.224C224.707 69.0773 223.747 69.7813 222.595 70.336C221.443 70.848 220.333 71.2747 219.267 71.616C218.627 71.7867 217.88 71.9573 217.027 72.128C216.173 72.2987 215.363 72.384 214.595 72.384C214.296 73.152 214.061 73.8987 213.891 74.624C213.72 75.3493 213.635 76.0107 213.635 76.608C213.635 77.3333 213.805 77.9307 214.147 78.4C214.531 78.8693 215.149 79.104 216.003 79.104C216.344 79.104 216.749 79.0613 217.219 78.976C217.688 78.8907 218.2 78.7627 218.755 78.592C220.035 78.1653 221.293 77.4827 222.531 76.544C223.768 75.6053 224.899 74.6027 225.923 73.536C226.989 72.4267 227.8 71.5093 228.355 70.784C228.483 70.912 228.547 71.0613 228.547 71.232C228.547 71.4453 228.397 71.7867 228.099 72.256C227.245 73.4507 226.136 74.688 224.771 75.968C223.405 77.248 221.891 78.336 220.227 79.232C218.563 80.0853 216.835 80.512 215.043 80.512ZM215.107 71.104C215.661 71.1467 216.28 71.1467 216.963 71.104C217.688 71.0187 218.392 70.8693 219.075 70.656C220.824 70.144 222.083 69.3333 222.851 68.224C223.661 67.072 224.067 66.048 224.067 65.152C224.067 64.64 223.96 64.2133 223.747 63.872C223.533 63.5307 223.192 63.36 222.723 63.36C221.485 63.36 220.376 63.8293 219.395 64.768C218.413 65.664 217.56 66.7093 216.835 67.904C216.109 69.0987 215.533 70.1653 215.107 71.104ZM231.172 81.024C230.404 81.024 229.594 80.9173 228.74 80.704C227.887 80.4907 227.119 80.1493 226.436 79.68C225.796 79.168 225.37 78.4853 225.156 77.632C225.114 77.504 225.092 77.312 225.092 77.056C225.092 76.4587 225.22 75.7973 225.476 75.072C225.775 74.3467 226.138 73.8347 226.564 73.536C226.735 73.4507 226.863 73.4507 226.948 73.536C227.076 73.6213 227.098 73.7067 227.012 73.792C226.97 73.92 226.906 74.0907 226.82 74.304C226.735 74.4747 226.671 74.6667 226.628 74.88C226.5 75.9893 226.735 76.9707 227.332 77.824C227.588 78.1653 227.887 78.4853 228.228 78.784C228.612 79.0827 228.975 79.3387 229.316 79.552C229.615 79.7227 229.978 79.8507 230.404 79.936C230.831 79.9787 231.258 80 231.684 80C232.367 80 233.028 79.9147 233.668 79.744C234.308 79.5733 234.778 79.296 235.076 78.912C235.631 78.2293 235.908 77.4613 235.908 76.608C235.908 75.968 235.738 75.2853 235.396 74.56C235.055 73.8347 234.522 73.0667 233.796 72.256C233.327 71.744 232.879 71.1893 232.452 70.592C232.026 69.9947 231.748 69.3547 231.62 68.672C231.578 68.544 231.535 68.416 231.492 68.288C231.492 68.16 231.492 68.032 231.492 67.904C230.938 68.7147 230.362 69.4827 229.764 70.208C229.21 70.8907 228.719 71.488 228.292 72C228.122 72.256 227.972 72.384 227.844 72.384C227.759 72.384 227.716 72.2987 227.716 72.128C227.716 71.744 227.887 71.3387 228.228 70.912C228.57 70.528 228.954 70.0587 229.38 69.504C229.807 68.9067 230.148 68.4373 230.404 68.096C231.13 67.0293 231.663 66.1973 232.004 65.6C232.388 64.96 232.794 64.384 233.22 63.872C233.69 63.3173 234.266 62.8693 234.948 62.528C235.674 62.1867 236.42 62.016 237.188 62.016C238.084 62.016 238.895 62.1653 239.62 62.464C240.388 62.72 240.794 63.4027 240.836 64.512C240.836 65.024 240.73 65.5573 240.516 66.112C240.346 66.624 240.154 67.1147 239.94 67.584C239.812 67.84 239.62 68.032 239.364 68.16C239.151 68.2453 239.044 68.2027 239.044 68.032C239.044 67.8613 239.066 67.6693 239.108 67.456C239.151 67.2427 239.172 67.0507 239.172 66.88C239.172 66.1547 239.044 65.5147 238.788 64.96C238.575 64.3627 238.255 63.936 237.828 63.68C237.402 63.3813 236.954 63.232 236.484 63.232C235.802 63.232 235.14 63.5093 234.5 64.064C233.86 64.576 233.54 65.2587 233.54 66.112C233.54 66.1973 233.54 66.304 233.54 66.432C233.54 66.56 233.562 66.6667 233.604 66.752C233.775 67.4347 234.287 68.2027 235.14 69.056C235.994 69.9093 236.655 70.656 237.124 71.296C237.935 72.4053 238.34 73.536 238.34 74.688C238.34 75.84 237.999 76.9067 237.316 77.888C236.676 78.8267 235.802 79.5733 234.692 80.128C233.626 80.7253 232.452 81.024 231.172 81.024ZM255.519 55.552C254.922 55.552 254.495 55.36 254.239 54.976C254.069 54.7627 253.983 54.4853 253.983 54.144C253.983 53.4613 254.303 52.9067 254.943 52.48C255.413 52.224 255.839 52.096 256.223 52.096C256.863 52.096 257.311 52.288 257.567 52.672C257.738 52.8853 257.823 53.1627 257.823 53.504C257.823 54.1867 257.482 54.7413 256.799 55.168C256.415 55.424 255.989 55.552 255.519 55.552ZM244.383 80.192C243.957 80.192 243.594 80.1067 243.295 79.936C243.039 79.7653 242.911 79.4453 242.911 78.976C242.911 78.3787 243.061 77.6747 243.359 76.864C243.701 76.0533 244.063 75.2427 244.447 74.432C244.874 73.6213 245.194 72.96 245.407 72.448C245.706 71.8507 246.069 71.0827 246.495 70.144C246.965 69.1627 247.391 68.2453 247.775 67.392C248.202 66.496 248.501 65.8773 248.671 65.536C248.074 66.176 247.349 66.9867 246.495 67.968C245.685 68.9067 244.917 69.824 244.191 70.72C243.466 71.616 242.911 72.32 242.527 72.832C242.399 73.0027 242.293 73.088 242.207 73.088C242.122 73.088 242.079 72.9813 242.079 72.768C242.079 72.4267 242.186 72.1067 242.399 71.808C243.21 70.784 244.106 69.632 245.087 68.352C246.111 67.072 247.029 65.8987 247.839 64.832C248.65 63.7227 249.162 62.9973 249.375 62.656C249.845 62.5707 250.527 62.4427 251.423 62.272C252.362 62.1013 253.002 61.8667 253.343 61.568C253.471 61.44 253.599 61.376 253.727 61.376C253.813 61.376 253.855 61.4613 253.855 61.632C253.898 61.76 253.855 61.9093 253.727 62.08C253.471 62.3787 253.023 63.104 252.383 64.256C251.743 65.408 251.061 66.688 250.335 68.096C249.653 69.4613 249.013 70.6987 248.415 71.808C247.818 72.96 247.306 74.0693 246.879 75.136C246.453 76.2027 246.239 76.9707 246.239 77.44C246.239 78.0373 246.538 78.336 247.135 78.336C247.69 78.336 248.394 77.9947 249.247 77.312C250.143 76.6293 251.039 75.8187 251.935 74.88C252.831 73.8987 253.621 73.0027 254.303 72.192C254.517 71.936 254.773 71.6373 255.071 71.296C255.413 70.912 255.626 70.6773 255.711 70.592C255.797 70.6773 255.839 70.8267 255.839 71.04C255.797 71.3387 255.69 71.6373 255.519 71.936C255.349 72.192 255.178 72.4267 255.007 72.64C254.111 73.7493 253.13 74.9013 252.063 76.096C250.997 77.248 249.823 78.2293 248.543 79.04C247.263 79.808 245.877 80.192 244.383 80.192ZM243.064 102.4C241.442 102.4 239.885 102.016 238.392 101.248C236.856 100.523 235.725 99.392 235 97.856C234.701 97.3013 234.509 96.704 234.424 96.064C234.338 95.4667 234.296 94.8693 234.296 94.272V93.632C234.296 93.2907 234.338 92.9707 234.424 92.672C234.509 92.3733 234.744 92.224 235.128 92.224C235.213 92.224 235.256 92.2667 235.256 92.352C235.256 92.608 235.234 92.864 235.192 93.12C235.149 93.376 235.128 93.6533 235.128 93.952C235.128 95.9147 235.768 97.408 237.048 98.432C238.285 99.456 239.842 99.968 241.72 99.968C242.488 99.968 243.277 99.8827 244.088 99.712C244.898 99.5413 245.645 99.3067 246.328 99.008C249.058 97.856 251.426 96.192 253.432 94.016C255.48 91.84 257.25 89.3867 258.744 86.656C260.28 83.9253 261.624 81.1307 262.776 78.272C263.97 75.3707 265.08 72.64 266.104 70.08C265.208 71.5307 264.226 72.832 263.16 73.984C262.093 75.0933 260.898 76.2027 259.576 77.312C258.765 77.9947 257.869 78.6347 256.888 79.232C255.949 79.8293 254.925 80.128 253.816 80.128C253.389 80.128 253.09 80 252.92 79.744C252.749 79.4453 252.664 79.104 252.664 78.72V78.272C252.877 76.608 253.41 74.88 254.264 73.088C255.16 71.296 256.226 69.6107 257.464 68.032C258.701 66.4533 259.96 65.1733 261.24 64.192C262.69 63.0827 264.29 62.528 266.04 62.528H273.4C273.613 62.528 273.72 62.6133 273.72 62.784C273.72 63.1253 273.528 63.296 273.144 63.296C272.674 63.296 272.226 63.488 271.8 63.872C271.373 64.256 271.053 64.6187 270.84 64.96C270.413 65.6427 269.858 66.688 269.176 68.096C268.493 69.504 267.746 71.1253 266.936 72.96C266.125 74.752 265.314 76.5867 264.504 78.464C263.693 80.2987 262.946 82.0267 262.264 83.648C261.24 86.08 260.066 88.448 258.744 90.752C257.464 93.0987 255.928 95.1893 254.136 97.024C252.386 98.9013 250.296 100.373 247.864 101.44C246.413 102.08 244.813 102.4 243.064 102.4ZM256.44 77.952C256.952 77.952 257.656 77.5893 258.552 76.864C259.448 76.096 260.429 75.1573 261.496 74.048C262.562 72.896 263.565 71.7013 264.504 70.464C265.442 69.184 266.21 68.032 266.808 67.008C267.448 65.9413 267.768 65.1307 267.768 64.576C267.768 64.1067 267.618 63.7867 267.32 63.616C267.064 63.4453 266.722 63.36 266.296 63.36C265.613 63.36 264.888 63.616 264.12 64.128C263.352 64.5973 262.733 65.0667 262.264 65.536C261.752 66.0053 261.133 66.752 260.408 67.776C259.725 68.7573 259.021 69.8453 258.296 71.04C257.613 72.2347 257.037 73.3867 256.568 74.496C256.098 75.6053 255.864 76.5013 255.864 77.184C255.864 77.696 256.056 77.952 256.44 77.952ZM271.841 80.96C271.671 80.96 271.671 80.768 271.841 80.384C272.055 80 272.247 79.5733 272.417 79.104C272.631 78.6347 272.844 78.1227 273.057 77.568C273.484 76.544 273.953 75.392 274.465 74.112C274.977 72.832 275.468 71.5947 275.937 70.4C276.407 69.1627 276.812 68.1173 277.153 67.264C277.537 66.368 277.793 65.792 277.921 65.536C277.324 66.176 276.599 66.9867 275.745 67.968C274.935 68.9067 274.167 69.824 273.441 70.72C272.716 71.616 272.161 72.32 271.777 72.832C271.649 73.0027 271.543 73.088 271.457 73.088C271.372 73.088 271.329 72.9813 271.329 72.768C271.329 72.4267 271.436 72.1067 271.649 71.808C272.46 70.784 273.356 69.632 274.337 68.352C275.361 67.072 276.279 65.8987 277.089 64.832C277.9 63.7227 278.412 62.9973 278.625 62.656C279.095 62.5707 279.777 62.4427 280.673 62.272C281.612 62.1013 282.252 61.8667 282.593 61.568C282.721 61.44 282.849 61.376 282.977 61.376C283.063 61.376 283.105 61.4613 283.105 61.632C283.148 61.76 283.105 61.9093 282.977 62.08C282.721 62.3787 282.273 63.0827 281.633 64.192C281.036 65.2587 280.375 66.4533 279.649 67.776C278.967 69.0987 278.327 70.2933 277.729 71.36C278.241 70.6773 278.796 70.016 279.393 69.376C279.991 68.736 280.567 68.1173 281.121 67.52C281.633 67.008 282.337 66.368 283.233 65.6C284.129 64.832 285.068 64.128 286.049 63.488C287.031 62.848 287.884 62.4853 288.609 62.4C288.78 62.3573 288.929 62.336 289.057 62.336C289.228 62.336 289.356 62.336 289.441 62.336C290.38 62.336 290.849 62.6773 290.849 63.36C290.849 63.872 290.572 64.5547 290.017 65.408C289.719 65.8773 289.249 66.6667 288.609 67.776C288.012 68.8427 287.393 70.016 286.753 71.296C286.156 72.5333 285.623 73.7067 285.153 74.816C284.727 75.8827 284.513 76.672 284.513 77.184C284.513 77.7813 284.812 78.08 285.409 78.08C286.135 78.08 286.924 77.7173 287.777 76.992C288.673 76.2667 289.633 75.3493 290.657 74.24C291.681 73.088 292.705 71.872 293.729 70.592C293.815 70.6773 293.857 70.8267 293.857 71.04C293.857 71.3387 293.751 71.6373 293.537 71.936C293.367 72.192 293.196 72.4267 293.025 72.64C292.599 73.1947 292.023 73.8987 291.297 74.752C290.615 75.5627 289.911 76.3733 289.185 77.184C288.46 77.952 287.799 78.5707 287.201 79.04C286.775 79.3387 286.22 79.6587 285.537 80C284.855 80.3413 284.172 80.512 283.489 80.512C282.721 80.512 282.188 80.32 281.889 79.936C281.591 79.5093 281.441 78.9973 281.441 78.4C281.441 77.7173 281.569 76.992 281.825 76.224C282.081 75.456 282.359 74.7307 282.657 74.048C282.999 73.3227 283.255 72.7893 283.425 72.448C284.193 70.9547 284.897 69.5467 285.537 68.224C286.177 66.9013 286.625 65.9627 286.881 65.408C287.009 65.152 287.073 64.9387 287.073 64.768C287.073 64.4693 286.839 64.448 286.369 64.704C285.9 64.96 285.324 65.344 284.641 65.856C284.001 66.368 283.404 66.88 282.849 67.392C282.295 67.8613 281.932 68.1813 281.761 68.352C280.183 70.016 278.796 71.872 277.601 73.92C276.449 75.9253 275.468 77.9947 274.657 80.128C274.103 80.1707 273.548 80.32 272.993 80.576C272.439 80.832 272.055 80.96 271.841 80.96ZM296.422 81.024C295.654 81.024 294.844 80.9173 293.99 80.704C293.137 80.4907 292.369 80.1493 291.686 79.68C291.046 79.168 290.62 78.4853 290.406 77.632C290.364 77.504 290.342 77.312 290.342 77.056C290.342 76.4587 290.47 75.7973 290.726 75.072C291.025 74.3467 291.388 73.8347 291.814 73.536C291.985 73.4507 292.113 73.4507 292.198 73.536C292.326 73.6213 292.348 73.7067 292.262 73.792C292.22 73.92 292.156 74.0907 292.07 74.304C291.985 74.4747 291.921 74.6667 291.878 74.88C291.75 75.9893 291.985 76.9707 292.582 77.824C292.838 78.1653 293.137 78.4853 293.478 78.784C293.862 79.0827 294.225 79.3387 294.566 79.552C294.865 79.7227 295.228 79.8507 295.654 79.936C296.081 79.9787 296.508 80 296.934 80C297.617 80 298.278 79.9147 298.918 79.744C299.558 79.5733 300.028 79.296 300.326 78.912C300.881 78.2293 301.158 77.4613 301.158 76.608C301.158 75.968 300.988 75.2853 300.646 74.56C300.305 73.8347 299.772 73.0667 299.046 72.256C298.577 71.744 298.129 71.1893 297.702 70.592C297.276 69.9947 296.998 69.3547 296.87 68.672C296.828 68.544 296.785 68.416 296.742 68.288C296.742 68.16 296.742 68.032 296.742 67.904C296.188 68.7147 295.612 69.4827 295.014 70.208C294.46 70.8907 293.969 71.488 293.542 72C293.372 72.256 293.222 72.384 293.094 72.384C293.009 72.384 292.966 72.2987 292.966 72.128C292.966 71.744 293.137 71.3387 293.478 70.912C293.82 70.528 294.204 70.0587 294.63 69.504C295.057 68.9067 295.398 68.4373 295.654 68.096C296.38 67.0293 296.913 66.1973 297.254 65.6C297.638 64.96 298.044 64.384 298.47 63.872C298.94 63.3173 299.516 62.8693 300.198 62.528C300.924 62.1867 301.67 62.016 302.438 62.016C303.334 62.016 304.145 62.1653 304.87 62.464C305.638 62.72 306.044 63.4027 306.086 64.512C306.086 65.024 305.98 65.5573 305.766 66.112C305.596 66.624 305.404 67.1147 305.19 67.584C305.062 67.84 304.87 68.032 304.614 68.16C304.401 68.2453 304.294 68.2027 304.294 68.032C304.294 67.8613 304.316 67.6693 304.358 67.456C304.401 67.2427 304.422 67.0507 304.422 66.88C304.422 66.1547 304.294 65.5147 304.038 64.96C303.825 64.3627 303.505 63.936 303.078 63.68C302.652 63.3813 302.204 63.232 301.734 63.232C301.052 63.232 300.39 63.5093 299.75 64.064C299.11 64.576 298.79 65.2587 298.79 66.112C298.79 66.1973 298.79 66.304 298.79 66.432C298.79 66.56 298.812 66.6667 298.854 66.752C299.025 67.4347 299.537 68.2027 300.39 69.056C301.244 69.9093 301.905 70.656 302.374 71.296C303.185 72.4053 303.59 73.536 303.59 74.688C303.59 75.84 303.249 76.9067 302.566 77.888C301.926 78.8267 301.052 79.5733 299.942 80.128C298.876 80.7253 297.702 81.024 296.422 81.024Z" fill="#0E0EFD"/>
<path fill-rule="evenodd" clip-rule="evenodd" d="M235.843 30.8863C235.651 30.7889 235.451 30.7117 235.244 30.6562C235.031 30.6366 234.818 30.6366 234.605 30.6562C232.319 30.3027 232.195 30.5516 232.05 30.8863C231.906 31.221 231.947 31.7439 233.926 32.7855C234.124 32.8942 234.331 32.9849 234.546 33.0574C234.773 33.0867 234.999 33.0867 235.225 33.0574C235.452 33.0574 237.553 33.0574 237.697 32.3881C237.739 32.3462 237.945 31.8882 235.843 30.8863ZM239.963 22.7897C239.963 22.7897 241.593 23.4381 242.025 23.0616C242.458 22.6851 241.797 20.9763 241.777 20.9763C241.717 20.849 241.633 20.7351 241.529 20.6416C241.411 20.5562 241.279 20.4925 241.139 20.4534C239.511 19.6816 239.242 19.9514 239.077 20.1815C238.912 20.4116 238.685 20.6416 239.47 22.2689C239.517 22.3689 239.58 22.4607 239.656 22.5408C239.732 22.6537 239.84 22.7411 239.965 22.7918M255.419 18.366C255.977 18.366 256.615 16.8642 256.677 16.6969C256.7 16.5584 256.7 16.417 256.677 16.2785C256.698 16.1321 256.698 15.9864 256.677 15.8414C256.078 14.1932 255.748 14.1932 255.419 14.1932C255.089 14.1932 254.758 14.1932 254.223 15.9669C254.204 16.1056 254.204 16.2465 254.223 16.3852C254.204 16.5239 254.204 16.6648 254.223 16.8035C254.843 18.617 255.399 18.366 255.419 18.366ZM267.721 21.3088C267.875 21.2365 268.015 21.1374 268.135 21.016C268.254 20.8947 268.364 20.7622 268.465 20.6186C269.638 18.9516 269.452 18.7215 269.248 18.5333C269.041 18.345 268.711 17.9476 266.897 18.8261L266.422 19.1189C266.288 19.2423 266.171 19.3829 266.073 19.5373C266.073 19.5373 265.063 21.2879 265.474 21.6226C265.887 21.9572 267.579 21.3925 267.721 21.3088ZM276.254 29.8028C275.932 29.7599 275.604 29.8032 275.304 29.9283C273.245 30.7838 273.596 31.3046 273.596 31.3255C273.596 31.9321 275.223 32.3483 275.655 32.4111C275.841 32.4432 276.027 32.4432 276.213 32.4111C276.394 32.3888 276.569 32.332 276.729 32.2438C278.54 31.3862 278.52 30.949 278.437 30.5956C278.355 30.2421 278.024 29.9493 276.254 29.8028ZM256.287 40.0266C255.275 37.6485 254.595 38.2948 254.019 40.0266V41.5514C254.015 42.5205 254.063 43.4868 254.164 44.4503C254.287 45.9124 254.515 47.3305 254.597 48.7925C254.588 48.8996 254.6 49.0075 254.634 49.1093C254.668 49.2112 254.723 49.3048 254.794 49.3842C254.866 49.4635 254.953 49.5269 255.05 49.5703C255.147 49.6136 255.252 49.636 255.358 49.636C255.465 49.636 255.57 49.6136 255.667 49.5703C255.764 49.5269 255.851 49.4635 255.923 49.3842C255.994 49.3048 256.049 49.2112 256.083 49.1093C256.117 49.0075 256.129 48.8996 256.12 48.7925C256.358 47.3465 256.523 45.8922 256.615 44.4294V42.5721C256.597 41.9586 256.548 41.3464 256.471 40.7378L256.287 40.0266Z" fill="#0E0EFD"/>
<path fill-rule="evenodd" clip-rule="evenodd" d="M270.051 31.6999C269.479 28.6304 268.048 25.7919 265.929 23.5218C263.805 21.1637 260.987 19.5611 257.894 18.9516C254.439 18.525 250.942 19.2576 247.938 21.0369C244.877 22.6496 242.381 25.178 240.79 28.2781C239.737 30.6776 239.256 33.2943 239.387 35.9166C239.489 38.516 240.195 41.0543 241.448 43.3251C242.603 45.4104 243.983 46.8097 244.972 48.5624C245.581 49.6066 245.981 50.7624 246.147 51.9634H245.941C245.76 51.9634 245.587 52.036 245.46 52.1652C245.332 52.2945 245.26 52.4698 245.26 52.6526C245.26 52.8353 245.332 53.0106 245.46 53.1399C245.587 53.2691 245.76 53.3417 245.941 53.3417H253.627L258.695 53.53C259.604 53.5635 260.504 53.668 261.395 53.8437C261.829 53.8856 262.25 54.0215 262.634 54.239C262.901 54.3855 263.086 54.511 263.146 54.6783C263.208 54.8435 263.146 54.8435 262.981 54.9481C262.844 55.1278 262.685 55.2894 262.508 55.4292C261.367 56.2882 260.026 56.8343 258.615 57.0146C256.301 57.3409 253.949 57.297 251.648 56.8891C250.889 56.7427 250.154 56.4892 249.465 56.1361C248.75 55.7839 248.061 55.3799 247.403 54.9272C247.324 54.8627 247.234 54.8151 247.136 54.7874C247.039 54.7598 246.936 54.7526 246.836 54.7663C246.736 54.78 246.639 54.8143 246.552 54.8672C246.465 54.92 246.39 54.9903 246.331 55.0736C246.214 55.2386 246.163 55.4429 246.19 55.6445C246.217 55.846 246.319 56.0295 246.476 56.157C247.332 56.864 248.246 57.4831 249.217 58.0144C249.361 58.0144 249.547 58.119 249.712 58.2026C249.599 58.2774 249.512 58.3864 249.464 58.5141C249.416 58.6418 249.409 58.7817 249.444 58.9138C249.706 60.2231 250.32 61.4362 251.216 62.4193C252.187 63.4316 253.449 64.1093 254.822 64.3582C256.363 64.5171 257.907 64.0857 259.15 63.1493C259.756 62.6828 260.222 62.0558 260.499 61.3375C260.775 60.6193 260.85 59.8377 260.715 59.079C261.937 58.8148 263.093 58.3041 264.115 57.5772C264.562 57.2761 264.94 56.8822 265.224 56.4217C265.509 55.9612 265.693 55.4446 265.765 54.9063C265.777 54.3014 265.611 53.7067 265.288 53.1976C264.965 52.6886 264.5 52.2881 263.952 52.047C263.653 51.9175 263.341 51.8193 263.022 51.7542V51.566C263.095 50.5151 263.452 49.5048 264.055 48.6461C265.001 47.1841 266.321 45.9124 267.29 44.4713C268.44 42.6221 269.257 40.5802 269.7 38.4412C270.262 36.2414 270.382 33.9495 270.051 31.702M258.326 60.9175C257.886 61.2486 257.38 61.4771 256.843 61.5868C256.291 61.6914 255.725 61.6914 255.174 61.5868C254.255 61.5319 253.373 61.2045 252.637 60.6456C251.874 60.0666 251.254 59.3172 250.824 58.4557C250.99 58.538 251.162 58.6077 251.34 58.6649C253.831 59.2882 256.405 59.5057 258.964 59.3112H259.088C259.072 59.617 258.997 59.9165 258.865 60.1924C258.734 60.4682 258.552 60.7147 258.326 60.9175ZM251.092 34.8122C251.381 34.0593 251.671 33.3272 252.02 32.5993C252.185 32.2228 252.412 31.8673 252.598 31.5117C252.99 31.739 253.402 31.9272 253.833 32.0764C254.144 32.1601 254.46 32.2019 254.781 32.2019C255.109 32.2075 255.432 32.1726 255.75 32.0973C256.334 31.9342 256.89 31.679 257.398 31.3464C257.997 32.5157 258.553 33.6828 259.129 34.852C258.243 34.7265 257.377 34.601 256.491 34.5173H253.627C252.699 34.5801 251.875 34.7077 251.092 34.8122ZM253.585 29.6753C253.978 28.9432 254.349 28.2132 254.74 27.5878L255.008 26.7115C255.194 27.1716 255.359 27.6318 255.442 27.797C255.812 28.4036 256.12 29.029 256.471 29.6334H255.461C255.068 29.6125 254.676 29.6125 254.285 29.6334C254.031 29.6235 253.775 29.6375 253.523 29.6753H253.585ZM258.922 51.2104L253.792 51.4614L251.73 51.5869V44.2412C251.73 43.4045 251.73 42.593 251.586 41.7584C251.421 39.9827 251.193 38.2508 251.03 36.4981C253.532 37.2483 256.188 37.2988 258.716 36.6445C258.449 38.4198 258.305 40.2117 258.284 42.0073C258.284 43.1766 258.408 44.3458 258.511 45.492C258.677 47.2238 258.966 48.9368 259.048 50.6687C259.04 50.7687 259.054 50.8694 259.09 50.9631C259.125 51.0569 259.181 51.1414 259.253 51.2104H258.922ZM267.825 37.8764C267.469 39.8097 266.772 41.662 265.765 43.3439C264.691 45.1385 263.086 46.6612 262.2 48.5185C261.791 49.374 261.56 50.3026 261.519 51.2522C261.135 51.2305 260.75 51.2305 260.366 51.2522C260.502 51.1201 260.583 50.9407 260.593 50.7502C260.862 48.7883 261 46.8076 261.004 44.8247C261.004 43.6555 261.004 42.4884 260.798 41.3192C260.458 37.5845 259.88 33.876 259.067 30.217C258.597 29.0249 258.089 27.8488 257.543 26.6905C257.154 25.7998 256.685 24.9476 256.14 24.1451C255.84 23.7501 255.432 23.4522 254.967 23.2875C254.639 23.244 254.306 23.3053 254.013 23.4628C253.721 23.6202 253.485 23.8661 253.337 24.166C253.028 24.7725 252.329 26.3789 252.309 26.4186C251.586 28.2132 250.803 30.0287 250.247 31.907C249.072 35.3728 249.463 33.8271 249.217 41.8421V44.3876C249.217 45.2431 249.32 46.0567 249.403 46.8912C249.589 48.5185 249.836 50.1249 250.064 51.7312L247.63 51.8985C247.479 50.4815 247.059 49.1073 246.393 47.8513C245.466 46.0567 244.148 44.511 243.076 42.4675C242.037 40.4272 241.487 38.1681 241.469 35.8727C241.436 33.6085 241.937 31.369 242.931 29.3406C244.296 26.7173 246.426 24.5833 249.031 23.2289C251.527 21.7819 254.418 21.1891 257.274 21.5389C259.874 22.0114 262.258 23.3129 264.076 25.2536C265.961 27.1346 267.288 29.5126 267.907 32.1182C268.238 34.0258 268.211 35.9814 267.825 37.8785" fill="#0E0EFD"/>
</svg>
