<svg width="221" height="36" viewBox="0 0 221 36" fill="none" xmlns="http://www.w3.org/2000/svg">
<path d="M15.1747 8.46307C15.0554 7.34659 14.5526 6.47727 13.6662 5.85511C12.7884 5.23295 11.6463 4.92187 10.2401 4.92187C9.25143 4.92187 8.40342 5.07102 7.69603 5.36932C6.98865 5.66761 6.44745 6.07244 6.07245 6.5838C5.69745 7.09517 5.50569 7.67898 5.49717 8.33523C5.49717 8.88068 5.62075 9.35369 5.86791 9.75426C6.12359 10.1548 6.46876 10.4957 6.90342 10.777C7.33808 11.0497 7.81961 11.2798 8.34802 11.4673C8.87643 11.6548 9.4091 11.8125 9.94603 11.9403L12.4006 12.554C13.3892 12.7841 14.3395 13.0952 15.2514 13.4872C16.1719 13.8793 16.9943 14.3736 17.7188 14.9702C18.4517 15.5668 19.0313 16.2869 19.4574 17.1307C19.8835 17.9744 20.0966 18.9631 20.0966 20.0966C20.0966 21.6307 19.7046 22.9815 18.9205 24.1491C18.1364 25.3082 17.0029 26.2159 15.5199 26.8722C14.0455 27.5199 12.26 27.8437 10.1634 27.8437C8.12643 27.8437 6.35797 27.5284 4.85797 26.8977C3.36649 26.267 2.19887 25.3466 1.35512 24.1364C0.519898 22.9261 0.068193 21.4517 1.11461e-05 19.7131H4.6662C4.73439 20.625 5.01564 21.3835 5.50995 21.9886C6.00427 22.5937 6.64774 23.0455 7.44035 23.3437C8.24149 23.642 9.13638 23.7912 10.125 23.7912C11.1563 23.7912 12.0597 23.6378 12.8352 23.331C13.6193 23.0156 14.233 22.581 14.6761 22.027C15.1193 21.4645 15.3452 20.8082 15.3537 20.0582C15.3452 19.3764 15.1449 18.8139 14.7529 18.3707C14.3608 17.919 13.8111 17.544 13.1037 17.2457C12.4048 16.9389 11.5867 16.6662 10.6492 16.4276L7.67047 15.6605C5.51422 15.1065 3.80967 14.267 2.55683 13.142C1.31251 12.0085 0.690352 10.5043 0.690352 8.62926C0.690352 7.08664 1.10797 5.73579 1.94319 4.5767C2.78694 3.41761 3.93325 2.51846 5.38211 1.87926C6.83098 1.23153 8.4716 0.907667 10.304 0.907667C12.1619 0.907667 13.7898 1.23153 15.1875 1.87926C16.5938 2.51846 17.6975 3.40909 18.4986 4.55113C19.2997 5.68466 19.7131 6.98863 19.7386 8.46307H15.1747ZM24.1204 27.4474V7.81108H28.7482V27.4474H24.1204ZM26.4471 5.02415C25.7141 5.02415 25.0835 4.78125 24.5551 4.29545C24.0266 3.80113 23.7624 3.2088 23.7624 2.51846C23.7624 1.8196 24.0266 1.22727 24.5551 0.741473C25.0835 0.247156 25.7141 -2.86102e-06 26.4471 -2.86102e-06C27.1886 -2.86102e-06 27.8193 0.247156 28.3391 0.741473C28.8676 1.22727 29.1318 1.8196 29.1318 2.51846C29.1318 3.2088 28.8676 3.80113 28.3391 4.29545C27.8193 4.78125 27.1886 5.02415 26.4471 5.02415ZM33.5071 27.4474V7.81108H37.9304V11.1477H38.1605C38.5696 10.0227 39.2472 9.14488 40.1932 8.5142C41.1392 7.875 42.2685 7.5554 43.581 7.5554C44.9105 7.5554 46.0313 7.87926 46.9432 8.52699C47.8636 9.16619 48.5114 10.0398 48.8864 11.1477H49.0909C49.5256 10.0568 50.2585 9.1875 51.2898 8.53977C52.3296 7.88352 53.5611 7.5554 54.9844 7.5554C56.7912 7.5554 58.2656 8.12642 59.4077 9.26846C60.5497 10.4105 61.1208 12.0767 61.1208 14.267V27.4474H56.4801V14.983C56.4801 13.7642 56.1563 12.8736 55.5085 12.3111C54.8608 11.7401 54.0682 11.4545 53.1307 11.4545C52.0142 11.4545 51.1406 11.804 50.51 12.5028C49.8878 13.1932 49.5767 14.0923 49.5767 15.2003V27.4474H45.0384V14.7912C45.0384 13.777 44.7315 12.9673 44.1179 12.3622C43.5128 11.7571 42.7202 11.4545 41.7401 11.4545C41.0753 11.4545 40.4702 11.625 39.9247 11.9659C39.3793 12.2983 38.9446 12.7713 38.6207 13.3849C38.2969 13.9901 38.135 14.6974 38.135 15.5071V27.4474H33.5071ZM65.8157 27.4474V7.81108H70.239V11.1477H70.4691C70.8782 10.0227 71.5558 9.14488 72.5018 8.5142C73.4478 7.875 74.5771 7.5554 75.8896 7.5554C77.2191 7.5554 78.3399 7.87926 79.2518 8.52699C80.1722 9.16619 80.82 10.0398 81.195 11.1477H81.3995C81.8342 10.0568 82.5671 9.1875 83.5984 8.53977C84.6382 7.88352 85.8697 7.5554 87.293 7.5554C89.0998 7.5554 90.5742 8.12642 91.7163 9.26846C92.8583 10.4105 93.4293 12.0767 93.4293 14.267V27.4474H88.7887V14.983C88.7887 13.7642 88.4649 12.8736 87.8171 12.3111C87.1694 11.7401 86.3768 11.4545 85.4393 11.4545C84.3228 11.4545 83.4492 11.804 82.8185 12.5028C82.1964 13.1932 81.8853 14.0923 81.8853 15.2003V27.4474H77.347V14.7912C77.347 13.777 77.0401 12.9673 76.4265 12.3622C75.8214 11.7571 75.0288 11.4545 74.0487 11.4545C73.3839 11.4545 72.7788 11.625 72.2333 11.9659C71.6879 12.2983 71.2532 12.7713 70.9293 13.3849C70.6055 13.9901 70.4435 14.6974 70.4435 15.5071V27.4474H65.8157ZM98.1243 27.4474V7.81108H102.752V27.4474H98.1243ZM100.451 5.02415C99.7181 5.02415 99.0874 4.78125 98.559 4.29545C98.0306 3.80113 97.7663 3.2088 97.7663 2.51846C97.7663 1.8196 98.0306 1.22727 98.559 0.741473C99.0874 0.247156 99.7181 -2.86102e-06 100.451 -2.86102e-06C101.192 -2.86102e-06 101.823 0.247156 102.343 0.741473C102.871 1.22727 103.136 1.8196 103.136 2.51846C103.136 3.2088 102.871 3.80113 102.343 4.29545C101.823 4.78125 101.192 5.02415 100.451 5.02415ZM116.645 27.4474V1.26562H126.463C128.475 1.26562 130.162 1.61505 131.526 2.31392C132.898 3.01278 133.934 3.99289 134.632 5.25426C135.34 6.5071 135.694 7.96875 135.694 9.6392C135.694 11.3182 135.336 12.7756 134.62 14.0114C133.912 15.2386 132.868 16.1889 131.488 16.8622C130.107 17.527 128.411 17.8594 126.4 17.8594H119.407V13.9219H125.76C126.936 13.9219 127.9 13.7599 128.65 13.4361C129.4 13.1037 129.953 12.6222 130.311 11.9915C130.678 11.3523 130.861 10.5682 130.861 9.6392C130.861 8.71022 130.678 7.91761 130.311 7.26136C129.945 6.59659 129.387 6.09375 128.637 5.75284C127.887 5.40341 126.919 5.22869 125.735 5.22869H121.388V27.4474H116.645ZM130.171 15.5838L136.652 27.4474H131.36L124.993 15.5838H130.171ZM145.505 27.8437C144.261 27.8437 143.14 27.6222 142.143 27.179C141.154 26.7273 140.37 26.0625 139.791 25.1847C139.22 24.3068 138.934 23.2244 138.934 21.9375C138.934 20.8295 139.139 19.9134 139.548 19.1889C139.957 18.4645 140.515 17.8849 141.223 17.4503C141.93 17.0156 142.727 16.6875 143.613 16.4659C144.508 16.2358 145.433 16.0696 146.387 15.9673C147.538 15.848 148.471 15.7415 149.187 15.6477C149.903 15.5455 150.423 15.392 150.747 15.1875C151.079 14.9744 151.245 14.6463 151.245 14.2031V14.1264C151.245 13.1634 150.96 12.4176 150.389 11.8892C149.818 11.3608 148.995 11.0966 147.922 11.0966C146.788 11.0966 145.889 11.3437 145.224 11.8381C144.568 12.3324 144.125 12.9162 143.895 13.5895L139.574 12.9758C139.914 11.7827 140.477 10.7855 141.261 9.98437C142.045 9.17471 143.004 8.5696 144.137 8.16903C145.271 7.75994 146.524 7.5554 147.896 7.5554C148.842 7.5554 149.784 7.66619 150.721 7.88778C151.659 8.10937 152.515 8.47585 153.291 8.98721C154.066 9.49005 154.689 10.1761 155.157 11.0455C155.635 11.9148 155.873 13.0014 155.873 14.3054V27.4474H151.424V24.75H151.271C150.99 25.2955 150.593 25.8068 150.082 26.2841C149.579 26.7528 148.944 27.1321 148.177 27.4219C147.419 27.7031 146.528 27.8437 145.505 27.8437ZM146.707 24.4432C147.636 24.4432 148.441 24.2599 149.123 23.8935C149.805 23.5185 150.329 23.0241 150.696 22.4105C151.071 21.7969 151.258 21.1278 151.258 20.4034V18.0895C151.113 18.2088 150.866 18.3196 150.517 18.4219C150.176 18.5241 149.792 18.6136 149.366 18.6903C148.94 18.767 148.518 18.8352 148.101 18.8949C147.683 18.9545 147.321 19.0057 147.014 19.0483C146.324 19.142 145.706 19.2955 145.16 19.5085C144.615 19.7216 144.184 20.0199 143.869 20.4034C143.554 20.7784 143.396 21.2642 143.396 21.8608C143.396 22.7131 143.707 23.3565 144.329 23.7912C144.951 24.2259 145.744 24.4432 146.707 24.4432ZM165.154 15.9418V27.4474H160.527V7.81108H164.95V11.1477H165.18C165.632 10.0483 166.352 9.17471 167.341 8.52699C168.338 7.87926 169.569 7.5554 171.035 7.5554C172.39 7.5554 173.571 7.84517 174.576 8.42471C175.591 9.00426 176.375 9.84375 176.929 10.9432C177.491 12.0426 177.768 13.3764 177.76 14.9446V27.4474H173.132V15.6605C173.132 14.348 172.791 13.321 172.109 12.5795C171.436 11.8381 170.502 11.4673 169.309 11.4673C168.5 11.4673 167.779 11.6463 167.149 12.0043C166.527 12.3537 166.037 12.8608 165.679 13.5256C165.329 14.1903 165.154 14.9957 165.154 15.9418ZM191.004 35.2202C189.342 35.2202 187.914 34.9943 186.721 34.5426C185.528 34.0994 184.569 33.5028 183.845 32.7528C183.12 32.0028 182.618 31.1719 182.336 30.2599L186.504 29.25C186.691 29.6335 186.964 30.0128 187.322 30.3878C187.68 30.7713 188.162 31.0866 188.767 31.3338C189.38 31.5895 190.152 31.7173 191.081 31.7173C192.393 31.7173 193.48 31.3977 194.341 30.7585C195.201 30.1278 195.632 29.0881 195.632 27.6392V23.919H195.402C195.163 24.3963 194.814 24.8864 194.353 25.3892C193.902 25.892 193.301 26.3139 192.551 26.6548C191.809 26.9957 190.876 27.1662 189.751 27.1662C188.243 27.1662 186.875 26.8125 185.647 26.1051C184.429 25.3892 183.457 24.3239 182.733 22.9091C182.017 21.4858 181.659 19.7045 181.659 17.5653C181.659 15.4091 182.017 13.5895 182.733 12.1065C183.457 10.6151 184.433 9.48579 185.66 8.71875C186.887 7.94318 188.255 7.5554 189.764 7.5554C190.914 7.5554 191.86 7.75142 192.602 8.14346C193.352 8.52699 193.949 8.99147 194.392 9.53693C194.835 10.0739 195.172 10.581 195.402 11.0582H195.657V7.81108H200.221V27.767C200.221 29.446 199.821 30.8352 199.02 31.9347C198.218 33.0341 197.123 33.8565 195.734 34.402C194.345 34.9474 192.768 35.2202 191.004 35.2202ZM191.042 23.5355C192.022 23.5355 192.858 23.2969 193.548 22.8196C194.238 22.3423 194.762 21.6562 195.12 20.7614C195.478 19.8665 195.657 18.7926 195.657 17.5398C195.657 16.304 195.478 15.2216 195.12 14.2926C194.771 13.3636 194.251 12.6435 193.561 12.1321C192.879 11.6122 192.039 11.3523 191.042 11.3523C190.011 11.3523 189.15 11.6207 188.46 12.1577C187.77 12.6946 187.25 13.4318 186.9 14.3693C186.551 15.2983 186.376 16.3551 186.376 17.5398C186.376 18.7415 186.551 19.794 186.9 20.6974C187.258 21.5923 187.782 22.2912 188.473 22.794C189.172 23.2884 190.028 23.5355 191.042 23.5355ZM210.615 27.8437C209.37 27.8437 208.25 27.6222 207.252 27.179C206.264 26.7273 205.48 26.0625 204.9 25.1847C204.329 24.3068 204.044 23.2244 204.044 21.9375C204.044 20.8295 204.248 19.9134 204.657 19.1889C205.066 18.4645 205.625 17.8849 206.332 17.4503C207.039 17.0156 207.836 16.6875 208.723 16.4659C209.618 16.2358 210.542 16.0696 211.497 15.9673C212.647 15.848 213.581 15.7415 214.297 15.6477C215.012 15.5455 215.532 15.392 215.856 15.1875C216.189 14.9744 216.355 14.6463 216.355 14.2031V14.1264C216.355 13.1634 216.069 12.4176 215.498 11.8892C214.927 11.3608 214.105 11.0966 213.031 11.0966C211.897 11.0966 210.998 11.3437 210.333 11.8381C209.677 12.3324 209.234 12.9162 209.004 13.5895L204.683 12.9758C205.024 11.7827 205.586 10.7855 206.37 9.98437C207.154 9.17471 208.113 8.5696 209.247 8.16903C210.38 7.75994 211.633 7.5554 213.005 7.5554C213.951 7.5554 214.893 7.66619 215.831 7.88778C216.768 8.10937 217.625 8.47585 218.4 8.98721C219.176 9.49005 219.798 10.1761 220.267 11.0455C220.744 11.9148 220.983 13.0014 220.983 14.3054V27.4474H216.534V24.75H216.38C216.099 25.2955 215.703 25.8068 215.191 26.2841C214.689 26.7528 214.054 27.1321 213.287 27.4219C212.528 27.7031 211.637 27.8437 210.615 27.8437ZM211.816 24.4432C212.745 24.4432 213.551 24.2599 214.233 23.8935C214.914 23.5185 215.439 23.0241 215.805 22.4105C216.18 21.7969 216.368 21.1278 216.368 20.4034V18.0895C216.223 18.2088 215.976 18.3196 215.626 18.4219C215.285 18.5241 214.902 18.6136 214.476 18.6903C214.049 18.767 213.627 18.8352 213.21 18.8949C212.792 18.9545 212.43 19.0057 212.123 19.0483C211.433 19.142 210.815 19.2955 210.27 19.5085C209.724 19.7216 209.294 20.0199 208.978 20.4034C208.663 20.7784 208.505 21.2642 208.505 21.8608C208.505 22.7131 208.816 23.3565 209.439 23.7912C210.061 24.2259 210.853 24.4432 211.816 24.4432Z" fill="black"/>
</svg>
