<svg width="1464" height="336" viewBox="0 0 1464 336" fill="none" xmlns="http://www.w3.org/2000/svg">
<path d="M580.828 122.598H544.305L544.109 102.48H574.773C580.177 102.48 584.604 101.797 588.055 100.43C591.505 98.9974 594.077 96.9466 595.77 94.2773C597.527 91.543 598.406 88.2227 598.406 84.3164C598.406 79.8893 597.56 76.3086 595.867 73.5742C594.24 70.8398 591.668 68.8542 588.152 67.6172C584.702 66.3802 580.242 65.7617 574.773 65.7617H554.461V185H525.164V42.8125H574.773C583.042 42.8125 590.431 43.5938 596.941 45.1562C603.517 46.7188 609.083 49.0951 613.641 52.2852C618.198 55.4753 621.681 59.5117 624.09 64.3945C626.499 69.2122 627.703 74.9414 627.703 81.582C627.703 87.4414 626.368 92.8451 623.699 97.793C621.095 102.741 616.961 106.777 611.297 109.902C605.698 113.027 598.374 114.753 589.324 115.078L580.828 122.598ZM579.559 185H536.297L547.723 162.148H579.559C584.702 162.148 588.901 161.335 592.156 159.707C595.411 158.014 597.82 155.736 599.383 152.871C600.945 150.007 601.727 146.719 601.727 143.008C601.727 138.841 601.01 135.228 599.578 132.168C598.211 129.108 595.997 126.764 592.938 125.137C589.878 123.444 585.841 122.598 580.828 122.598H552.605L552.801 102.48H587.957L594.695 110.391C603.354 110.26 610.32 111.79 615.594 114.98C620.932 118.105 624.806 122.174 627.215 127.188C629.689 132.201 630.926 137.572 630.926 143.301C630.926 152.415 628.94 160.098 624.969 166.348C620.997 172.533 615.171 177.188 607.488 180.312C599.871 183.438 590.561 185 579.559 185ZM680.828 35V185H652.605V35H680.828ZM733.758 79.3359V185H705.535V79.3359H733.758ZM703.777 51.7969C703.777 47.6953 705.21 44.3099 708.074 41.6406C710.939 38.9714 714.78 37.6367 719.598 37.6367C724.35 37.6367 728.159 38.9714 731.023 41.6406C733.953 44.3099 735.418 47.6953 735.418 51.7969C735.418 55.8984 733.953 59.2839 731.023 61.9531C728.159 64.6224 724.35 65.957 719.598 65.957C714.78 65.957 710.939 64.6224 708.074 61.9531C705.21 59.2839 703.777 55.8984 703.777 51.7969ZM814.129 155.801C814.129 153.783 813.543 151.96 812.371 150.332C811.199 148.704 809.018 147.207 805.828 145.84C802.703 144.408 798.178 143.105 792.254 141.934C786.915 140.762 781.935 139.297 777.312 137.539C772.755 135.716 768.784 133.535 765.398 130.996C762.078 128.457 759.474 125.462 757.586 122.012C755.698 118.496 754.754 114.492 754.754 110C754.754 105.573 755.698 101.406 757.586 97.5C759.539 93.5938 762.306 90.1432 765.887 87.1484C769.533 84.0885 773.96 81.7122 779.168 80.0195C784.441 78.2617 790.366 77.3828 796.941 77.3828C806.121 77.3828 813.999 78.8477 820.574 81.7773C827.215 84.707 832.293 88.7435 835.809 93.8867C839.389 98.9648 841.18 104.759 841.18 111.27H813.055C813.055 108.535 812.469 106.094 811.297 103.945C810.19 101.732 808.432 100.007 806.023 98.7695C803.68 97.4674 800.62 96.8164 796.844 96.8164C793.719 96.8164 791.017 97.3698 788.738 98.4766C786.46 99.5182 784.702 100.951 783.465 102.773C782.293 104.531 781.707 106.484 781.707 108.633C781.707 110.26 782.033 111.725 782.684 113.027C783.4 114.264 784.539 115.404 786.102 116.445C787.664 117.487 789.682 118.464 792.156 119.375C794.695 120.221 797.82 121.003 801.531 121.719C809.148 123.281 815.952 125.332 821.941 127.871C827.931 130.345 832.684 133.73 836.199 138.027C839.715 142.259 841.473 147.826 841.473 154.727C841.473 159.414 840.431 163.711 838.348 167.617C836.264 171.523 833.27 174.941 829.363 177.871C825.457 180.736 820.77 182.982 815.301 184.609C809.897 186.172 803.81 186.953 797.039 186.953C787.208 186.953 778.875 185.195 772.039 181.68C765.268 178.164 760.125 173.704 756.609 168.301C753.159 162.832 751.434 157.233 751.434 151.504H778.094C778.224 155.345 779.201 158.438 781.023 160.781C782.911 163.125 785.288 164.818 788.152 165.859C791.082 166.901 794.24 167.422 797.625 167.422C801.271 167.422 804.298 166.934 806.707 165.957C809.116 164.915 810.939 163.548 812.176 161.855C813.478 160.098 814.129 158.079 814.129 155.801ZM916.863 155.801C916.863 153.783 916.277 151.96 915.105 150.332C913.934 148.704 911.753 147.207 908.562 145.84C905.438 144.408 900.913 143.105 894.988 141.934C889.65 140.762 884.669 139.297 880.047 137.539C875.49 135.716 871.518 133.535 868.133 130.996C864.812 128.457 862.208 125.462 860.32 122.012C858.432 118.496 857.488 114.492 857.488 110C857.488 105.573 858.432 101.406 860.32 97.5C862.273 93.5938 865.04 90.1432 868.621 87.1484C872.267 84.0885 876.694 81.7122 881.902 80.0195C887.176 78.2617 893.1 77.3828 899.676 77.3828C908.855 77.3828 916.733 78.8477 923.309 81.7773C929.949 84.707 935.027 88.7435 938.543 93.8867C942.124 98.9648 943.914 104.759 943.914 111.27H915.789C915.789 108.535 915.203 106.094 914.031 103.945C912.924 101.732 911.167 100.007 908.758 98.7695C906.414 97.4674 903.354 96.8164 899.578 96.8164C896.453 96.8164 893.751 97.3698 891.473 98.4766C889.194 99.5182 887.436 100.951 886.199 102.773C885.027 104.531 884.441 106.484 884.441 108.633C884.441 110.26 884.767 111.725 885.418 113.027C886.134 114.264 887.273 115.404 888.836 116.445C890.398 117.487 892.417 118.464 894.891 119.375C897.43 120.221 900.555 121.003 904.266 121.719C911.883 123.281 918.686 125.332 924.676 127.871C930.665 130.345 935.418 133.73 938.934 138.027C942.449 142.259 944.207 147.826 944.207 154.727C944.207 159.414 943.165 163.711 941.082 167.617C938.999 171.523 936.004 174.941 932.098 177.871C928.191 180.736 923.504 182.982 918.035 184.609C912.632 186.172 906.544 186.953 899.773 186.953C889.943 186.953 881.609 185.195 874.773 181.68C868.003 178.164 862.859 173.704 859.344 168.301C855.893 162.832 854.168 157.233 854.168 151.504H880.828C880.958 155.345 881.935 158.438 883.758 160.781C885.646 163.125 888.022 164.818 890.887 165.859C893.816 166.901 896.974 167.422 900.359 167.422C904.005 167.422 907.033 166.934 909.441 165.957C911.85 164.915 913.673 163.548 914.91 161.855C916.212 160.098 916.863 158.079 916.863 155.801ZM33.7031 238.844L13.3125 298H0.984375L26.6719 229.75H34.5469L33.7031 238.844ZM50.7656 298L30.3281 238.844L29.4375 229.75H37.3594L63.1406 298H50.7656ZM49.7812 272.688V282.016H12.6562V272.688H49.7812ZM130.594 280.422C130.594 279.016 130.375 277.766 129.938 276.672C129.531 275.578 128.797 274.578 127.734 273.672C126.672 272.766 125.172 271.891 123.234 271.047C121.328 270.172 118.891 269.281 115.922 268.375C112.672 267.375 109.672 266.266 106.922 265.047C104.203 263.797 101.828 262.359 99.7969 260.734C97.7656 259.078 96.1875 257.188 95.0625 255.062C93.9375 252.906 93.375 250.422 93.375 247.609C93.375 244.828 93.9531 242.297 95.1094 240.016C96.2969 237.734 97.9688 235.766 100.125 234.109C102.312 232.422 104.891 231.125 107.859 230.219C110.828 229.281 114.109 228.812 117.703 228.812C122.766 228.812 127.125 229.75 130.781 231.625C134.469 233.5 137.297 236.016 139.266 239.172C141.266 242.328 142.266 245.812 142.266 249.625H130.594C130.594 247.375 130.109 245.391 129.141 243.672C128.203 241.922 126.766 240.547 124.828 239.547C122.922 238.547 120.5 238.047 117.562 238.047C114.781 238.047 112.469 238.469 110.625 239.312C108.781 240.156 107.406 241.297 106.5 242.734C105.594 244.172 105.141 245.797 105.141 247.609C105.141 248.891 105.438 250.062 106.031 251.125C106.625 252.156 107.531 253.125 108.75 254.031C109.969 254.906 111.5 255.734 113.344 256.516C115.188 257.297 117.359 258.047 119.859 258.766C123.641 259.891 126.938 261.141 129.75 262.516C132.562 263.859 134.906 265.391 136.781 267.109C138.656 268.828 140.062 270.781 141 272.969C141.938 275.125 142.406 277.578 142.406 280.328C142.406 283.203 141.828 285.797 140.672 288.109C139.516 290.391 137.859 292.344 135.703 293.969C133.578 295.562 131.016 296.797 128.016 297.672C125.047 298.516 121.734 298.938 118.078 298.938C114.797 298.938 111.562 298.5 108.375 297.625C105.219 296.75 102.344 295.422 99.75 293.641C97.1562 291.828 95.0938 289.578 93.5625 286.891C92.0312 284.172 91.2656 281 91.2656 277.375H103.031C103.031 279.594 103.406 281.484 104.156 283.047C104.938 284.609 106.016 285.891 107.391 286.891C108.766 287.859 110.359 288.578 112.172 289.047C114.016 289.516 115.984 289.75 118.078 289.75C120.828 289.75 123.125 289.359 124.969 288.578C126.844 287.797 128.25 286.703 129.188 285.297C130.125 283.891 130.594 282.266 130.594 280.422ZM174.047 298.938C170.297 298.938 166.906 298.328 163.875 297.109C160.875 295.859 158.312 294.125 156.188 291.906C154.094 289.688 152.484 287.078 151.359 284.078C150.234 281.078 149.672 277.844 149.672 274.375V272.5C149.672 268.531 150.25 264.938 151.406 261.719C152.562 258.5 154.172 255.75 156.234 253.469C158.297 251.156 160.734 249.391 163.547 248.172C166.359 246.953 169.406 246.344 172.688 246.344C176.312 246.344 179.484 246.953 182.203 248.172C184.922 249.391 187.172 251.109 188.953 253.328C190.766 255.516 192.109 258.125 192.984 261.156C193.891 264.188 194.344 267.531 194.344 271.188V276.016H155.156V267.906H183.188V267.016C183.125 264.984 182.719 263.078 181.969 261.297C181.25 259.516 180.141 258.078 178.641 256.984C177.141 255.891 175.141 255.344 172.641 255.344C170.766 255.344 169.094 255.75 167.625 256.562C166.188 257.344 164.984 258.484 164.016 259.984C163.047 261.484 162.297 263.297 161.766 265.422C161.266 267.516 161.016 269.875 161.016 272.5V274.375C161.016 276.594 161.312 278.656 161.906 280.562C162.531 282.438 163.438 284.078 164.625 285.484C165.812 286.891 167.25 288 168.938 288.812C170.625 289.594 172.547 289.984 174.703 289.984C177.422 289.984 179.844 289.438 181.969 288.344C184.094 287.25 185.938 285.703 187.5 283.703L193.453 289.469C192.359 291.062 190.938 292.594 189.188 294.062C187.438 295.5 185.297 296.672 182.766 297.578C180.266 298.484 177.359 298.938 174.047 298.938ZM215.25 226V298H203.906V226H215.25ZM242.906 298H231.609V242.406C231.609 238.625 232.312 235.453 233.719 232.891C235.156 230.297 237.203 228.344 239.859 227.031C242.516 225.688 245.656 225.016 249.281 225.016C250.406 225.016 251.516 225.094 252.609 225.25C253.703 225.375 254.766 225.578 255.797 225.859L255.516 234.578C254.891 234.422 254.203 234.312 253.453 234.25C252.734 234.188 251.953 234.156 251.109 234.156C249.391 234.156 247.906 234.484 246.656 235.141C245.438 235.766 244.5 236.688 243.844 237.906C243.219 239.125 242.906 240.625 242.906 242.406V298ZM253.359 247.281V255.531H223.828V247.281H253.359ZM284.297 264.344V273.344H259.5V264.344H284.297ZM314.906 289.938C316.75 289.938 318.406 289.578 319.875 288.859C321.375 288.109 322.578 287.078 323.484 285.766C324.422 284.453 324.938 282.938 325.031 281.219H335.672C335.609 284.5 334.641 287.484 332.766 290.172C330.891 292.859 328.406 295 325.312 296.594C322.219 298.156 318.797 298.938 315.047 298.938C311.172 298.938 307.797 298.281 304.922 296.969C302.047 295.625 299.656 293.781 297.75 291.438C295.844 289.094 294.406 286.391 293.438 283.328C292.5 280.266 292.031 276.984 292.031 273.484V271.844C292.031 268.344 292.5 265.062 293.438 262C294.406 258.906 295.844 256.188 297.75 253.844C299.656 251.5 302.047 249.672 304.922 248.359C307.797 247.016 311.156 246.344 315 246.344C319.062 246.344 322.625 247.156 325.688 248.781C328.75 250.375 331.156 252.609 332.906 255.484C334.688 258.328 335.609 261.641 335.672 265.422H325.031C324.938 263.547 324.469 261.859 323.625 260.359C322.812 258.828 321.656 257.609 320.156 256.703C318.688 255.797 316.922 255.344 314.859 255.344C312.578 255.344 310.688 255.812 309.188 256.75C307.688 257.656 306.516 258.906 305.672 260.5C304.828 262.062 304.219 263.828 303.844 265.797C303.5 267.734 303.328 269.75 303.328 271.844V273.484C303.328 275.578 303.5 277.609 303.844 279.578C304.188 281.547 304.781 283.312 305.625 284.875C306.5 286.406 307.688 287.641 309.188 288.578C310.688 289.484 312.594 289.938 314.906 289.938ZM372.938 287.828V263.641C372.938 261.828 372.609 260.266 371.953 258.953C371.297 257.641 370.297 256.625 368.953 255.906C367.641 255.188 365.984 254.828 363.984 254.828C362.141 254.828 360.547 255.141 359.203 255.766C357.859 256.391 356.812 257.234 356.062 258.297C355.312 259.359 354.938 260.562 354.938 261.906H343.688C343.688 259.906 344.172 257.969 345.141 256.094C346.109 254.219 347.516 252.547 349.359 251.078C351.203 249.609 353.406 248.453 355.969 247.609C358.531 246.766 361.406 246.344 364.594 246.344C368.406 246.344 371.781 246.984 374.719 248.266C377.688 249.547 380.016 251.484 381.703 254.078C383.422 256.641 384.281 259.859 384.281 263.734V286.281C384.281 288.594 384.438 290.672 384.75 292.516C385.094 294.328 385.578 295.906 386.203 297.25V298H374.625C374.094 296.781 373.672 295.234 373.359 293.359C373.078 291.453 372.938 289.609 372.938 287.828ZM374.578 267.156L374.672 274.141H366.562C364.469 274.141 362.625 274.344 361.031 274.75C359.438 275.125 358.109 275.688 357.047 276.438C355.984 277.188 355.188 278.094 354.656 279.156C354.125 280.219 353.859 281.422 353.859 282.766C353.859 284.109 354.172 285.344 354.797 286.469C355.422 287.562 356.328 288.422 357.516 289.047C358.734 289.672 360.203 289.984 361.922 289.984C364.234 289.984 366.25 289.516 367.969 288.578C369.719 287.609 371.094 286.438 372.094 285.062C373.094 283.656 373.625 282.328 373.688 281.078L377.344 286.094C376.969 287.375 376.328 288.75 375.422 290.219C374.516 291.688 373.328 293.094 371.859 294.438C370.422 295.75 368.688 296.828 366.656 297.672C364.656 298.516 362.344 298.938 359.719 298.938C356.406 298.938 353.453 298.281 350.859 296.969C348.266 295.625 346.234 293.828 344.766 291.578C343.297 289.297 342.562 286.719 342.562 283.844C342.562 281.156 343.062 278.781 344.062 276.719C345.094 274.625 346.594 272.875 348.562 271.469C350.562 270.062 353 269 355.875 268.281C358.75 267.531 362.031 267.156 365.719 267.156H374.578ZM407.438 256.938V298H396.141V247.281H406.922L407.438 256.938ZM422.953 246.953L422.859 257.453C422.172 257.328 421.422 257.234 420.609 257.172C419.828 257.109 419.047 257.078 418.266 257.078C416.328 257.078 414.625 257.359 413.156 257.922C411.688 258.453 410.453 259.234 409.453 260.266C408.484 261.266 407.734 262.484 407.203 263.922C406.672 265.359 406.359 266.969 406.266 268.75L403.688 268.938C403.688 265.75 404 262.797 404.625 260.078C405.25 257.359 406.188 254.969 407.438 252.906C408.719 250.844 410.312 249.234 412.219 248.078C414.156 246.922 416.391 246.344 418.922 246.344C419.609 246.344 420.344 246.406 421.125 246.531C421.938 246.656 422.547 246.797 422.953 246.953ZM451.453 298.938C447.703 298.938 444.312 298.328 441.281 297.109C438.281 295.859 435.719 294.125 433.594 291.906C431.5 289.688 429.891 287.078 428.766 284.078C427.641 281.078 427.078 277.844 427.078 274.375V272.5C427.078 268.531 427.656 264.938 428.812 261.719C429.969 258.5 431.578 255.75 433.641 253.469C435.703 251.156 438.141 249.391 440.953 248.172C443.766 246.953 446.812 246.344 450.094 246.344C453.719 246.344 456.891 246.953 459.609 248.172C462.328 249.391 464.578 251.109 466.359 253.328C468.172 255.516 469.516 258.125 470.391 261.156C471.297 264.188 471.75 267.531 471.75 271.188V276.016H432.562V267.906H460.594V267.016C460.531 264.984 460.125 263.078 459.375 261.297C458.656 259.516 457.547 258.078 456.047 256.984C454.547 255.891 452.547 255.344 450.047 255.344C448.172 255.344 446.5 255.75 445.031 256.562C443.594 257.344 442.391 258.484 441.422 259.984C440.453 261.484 439.703 263.297 439.172 265.422C438.672 267.516 438.422 269.875 438.422 272.5V274.375C438.422 276.594 438.719 278.656 439.312 280.562C439.938 282.438 440.844 284.078 442.031 285.484C443.219 286.891 444.656 288 446.344 288.812C448.031 289.594 449.953 289.984 452.109 289.984C454.828 289.984 457.25 289.438 459.375 288.344C461.5 287.25 463.344 285.703 464.906 283.703L470.859 289.469C469.766 291.062 468.344 292.594 466.594 294.062C464.844 295.5 462.703 296.672 460.172 297.578C457.672 298.484 454.766 298.938 451.453 298.938ZM516.141 260.875L527.906 252.953C529.875 251.641 531.281 250.359 532.125 249.109C532.969 247.828 533.391 246.234 533.391 244.328C533.391 242.703 532.766 241.203 531.516 239.828C530.266 238.453 528.5 237.766 526.219 237.766C524.625 237.766 523.281 238.141 522.188 238.891C521.094 239.609 520.266 240.578 519.703 241.797C519.172 242.984 518.906 244.312 518.906 245.781C518.906 247.188 519.266 248.641 519.984 250.141C520.703 251.609 521.688 253.156 522.938 254.781C524.188 256.375 525.594 258.094 527.156 259.938L559.406 298H546.328L519.984 267.016C517.703 264.266 515.688 261.75 513.938 259.469C512.188 257.156 510.828 254.922 509.859 252.766C508.891 250.578 508.406 248.328 508.406 246.016C508.406 242.453 509.141 239.391 510.609 236.828C512.078 234.266 514.156 232.297 516.844 230.922C519.531 229.516 522.672 228.812 526.266 228.812C529.734 228.812 532.719 229.516 535.219 230.922C537.75 232.297 539.688 234.125 541.031 236.406C542.406 238.688 543.094 241.188 543.094 243.906C543.094 246.062 542.703 248.031 541.922 249.812C541.141 251.594 540.062 253.219 538.688 254.688C537.312 256.156 535.719 257.547 533.906 258.859L519.609 269.266C517.953 270.609 516.719 271.906 515.906 273.156C515.125 274.375 514.609 275.5 514.359 276.531C514.109 277.562 513.984 278.469 513.984 279.25C513.984 281.25 514.406 283.062 515.25 284.688C516.125 286.312 517.391 287.609 519.047 288.578C520.734 289.516 522.781 289.984 525.188 289.984C527.781 289.984 530.297 289.406 532.734 288.25C535.172 287.062 537.359 285.391 539.297 283.234C541.234 281.078 542.766 278.5 543.891 275.5C545.047 272.5 545.625 269.172 545.625 265.516H555.375C555.375 268.828 555.047 271.969 554.391 274.938C553.766 277.906 552.75 280.656 551.344 283.188C549.969 285.719 548.156 287.984 545.906 289.984C545.688 290.203 545.438 290.484 545.156 290.828C544.906 291.141 544.656 291.406 544.406 291.625C541.719 294.094 538.703 295.938 535.359 297.156C532.047 298.344 528.516 298.938 524.766 298.938C520.234 298.938 516.312 298.109 513 296.453C509.688 294.797 507.125 292.516 505.312 289.609C503.531 286.703 502.641 283.375 502.641 279.625C502.641 276.844 503.219 274.406 504.375 272.312C505.531 270.188 507.109 268.219 509.109 266.406C511.141 264.562 513.484 262.719 516.141 260.875ZM601.266 257.594V298H589.969V247.281H600.609L601.266 257.594ZM599.438 270.766L595.594 270.719C595.594 267.219 596.031 263.984 596.906 261.016C597.781 258.047 599.062 255.469 600.75 253.281C602.438 251.062 604.531 249.359 607.031 248.172C609.562 246.953 612.484 246.344 615.797 246.344C618.109 246.344 620.219 246.688 622.125 247.375C624.062 248.031 625.734 249.078 627.141 250.516C628.578 251.953 629.672 253.797 630.422 256.047C631.203 258.297 631.594 261.016 631.594 264.203V298H620.297V265.188C620.297 262.719 619.922 260.781 619.172 259.375C618.453 257.969 617.406 256.969 616.031 256.375C614.688 255.75 613.078 255.438 611.203 255.438C609.078 255.438 607.266 255.844 605.766 256.656C604.297 257.469 603.094 258.578 602.156 259.984C601.219 261.391 600.531 263.016 600.094 264.859C599.656 266.703 599.438 268.672 599.438 270.766ZM630.891 267.766L625.594 268.938C625.594 265.875 626.016 262.984 626.859 260.266C627.734 257.516 629 255.109 630.656 253.047C632.344 250.953 634.422 249.312 636.891 248.125C639.359 246.938 642.188 246.344 645.375 246.344C647.969 246.344 650.281 246.703 652.312 247.422C654.375 248.109 656.125 249.203 657.562 250.703C659 252.203 660.094 254.156 660.844 256.562C661.594 258.938 661.969 261.812 661.969 265.188V298H650.625V265.141C650.625 262.578 650.25 260.594 649.5 259.188C648.781 257.781 647.75 256.812 646.406 256.281C645.062 255.719 643.453 255.438 641.578 255.438C639.828 255.438 638.281 255.766 636.938 256.422C635.625 257.047 634.516 257.938 633.609 259.094C632.703 260.219 632.016 261.516 631.547 262.984C631.109 264.453 630.891 266.047 630.891 267.766ZM695.953 298.938C692.203 298.938 688.812 298.328 685.781 297.109C682.781 295.859 680.219 294.125 678.094 291.906C676 289.688 674.391 287.078 673.266 284.078C672.141 281.078 671.578 277.844 671.578 274.375V272.5C671.578 268.531 672.156 264.938 673.312 261.719C674.469 258.5 676.078 255.75 678.141 253.469C680.203 251.156 682.641 249.391 685.453 248.172C688.266 246.953 691.312 246.344 694.594 246.344C698.219 246.344 701.391 246.953 704.109 248.172C706.828 249.391 709.078 251.109 710.859 253.328C712.672 255.516 714.016 258.125 714.891 261.156C715.797 264.188 716.25 267.531 716.25 271.188V276.016H677.062V267.906H705.094V267.016C705.031 264.984 704.625 263.078 703.875 261.297C703.156 259.516 702.047 258.078 700.547 256.984C699.047 255.891 697.047 255.344 694.547 255.344C692.672 255.344 691 255.75 689.531 256.562C688.094 257.344 686.891 258.484 685.922 259.984C684.953 261.484 684.203 263.297 683.672 265.422C683.172 267.516 682.922 269.875 682.922 272.5V274.375C682.922 276.594 683.219 278.656 683.812 280.562C684.438 282.438 685.344 284.078 686.531 285.484C687.719 286.891 689.156 288 690.844 288.812C692.531 289.594 694.453 289.984 696.609 289.984C699.328 289.984 701.75 289.438 703.875 288.344C706 287.25 707.844 285.703 709.406 283.703L715.359 289.469C714.266 291.062 712.844 292.594 711.094 294.062C709.344 295.5 707.203 296.672 704.672 297.578C702.172 298.484 699.266 298.938 695.953 298.938ZM736.266 258.109V298H724.969V247.281H735.609L736.266 258.109ZM734.25 270.766L730.594 270.719C730.625 267.125 731.125 263.828 732.094 260.828C733.094 257.828 734.469 255.25 736.219 253.094C738 250.938 740.125 249.281 742.594 248.125C745.062 246.938 747.812 246.344 750.844 246.344C753.281 246.344 755.484 246.688 757.453 247.375C759.453 248.031 761.156 249.109 762.562 250.609C764 252.109 765.094 254.062 765.844 256.469C766.594 258.844 766.969 261.766 766.969 265.234V298H755.625V265.188C755.625 262.75 755.266 260.828 754.547 259.422C753.859 257.984 752.844 256.969 751.5 256.375C750.188 255.75 748.547 255.438 746.578 255.438C744.641 255.438 742.906 255.844 741.375 256.656C739.844 257.469 738.547 258.578 737.484 259.984C736.453 261.391 735.656 263.016 735.094 264.859C734.531 266.703 734.25 268.672 734.25 270.766ZM801.75 247.281V255.531H773.156V247.281H801.75ZM781.406 234.859H792.703V283.984C792.703 285.547 792.922 286.75 793.359 287.594C793.828 288.406 794.469 288.953 795.281 289.234C796.094 289.516 797.047 289.656 798.141 289.656C798.922 289.656 799.672 289.609 800.391 289.516C801.109 289.422 801.688 289.328 802.125 289.234L802.172 297.859C801.234 298.141 800.141 298.391 798.891 298.609C797.672 298.828 796.266 298.938 794.672 298.938C792.078 298.938 789.781 298.484 787.781 297.578C785.781 296.641 784.219 295.125 783.094 293.031C781.969 290.938 781.406 288.156 781.406 284.688V234.859ZM839.062 287.828V263.641C839.062 261.828 838.734 260.266 838.078 258.953C837.422 257.641 836.422 256.625 835.078 255.906C833.766 255.188 832.109 254.828 830.109 254.828C828.266 254.828 826.672 255.141 825.328 255.766C823.984 256.391 822.938 257.234 822.188 258.297C821.438 259.359 821.062 260.562 821.062 261.906H809.812C809.812 259.906 810.297 257.969 811.266 256.094C812.234 254.219 813.641 252.547 815.484 251.078C817.328 249.609 819.531 248.453 822.094 247.609C824.656 246.766 827.531 246.344 830.719 246.344C834.531 246.344 837.906 246.984 840.844 248.266C843.812 249.547 846.141 251.484 847.828 254.078C849.547 256.641 850.406 259.859 850.406 263.734V286.281C850.406 288.594 850.562 290.672 850.875 292.516C851.219 294.328 851.703 295.906 852.328 297.25V298H840.75C840.219 296.781 839.797 295.234 839.484 293.359C839.203 291.453 839.062 289.609 839.062 287.828ZM840.703 267.156L840.797 274.141H832.688C830.594 274.141 828.75 274.344 827.156 274.75C825.562 275.125 824.234 275.688 823.172 276.438C822.109 277.188 821.312 278.094 820.781 279.156C820.25 280.219 819.984 281.422 819.984 282.766C819.984 284.109 820.297 285.344 820.922 286.469C821.547 287.562 822.453 288.422 823.641 289.047C824.859 289.672 826.328 289.984 828.047 289.984C830.359 289.984 832.375 289.516 834.094 288.578C835.844 287.609 837.219 286.438 838.219 285.062C839.219 283.656 839.75 282.328 839.812 281.078L843.469 286.094C843.094 287.375 842.453 288.75 841.547 290.219C840.641 291.688 839.453 293.094 837.984 294.438C836.547 295.75 834.812 296.828 832.781 297.672C830.781 298.516 828.469 298.938 825.844 298.938C822.531 298.938 819.578 298.281 816.984 296.969C814.391 295.625 812.359 293.828 810.891 291.578C809.422 289.297 808.688 286.719 808.688 283.844C808.688 281.156 809.188 278.781 810.188 276.719C811.219 274.625 812.719 272.875 814.688 271.469C816.688 270.062 819.125 269 822 268.281C824.875 267.531 828.156 267.156 831.844 267.156H840.703ZM874.312 226V298H862.969V226H874.312ZM924.375 286.75L936.094 247.281H943.312L941.344 259.094L929.531 298H923.062L924.375 286.75ZM917.484 247.281L926.625 286.938L927.375 298H920.156L906.422 247.281H917.484ZM954.281 286.469L963.141 247.281H974.156L960.469 298H953.25L954.281 286.469ZM944.531 247.281L956.109 286.281L957.562 298H951.094L939.141 259.047L937.172 247.281H944.531ZM1004.2 298.938C1000.45 298.938 997.062 298.328 994.031 297.109C991.031 295.859 988.469 294.125 986.344 291.906C984.25 289.688 982.641 287.078 981.516 284.078C980.391 281.078 979.828 277.844 979.828 274.375V272.5C979.828 268.531 980.406 264.938 981.562 261.719C982.719 258.5 984.328 255.75 986.391 253.469C988.453 251.156 990.891 249.391 993.703 248.172C996.516 246.953 999.562 246.344 1002.84 246.344C1006.47 246.344 1009.64 246.953 1012.36 248.172C1015.08 249.391 1017.33 251.109 1019.11 253.328C1020.92 255.516 1022.27 258.125 1023.14 261.156C1024.05 264.188 1024.5 267.531 1024.5 271.188V276.016H985.312V267.906H1013.34V267.016C1013.28 264.984 1012.88 263.078 1012.12 261.297C1011.41 259.516 1010.3 258.078 1008.8 256.984C1007.3 255.891 1005.3 255.344 1002.8 255.344C1000.92 255.344 999.25 255.75 997.781 256.562C996.344 257.344 995.141 258.484 994.172 259.984C993.203 261.484 992.453 263.297 991.922 265.422C991.422 267.516 991.172 269.875 991.172 272.5V274.375C991.172 276.594 991.469 278.656 992.062 280.562C992.688 282.438 993.594 284.078 994.781 285.484C995.969 286.891 997.406 288 999.094 288.812C1000.78 289.594 1002.7 289.984 1004.86 289.984C1007.58 289.984 1010 289.438 1012.12 288.344C1014.25 287.25 1016.09 285.703 1017.66 283.703L1023.61 289.469C1022.52 291.062 1021.09 292.594 1019.34 294.062C1017.59 295.5 1015.45 296.672 1012.92 297.578C1010.42 298.484 1007.52 298.938 1004.2 298.938ZM1045.41 226V298H1034.06V226H1045.41ZM1069.88 226V298H1058.53V226H1069.88ZM1093.45 258.109V298H1082.16V247.281H1092.8L1093.45 258.109ZM1091.44 270.766L1087.78 270.719C1087.81 267.125 1088.31 263.828 1089.28 260.828C1090.28 257.828 1091.66 255.25 1093.41 253.094C1095.19 250.938 1097.31 249.281 1099.78 248.125C1102.25 246.938 1105 246.344 1108.03 246.344C1110.47 246.344 1112.67 246.688 1114.64 247.375C1116.64 248.031 1118.34 249.109 1119.75 250.609C1121.19 252.109 1122.28 254.062 1123.03 256.469C1123.78 258.844 1124.16 261.766 1124.16 265.234V298H1112.81V265.188C1112.81 262.75 1112.45 260.828 1111.73 259.422C1111.05 257.984 1110.03 256.969 1108.69 256.375C1107.38 255.75 1105.73 255.438 1103.77 255.438C1101.83 255.438 1100.09 255.844 1098.56 256.656C1097.03 257.469 1095.73 258.578 1094.67 259.984C1093.64 261.391 1092.84 263.016 1092.28 264.859C1091.72 266.703 1091.44 268.672 1091.44 270.766ZM1158.05 298.938C1154.3 298.938 1150.91 298.328 1147.88 297.109C1144.88 295.859 1142.31 294.125 1140.19 291.906C1138.09 289.688 1136.48 287.078 1135.36 284.078C1134.23 281.078 1133.67 277.844 1133.67 274.375V272.5C1133.67 268.531 1134.25 264.938 1135.41 261.719C1136.56 258.5 1138.17 255.75 1140.23 253.469C1142.3 251.156 1144.73 249.391 1147.55 248.172C1150.36 246.953 1153.41 246.344 1156.69 246.344C1160.31 246.344 1163.48 246.953 1166.2 248.172C1168.92 249.391 1171.17 251.109 1172.95 253.328C1174.77 255.516 1176.11 258.125 1176.98 261.156C1177.89 264.188 1178.34 267.531 1178.34 271.188V276.016H1139.16V267.906H1167.19V267.016C1167.12 264.984 1166.72 263.078 1165.97 261.297C1165.25 259.516 1164.14 258.078 1162.64 256.984C1161.14 255.891 1159.14 255.344 1156.64 255.344C1154.77 255.344 1153.09 255.75 1151.62 256.562C1150.19 257.344 1148.98 258.484 1148.02 259.984C1147.05 261.484 1146.3 263.297 1145.77 265.422C1145.27 267.516 1145.02 269.875 1145.02 272.5V274.375C1145.02 276.594 1145.31 278.656 1145.91 280.562C1146.53 282.438 1147.44 284.078 1148.62 285.484C1149.81 286.891 1151.25 288 1152.94 288.812C1154.62 289.594 1156.55 289.984 1158.7 289.984C1161.42 289.984 1163.84 289.438 1165.97 288.344C1168.09 287.25 1169.94 285.703 1171.5 283.703L1177.45 289.469C1176.36 291.062 1174.94 292.594 1173.19 294.062C1171.44 295.5 1169.3 296.672 1166.77 297.578C1164.27 298.484 1161.36 298.938 1158.05 298.938ZM1215.61 284.266C1215.61 283.141 1215.33 282.125 1214.77 281.219C1214.2 280.281 1213.12 279.438 1211.53 278.688C1209.97 277.938 1207.66 277.25 1204.59 276.625C1201.91 276.031 1199.44 275.328 1197.19 274.516C1194.97 273.672 1193.06 272.656 1191.47 271.469C1189.88 270.281 1188.64 268.875 1187.77 267.25C1186.89 265.625 1186.45 263.75 1186.45 261.625C1186.45 259.562 1186.91 257.609 1187.81 255.766C1188.72 253.922 1190.02 252.297 1191.7 250.891C1193.39 249.484 1195.44 248.375 1197.84 247.562C1200.28 246.75 1203 246.344 1206 246.344C1210.25 246.344 1213.89 247.062 1216.92 248.5C1219.98 249.906 1222.33 251.828 1223.95 254.266C1225.58 256.672 1226.39 259.391 1226.39 262.422H1215.09C1215.09 261.078 1214.75 259.828 1214.06 258.672C1213.41 257.484 1212.41 256.531 1211.06 255.812C1209.72 255.062 1208.03 254.688 1206 254.688C1204.06 254.688 1202.45 255 1201.17 255.625C1199.92 256.219 1198.98 257 1198.36 257.969C1197.77 258.938 1197.47 260 1197.47 261.156C1197.47 262 1197.62 262.766 1197.94 263.453C1198.28 264.109 1198.84 264.719 1199.62 265.281C1200.41 265.812 1201.47 266.312 1202.81 266.781C1204.19 267.25 1205.91 267.703 1207.97 268.141C1211.84 268.953 1215.17 270 1217.95 271.281C1220.77 272.531 1222.92 274.156 1224.42 276.156C1225.92 278.125 1226.67 280.625 1226.67 283.656C1226.67 285.906 1226.19 287.969 1225.22 289.844C1224.28 291.688 1222.91 293.297 1221.09 294.672C1219.28 296.016 1217.11 297.062 1214.58 297.812C1212.08 298.562 1209.27 298.938 1206.14 298.938C1201.55 298.938 1197.66 298.125 1194.47 296.5C1191.28 294.844 1188.86 292.734 1187.2 290.172C1185.58 287.578 1184.77 284.891 1184.77 282.109H1195.69C1195.81 284.203 1196.39 285.875 1197.42 287.125C1198.48 288.344 1199.8 289.234 1201.36 289.797C1202.95 290.328 1204.59 290.594 1206.28 290.594C1208.31 290.594 1210.02 290.328 1211.39 289.797C1212.77 289.234 1213.81 288.484 1214.53 287.547C1215.25 286.578 1215.61 285.484 1215.61 284.266ZM1265.02 284.266C1265.02 283.141 1264.73 282.125 1264.17 281.219C1263.61 280.281 1262.53 279.438 1260.94 278.688C1259.38 277.938 1257.06 277.25 1254 276.625C1251.31 276.031 1248.84 275.328 1246.59 274.516C1244.38 273.672 1242.47 272.656 1240.88 271.469C1239.28 270.281 1238.05 268.875 1237.17 267.25C1236.3 265.625 1235.86 263.75 1235.86 261.625C1235.86 259.562 1236.31 257.609 1237.22 255.766C1238.12 253.922 1239.42 252.297 1241.11 250.891C1242.8 249.484 1244.84 248.375 1247.25 247.562C1249.69 246.75 1252.41 246.344 1255.41 246.344C1259.66 246.344 1263.3 247.062 1266.33 248.5C1269.39 249.906 1271.73 251.828 1273.36 254.266C1274.98 256.672 1275.8 259.391 1275.8 262.422H1264.5C1264.5 261.078 1264.16 259.828 1263.47 258.672C1262.81 257.484 1261.81 256.531 1260.47 255.812C1259.12 255.062 1257.44 254.688 1255.41 254.688C1253.47 254.688 1251.86 255 1250.58 255.625C1249.33 256.219 1248.39 257 1247.77 257.969C1247.17 258.938 1246.88 260 1246.88 261.156C1246.88 262 1247.03 262.766 1247.34 263.453C1247.69 264.109 1248.25 264.719 1249.03 265.281C1249.81 265.812 1250.88 266.312 1252.22 266.781C1253.59 267.25 1255.31 267.703 1257.38 268.141C1261.25 268.953 1264.58 270 1267.36 271.281C1270.17 272.531 1272.33 274.156 1273.83 276.156C1275.33 278.125 1276.08 280.625 1276.08 283.656C1276.08 285.906 1275.59 287.969 1274.62 289.844C1273.69 291.688 1272.31 293.297 1270.5 294.672C1268.69 296.016 1266.52 297.062 1263.98 297.812C1261.48 298.562 1258.67 298.938 1255.55 298.938C1250.95 298.938 1247.06 298.125 1243.88 296.5C1240.69 294.844 1238.27 292.734 1236.61 290.172C1234.98 287.578 1234.17 284.891 1234.17 282.109H1245.09C1245.22 284.203 1245.8 285.875 1246.83 287.125C1247.89 288.344 1249.2 289.234 1250.77 289.797C1252.36 290.328 1254 290.594 1255.69 290.594C1257.72 290.594 1259.42 290.328 1260.8 289.797C1262.17 289.234 1263.22 288.484 1263.94 287.547C1264.66 286.578 1265.02 285.484 1265.02 284.266ZM1338.47 287.828V263.641C1338.47 261.828 1338.14 260.266 1337.48 258.953C1336.83 257.641 1335.83 256.625 1334.48 255.906C1333.17 255.188 1331.52 254.828 1329.52 254.828C1327.67 254.828 1326.08 255.141 1324.73 255.766C1323.39 256.391 1322.34 257.234 1321.59 258.297C1320.84 259.359 1320.47 260.562 1320.47 261.906H1309.22C1309.22 259.906 1309.7 257.969 1310.67 256.094C1311.64 254.219 1313.05 252.547 1314.89 251.078C1316.73 249.609 1318.94 248.453 1321.5 247.609C1324.06 246.766 1326.94 246.344 1330.12 246.344C1333.94 246.344 1337.31 246.984 1340.25 248.266C1343.22 249.547 1345.55 251.484 1347.23 254.078C1348.95 256.641 1349.81 259.859 1349.81 263.734V286.281C1349.81 288.594 1349.97 290.672 1350.28 292.516C1350.62 294.328 1351.11 295.906 1351.73 297.25V298H1340.16C1339.62 296.781 1339.2 295.234 1338.89 293.359C1338.61 291.453 1338.47 289.609 1338.47 287.828ZM1340.11 267.156L1340.2 274.141H1332.09C1330 274.141 1328.16 274.344 1326.56 274.75C1324.97 275.125 1323.64 275.688 1322.58 276.438C1321.52 277.188 1320.72 278.094 1320.19 279.156C1319.66 280.219 1319.39 281.422 1319.39 282.766C1319.39 284.109 1319.7 285.344 1320.33 286.469C1320.95 287.562 1321.86 288.422 1323.05 289.047C1324.27 289.672 1325.73 289.984 1327.45 289.984C1329.77 289.984 1331.78 289.516 1333.5 288.578C1335.25 287.609 1336.62 286.438 1337.62 285.062C1338.62 283.656 1339.16 282.328 1339.22 281.078L1342.88 286.094C1342.5 287.375 1341.86 288.75 1340.95 290.219C1340.05 291.688 1338.86 293.094 1337.39 294.438C1335.95 295.75 1334.22 296.828 1332.19 297.672C1330.19 298.516 1327.88 298.938 1325.25 298.938C1321.94 298.938 1318.98 298.281 1316.39 296.969C1313.8 295.625 1311.77 293.828 1310.3 291.578C1308.83 289.297 1308.09 286.719 1308.09 283.844C1308.09 281.156 1308.59 278.781 1309.59 276.719C1310.62 274.625 1312.12 272.875 1314.09 271.469C1316.09 270.062 1318.53 269 1321.41 268.281C1324.28 267.531 1327.56 267.156 1331.25 267.156H1340.11ZM1372.97 257.031V317.5H1361.67V247.281H1372.08L1372.97 257.031ZM1406.02 272.172V273.156C1406.02 276.844 1405.58 280.266 1404.7 283.422C1403.86 286.547 1402.59 289.281 1400.91 291.625C1399.25 293.938 1397.2 295.734 1394.77 297.016C1392.33 298.297 1389.52 298.938 1386.33 298.938C1383.17 298.938 1380.41 298.359 1378.03 297.203C1375.69 296.016 1373.7 294.344 1372.08 292.188C1370.45 290.031 1369.14 287.5 1368.14 284.594C1367.17 281.656 1366.48 278.438 1366.08 274.938V271.141C1366.48 267.422 1367.17 264.047 1368.14 261.016C1369.14 257.984 1370.45 255.375 1372.08 253.188C1373.7 251 1375.69 249.312 1378.03 248.125C1380.38 246.938 1383.11 246.344 1386.23 246.344C1389.42 246.344 1392.25 246.969 1394.72 248.219C1397.19 249.438 1399.27 251.188 1400.95 253.469C1402.64 255.719 1403.91 258.438 1404.75 261.625C1405.59 264.781 1406.02 268.297 1406.02 272.172ZM1394.72 273.156V272.172C1394.72 269.828 1394.5 267.656 1394.06 265.656C1393.62 263.625 1392.94 261.844 1392 260.312C1391.06 258.781 1389.86 257.594 1388.39 256.75C1386.95 255.875 1385.22 255.438 1383.19 255.438C1381.19 255.438 1379.47 255.781 1378.03 256.469C1376.59 257.125 1375.39 258.047 1374.42 259.234C1373.45 260.422 1372.7 261.812 1372.17 263.406C1371.64 264.969 1371.27 266.672 1371.05 268.516V277.609C1371.42 279.859 1372.06 281.922 1372.97 283.797C1373.88 285.672 1375.16 287.172 1376.81 288.297C1378.5 289.391 1380.66 289.938 1383.28 289.938C1385.31 289.938 1387.05 289.5 1388.48 288.625C1389.92 287.75 1391.09 286.547 1392 285.016C1392.94 283.453 1393.62 281.656 1394.06 279.625C1394.5 277.594 1394.72 275.438 1394.72 273.156ZM1426.97 257.031V317.5H1415.67V247.281H1426.08L1426.97 257.031ZM1460.02 272.172V273.156C1460.02 276.844 1459.58 280.266 1458.7 283.422C1457.86 286.547 1456.59 289.281 1454.91 291.625C1453.25 293.938 1451.2 295.734 1448.77 297.016C1446.33 298.297 1443.52 298.938 1440.33 298.938C1437.17 298.938 1434.41 298.359 1432.03 297.203C1429.69 296.016 1427.7 294.344 1426.08 292.188C1424.45 290.031 1423.14 287.5 1422.14 284.594C1421.17 281.656 1420.48 278.438 1420.08 274.938V271.141C1420.48 267.422 1421.17 264.047 1422.14 261.016C1423.14 257.984 1424.45 255.375 1426.08 253.188C1427.7 251 1429.69 249.312 1432.03 248.125C1434.38 246.938 1437.11 246.344 1440.23 246.344C1443.42 246.344 1446.25 246.969 1448.72 248.219C1451.19 249.438 1453.27 251.188 1454.95 253.469C1456.64 255.719 1457.91 258.438 1458.75 261.625C1459.59 264.781 1460.02 268.297 1460.02 272.172ZM1448.72 273.156V272.172C1448.72 269.828 1448.5 267.656 1448.06 265.656C1447.62 263.625 1446.94 261.844 1446 260.312C1445.06 258.781 1443.86 257.594 1442.39 256.75C1440.95 255.875 1439.22 255.438 1437.19 255.438C1435.19 255.438 1433.47 255.781 1432.03 256.469C1430.59 257.125 1429.39 258.047 1428.42 259.234C1427.45 260.422 1426.7 261.812 1426.17 263.406C1425.64 264.969 1425.27 266.672 1425.05 268.516V277.609C1425.42 279.859 1426.06 281.922 1426.97 283.797C1427.88 285.672 1429.16 287.172 1430.81 288.297C1432.5 289.391 1434.66 289.938 1437.28 289.938C1439.31 289.938 1441.05 289.5 1442.48 288.625C1443.92 287.75 1445.09 286.547 1446 285.016C1446.94 283.453 1447.62 281.656 1448.06 279.625C1448.5 277.594 1448.72 275.438 1448.72 273.156Z" fill="black"/>
<path d="M311 155.5L309.556 156.883C309.933 157.277 310.454 157.5 311 157.5C311.546 157.5 312.067 157.277 312.444 156.883L311 155.5ZM311 155.5C312.445 156.883 312.446 156.882 312.446 156.882L312.447 156.88C312.448 156.879 312.45 156.877 312.452 156.875C312.456 156.871 312.461 156.865 312.468 156.858C312.481 156.845 312.499 156.826 312.522 156.801C312.57 156.751 312.638 156.678 312.725 156.583C312.899 156.394 313.151 156.116 313.469 155.755C314.104 155.033 315.005 153.975 316.082 152.618C318.236 149.906 321.103 145.986 323.971 141.142C329.69 131.481 335.5 117.996 335.5 103C335.5 88.0036 329.69 74.5187 323.971 64.8584C321.103 60.0144 318.236 56.0943 316.082 53.3818C315.005 52.0248 314.104 50.9673 313.469 50.2451C313.151 49.884 312.899 49.6065 312.725 49.417C312.638 49.3224 312.57 49.2494 312.522 49.1992C312.499 49.1744 312.481 49.1553 312.468 49.1416C312.461 49.1347 312.456 49.129 312.452 49.125C312.45 49.123 312.448 49.1214 312.447 49.1201L312.446 49.1182C312.446 49.1175 312.445 49.117 311 50.5L312.444 49.1172C312.067 48.7231 311.546 48.5 311 48.5C310.454 48.5 309.933 48.7231 309.556 49.1172L310.733 50.2451C309.555 49.1172 309.554 49.1176 309.554 49.1182L309.553 49.1201C309.552 49.1214 309.55 49.123 309.548 49.125C309.544 49.129 309.539 49.1347 309.532 49.1416C309.519 49.1553 309.501 49.1744 309.478 49.1992C309.43 49.2494 309.362 49.3224 309.275 49.417C309.101 49.6065 308.849 49.884 308.531 50.2451C307.896 50.9673 306.995 52.0248 305.918 53.3818C303.764 56.0943 300.897 60.0144 298.029 64.8584C292.31 74.5187 286.5 88.0036 286.5 103C286.5 117.996 292.31 131.481 298.029 141.142C300.897 145.986 303.764 149.906 305.918 152.618C306.995 153.975 307.896 155.033 308.531 155.755C308.849 156.116 309.101 156.394 309.275 156.583C309.362 156.678 309.43 156.751 309.478 156.801C309.501 156.826 309.519 156.845 309.532 156.858C309.539 156.865 309.544 156.871 309.548 156.875C309.55 156.877 309.552 156.879 309.553 156.88L309.554 156.882C309.554 156.882 309.555 156.883 311 155.5Z" stroke="black" stroke-width="4" stroke-linecap="round" stroke-linejoin="round"/>
<mask id="path-3-outside-1_2055_350" maskUnits="userSpaceOnUse" x="231" y="76.5" width="160" height="113" fill="black">
<rect fill="white" x="231" y="76.5" width="160" height="113"/>
<path d="M268.475 88C251.863 80.845 236 80.5 236 80.5C236 80.5 236.72 113.357 257.427 134.072C278.135 154.787 311 155.5 311 155.5C311 155.5 343.857 154.78 364.572 134.072C385.287 113.365 386 80.5 386 80.5C386 80.5 370.145 80.845 353.525 88M311.15 155.5C309.905 165.497 315.95 185.5 337.355 185.5C352.317 185.5 359.802 170.5 386 185.5C383 170.5 377 160.9 368.247 155.5M310.842 155.5C312.095 165.497 306.043 185.5 284.653 185.5C269.675 185.5 262.198 170.5 236 185.5C239 170.5 245 160.9 253.753 155.5"/>
</mask>
<path d="M266.893 91.6737C268.922 92.5476 271.275 91.6112 272.149 89.5823C273.023 87.5533 272.086 85.2001 270.057 84.3263L266.893 91.6737ZM236 80.5L236.087 76.5009C234.996 76.4772 233.943 76.9002 233.171 77.6718C232.4 78.4434 231.977 79.4967 232.001 80.5876L236 80.5ZM311 155.5L310.913 159.499C310.971 159.5 311.03 159.5 311.088 159.499L311 155.5ZM386 80.5L389.999 80.5867C390.023 79.496 389.6 78.4429 388.828 77.6715C388.057 76.9 387.004 76.4772 385.913 76.5009L386 80.5ZM351.943 84.326C349.914 85.1995 348.977 87.5526 349.851 89.5817C350.725 91.6108 353.078 92.5475 355.107 91.674L351.943 84.326ZM315.119 155.994C315.392 153.802 313.837 151.804 311.644 151.531C309.452 151.258 307.454 152.813 307.181 155.006L315.119 155.994ZM386 185.5L384.012 188.971C385.374 189.751 387.065 189.663 388.337 188.746C389.61 187.829 390.23 186.254 389.922 184.716L386 185.5ZM370.348 152.096C368.468 150.936 366.003 151.52 364.843 153.4C363.683 155.28 364.267 157.744 366.147 158.904L370.348 152.096ZM314.811 155.003C314.537 152.811 312.537 151.256 310.345 151.531C308.153 151.806 306.599 153.805 306.874 155.997L314.811 155.003ZM236 185.5L232.078 184.716C231.77 186.254 232.39 187.829 233.663 188.746C234.935 189.663 236.626 189.751 237.988 188.971L236 185.5ZM255.853 158.904C257.733 157.744 258.317 155.28 257.157 153.4C255.997 151.52 253.532 150.936 251.652 152.096L255.853 158.904ZM268.475 88L270.057 84.3263C261.365 80.5825 252.909 78.6346 246.649 77.6185C243.511 77.1092 240.904 76.8308 239.067 76.6793C238.148 76.6034 237.421 76.5593 236.915 76.5338C236.661 76.5211 236.463 76.5131 236.324 76.5081C236.255 76.5057 236.2 76.504 236.16 76.5028C236.14 76.5023 236.124 76.5018 236.112 76.5015C236.106 76.5014 236.101 76.5013 236.097 76.5012C236.094 76.5011 236.093 76.5011 236.091 76.501C236.09 76.501 236.089 76.501 236.089 76.501C236.088 76.501 236.087 76.5009 236 80.5C235.913 84.4991 235.912 84.499 235.912 84.499C235.911 84.499 235.911 84.499 235.91 84.499C235.91 84.499 235.909 84.499 235.909 84.499C235.909 84.499 235.91 84.499 235.911 84.499C235.914 84.4991 235.921 84.4993 235.932 84.4996C235.953 84.5002 235.989 84.5013 236.04 84.5031C236.141 84.5067 236.3 84.5131 236.513 84.5238C236.94 84.5452 237.581 84.5838 238.409 84.6522C240.066 84.7889 242.463 85.0439 245.367 85.5152C251.191 86.4604 258.973 88.2625 266.893 91.6737L268.475 88ZM236 80.5C232.001 80.5876 232.001 80.589 232.001 80.5904C232.001 80.5911 232.001 80.5927 232.001 80.594C232.001 80.5966 232.001 80.5997 232.001 80.6033C232.002 80.6105 232.002 80.6198 232.002 80.631C232.003 80.6534 232.004 80.6837 232.005 80.7218C232.007 80.798 232.011 80.9052 232.017 81.0421C232.028 81.3157 232.048 81.708 232.08 82.208C232.144 83.2075 232.258 84.6392 232.462 86.4142C232.87 89.9599 233.635 94.8983 235.074 100.511C237.934 111.674 243.54 125.837 254.599 136.9L257.427 134.072L260.256 131.245C250.608 121.593 245.5 108.97 242.823 98.5252C241.493 93.3342 240.785 88.7635 240.41 85.5011C240.223 83.872 240.119 82.5749 240.063 81.6967C240.035 81.2577 240.019 80.9239 240.01 80.7061C240.005 80.5972 240.002 80.5174 240.001 80.4679C240 80.4432 239.999 80.4261 239.999 80.4168C239.999 80.4122 239.999 80.4094 239.999 80.4087C239.999 80.4083 239.999 80.4084 239.999 80.409C239.999 80.4094 239.999 80.4102 239.999 80.4103C239.999 80.4113 239.999 80.4124 236 80.5ZM257.427 134.072L254.599 136.9C265.658 147.964 279.822 153.57 290.987 156.429C296.6 157.867 301.539 158.632 305.086 159.039C306.861 159.243 308.293 159.357 309.293 159.421C309.793 159.453 310.185 159.472 310.459 159.483C310.596 159.489 310.703 159.493 310.779 159.495C310.817 159.497 310.848 159.497 310.87 159.498C310.881 159.498 310.89 159.499 310.898 159.499C310.901 159.499 310.904 159.499 310.907 159.499C310.908 159.499 310.91 159.499 310.911 159.499C310.912 159.499 310.913 159.499 311 155.5C311.087 151.501 311.088 151.501 311.089 151.501C311.089 151.501 311.09 151.501 311.09 151.501C311.091 151.501 311.091 151.501 311.09 151.501C311.09 151.501 311.087 151.501 311.082 151.501C311.073 151.501 311.056 151.5 311.031 151.499C310.982 151.498 310.902 151.495 310.793 151.49C310.575 151.481 310.241 151.465 309.802 151.437C308.924 151.381 307.626 151.278 305.997 151.091C302.734 150.717 298.163 150.009 292.972 148.679C282.527 146.004 269.904 140.896 260.256 131.245L257.427 134.072ZM311 155.5C311.088 159.499 311.089 159.499 311.09 159.499C311.091 159.499 311.093 159.499 311.094 159.499C311.097 159.499 311.1 159.499 311.103 159.499C311.111 159.498 311.12 159.498 311.131 159.498C311.153 159.497 311.184 159.496 311.222 159.495C311.298 159.493 311.405 159.489 311.542 159.483C311.816 159.472 312.208 159.452 312.708 159.42C313.708 159.356 315.139 159.242 316.914 159.038C320.46 158.63 325.398 157.865 331.011 156.426C342.174 153.566 356.337 147.96 367.4 136.901L364.572 134.072L361.745 131.244C352.093 140.892 339.47 146 329.025 148.677C323.834 150.007 319.264 150.715 316.001 151.09C314.372 151.277 313.075 151.381 312.197 151.437C311.758 151.465 311.424 151.481 311.206 151.49C311.097 151.495 311.017 151.498 310.968 151.499C310.943 151.5 310.926 151.501 310.917 151.501C310.912 151.501 310.909 151.501 310.909 151.501C310.908 151.501 310.908 151.501 310.909 151.501C310.909 151.501 310.91 151.501 310.91 151.501C310.911 151.501 310.912 151.501 311 155.5ZM364.572 134.072L367.4 136.901C378.464 125.842 384.07 111.678 386.929 100.513C388.367 94.9001 389.132 89.9609 389.539 86.4145C389.743 84.6392 389.857 83.2072 389.921 82.2074C389.953 81.7074 389.972 81.3149 389.983 81.0412C389.989 80.9044 389.993 80.7972 389.995 80.7209C389.997 80.6828 389.997 80.6525 389.998 80.6301C389.998 80.6188 389.999 80.6096 389.999 80.6024C389.999 80.5988 389.999 80.5956 389.999 80.593C389.999 80.5917 389.999 80.5901 389.999 80.5895C389.999 80.588 389.999 80.5867 386 80.5C382.001 80.4133 382.001 80.4122 382.001 80.4113C382.001 80.4111 382.001 80.4103 382.001 80.41C382.001 80.4094 382.001 80.4092 382.001 80.4096C382.001 80.4104 382.001 80.4131 382.001 80.4177C382.001 80.4271 382 80.4442 381.999 80.4689C381.998 80.5183 381.995 80.5981 381.99 80.707C381.981 80.9249 381.965 81.2588 381.937 81.6978C381.881 82.5762 381.778 83.8736 381.591 85.503C381.217 88.7659 380.509 93.337 379.179 98.5284C376.504 108.973 371.396 121.596 361.745 131.244L364.572 134.072ZM386 80.5C385.913 76.5009 385.912 76.501 385.911 76.501C385.911 76.501 385.91 76.501 385.909 76.501C385.907 76.5011 385.905 76.5011 385.903 76.5012C385.899 76.5013 385.894 76.5014 385.888 76.5015C385.876 76.5018 385.86 76.5023 385.84 76.5028C385.8 76.504 385.745 76.5057 385.676 76.5081C385.537 76.5131 385.339 76.5211 385.086 76.5338C384.579 76.5593 383.852 76.6034 382.934 76.6793C381.098 76.8308 378.492 77.1093 375.354 77.6186C369.095 78.6346 360.639 80.5825 351.943 84.326L353.525 88L355.107 91.674C363.031 88.2625 370.813 86.4604 376.636 85.5152C379.54 85.0439 381.936 84.7889 383.592 84.6521C384.42 84.5838 385.061 84.5452 385.487 84.5238C385.7 84.5131 385.859 84.5067 385.96 84.5031C386.011 84.5013 386.047 84.5002 386.068 84.4996C386.079 84.4993 386.086 84.4991 386.089 84.499C386.091 84.499 386.091 84.499 386.091 84.499C386.091 84.499 386.09 84.499 386.09 84.499C386.089 84.499 386.089 84.499 386.089 84.499C386.088 84.499 386.087 84.4991 386 80.5ZM311.15 155.5L307.181 155.006C306.447 160.898 307.837 169.347 312.397 176.417C317.098 183.706 325.175 189.5 337.355 189.5V185.5V181.5C328.13 181.5 322.482 177.293 319.12 172.081C315.618 166.651 314.608 160.1 315.119 155.994L311.15 155.5ZM337.355 185.5V189.5C341.784 189.5 345.572 188.381 348.954 187.149C352.513 185.852 355.209 184.618 358.497 183.739C364.377 182.168 371.718 181.932 384.012 188.971L386 185.5L387.988 182.029C374.084 174.068 364.584 173.832 356.432 176.011C352.703 177.007 349.086 178.586 346.214 179.632C343.166 180.744 340.407 181.5 337.355 181.5V185.5ZM386 185.5L389.922 184.716C386.787 169.041 380.352 158.268 370.348 152.096L368.247 155.5L366.147 158.904C373.648 163.532 379.213 171.959 382.078 186.284L386 185.5ZM310.842 155.5L306.874 155.997C307.388 160.1 306.378 166.651 302.877 172.081C299.516 177.294 293.869 181.5 284.653 181.5V185.5V189.5C296.826 189.5 304.9 183.705 309.6 176.417C314.159 169.347 315.55 160.897 314.811 155.003L310.842 155.5ZM284.653 185.5V181.5C281.596 181.5 278.834 180.743 275.785 179.632C272.913 178.586 269.294 177.007 265.566 176.011C257.414 173.832 247.916 174.068 234.012 182.029L236 185.5L237.988 188.971C250.282 181.932 257.621 182.168 263.501 183.739C266.789 184.618 269.486 185.852 273.047 187.149C276.431 188.382 280.22 189.5 284.653 189.5V185.5ZM236 185.5L239.922 186.284C242.787 171.959 248.352 163.532 255.853 158.904L253.753 155.5L251.652 152.096C241.648 158.268 235.213 169.041 232.078 184.716L236 185.5Z" fill="black" mask="url(#path-3-outside-1_2055_350)"/>
</svg>
